<?xml version="1.0" encoding="UTF-8" standalone="no"?>
<!-- Created with Inkscape (http://www.inkscape.org/) -->

<svg
   width="94.57mm"
   height="30mm"
   viewBox="0 0 94.57 30"
   version="1.1"
   id="svg1"
   xml:space="preserve"
   inkscape:export-filename="img1.svg"
   inkscape:export-xdpi="96"
   inkscape:export-ydpi="96"
   inkscape:version="1.4.3 (0d15f75, 2025-12-25)"
   sodipodi:docname="img1.svg"
   xmlns:inkscape="http://www.inkscape.org/namespaces/inkscape"
   xmlns:sodipodi="http://sodipodi.sourceforge.net/DTD/sodipodi-0.dtd"
   xmlns="http://www.w3.org/2000/svg"
   xmlns:svg="http://www.w3.org/2000/svg"><sodipodi:namedview
     id="namedview1"
     pagecolor="#ff5858"
     bordercolor="#000000"
     borderopacity="0.25"
     inkscape:showpageshadow="2"
     inkscape:pageopacity="0.0"
     inkscape:pagecheckerboard="0"
     inkscape:deskcolor="#d1d1d1"
     inkscape:document-units="mm"
     inkscape:zoom="0.35388021"
     inkscape:cx="1058.2677"
     inkscape:cy="755.9055"
     inkscape:window-width="1366"
     inkscape:window-height="745"
     inkscape:window-x="-8"
     inkscape:window-y="-8"
     inkscape:window-maximized="1"
     inkscape:current-layer="svg1"
     showguides="false"><inkscape:page
       x="0"
       y="0"
       width="94.57"
       height="30"
       id="page2"
       margin="0"
       bleed="0" /></sodipodi:namedview><defs
     id="defs1" /><path
     d="M 39.211463,11.894737 V 1.9200341 h 3.315845 l 1.991002,6.8040265 1.968551,-6.8040265 h 3.323327 V 11.894737 H 47.751823 V 4.0428903 L 45.573691,11.894737 H 43.440474 L 41.269832,4.0428903 V 11.894737 Z M 51.919875,8.1797388 q 0,-0.9525642 0.516469,-1.8438914 0.516458,-0.8913272 1.45956,-1.3608055 0.950601,-0.4694773 2.11825,-0.4694773 1.803881,0 2.956569,1.068232 1.15268,1.0614287 1.15268,2.6875897 0,1.6397707 -1.167649,2.7216107 -1.16018,1.075035 -2.926631,1.075035 -1.092803,0 -2.088303,-0.449065 -0.988018,-0.449065 -1.504476,-1.313175 -0.516469,-0.8709165 -0.516469,-2.1160532 z m 2.155668,0.1020592 q 0,1.0750372 0.561375,1.646575 0.561377,0.571538 1.384725,0.571538 0.82335,0 1.377236,-0.571538 0.561365,-0.5715378 0.561365,-1.6601825 0,-1.0614276 -0.561365,-1.6329652 -0.553886,-0.5715387 -1.377236,-0.5715387 -0.823348,0 -1.384725,0.5715387 -0.561375,0.5715376 -0.561375,1.6465727 z M 65.82589,4.6688609 v 1.5241019 h -1.437122 v 2.9121233 q 0,0.8845229 0.0374,1.0342119 0.04495,0.142885 0.187129,0.238141 0.149701,0.09526 0.359277,0.09526 0.291913,0 0.845799,-0.18371 l 0.179639,1.483279 q -0.733525,0.285767 -1.661657,0.285767 -0.568857,0 -1.025438,-0.1701 -0.456593,-0.176905 -0.673659,-0.449066 -0.209567,-0.278964 -0.291903,-0.748442 -0.06734,-0.333398 -0.06734,-1.3471972 V 6.1929628 H 61.312456 V 4.6688609 h 0.965561 V 3.2332113 l 2.110761,-1.1158605 v 2.5515101 z m 1.38365,3.5108779 q 0,-0.9525642 0.516458,-1.8438914 0.516469,-0.8913272 1.459572,-1.3608055 0.950591,-0.4694773 2.11824,-0.4694773 1.803879,0 2.956569,1.068232 1.152681,1.0614287 1.152681,2.6875897 0,1.6397707 -1.167649,2.7216107 -1.16017,1.075035 -2.926622,1.075035 -1.092802,0 -2.088312,-0.449065 -0.98801,-0.449065 -1.504479,-1.313175 Q 67.20954,9.4248755 67.20954,8.1797388 Z m 2.155669,0.1020592 q 0,1.0750372 0.561375,1.646575 0.561376,0.571538 1.384716,0.571538 0.82335,0 1.377236,-0.571538 0.561375,-0.5715378 0.561375,-1.6601825 0,-1.0614276 -0.561375,-1.6329652 Q 72.13465,6.0636866 71.3113,6.0636866 q -0.82334,0 -1.384716,0.5715387 -0.561375,0.5715376 -0.561375,1.6465727 z M 38.680031,22.583863 40.835705,22.39335 q 0.19461,0.986584 0.785921,1.449257 0.598797,0.462674 1.609269,0.462674 1.070351,0 1.609272,-0.408242 0.546399,-0.415046 0.546399,-0.966172 0,-0.353809 -0.232034,-0.598754 -0.224547,-0.251748 -0.793405,-0.435457 -0.389221,-0.122473 -1.773939,-0.435458 -1.781426,-0.401437 -2.49998,-0.986584 -1.010473,-0.823287 -1.010473,-2.007187 0,-0.762052 0.471555,-1.422042 0.479037,-0.666794 1.369749,-1.0138 0.898197,-0.347005 2.163158,-0.347005 2.06585,0 3.106262,0.823287 1.047896,0.823287 1.100294,2.1977 l -2.215554,0.08845 q -0.142214,-0.768854 -0.613768,-1.102251 -0.464069,-0.340202 -1.39969,-0.340202 -0.96556,0 -1.511964,0.360614 -0.351793,0.231338 -0.351793,0.619168 0,0.353808 0.329338,0.605557 0.419156,0.319789 2.035911,0.666795 1.616756,0.347005 2.387711,0.721226 0.778432,0.367418 1.212556,1.0138 0.441612,0.63958 0.441612,1.585339 0,0.857307 -0.523948,1.605751 -0.523948,0.748441 -1.482018,1.115859 -0.958076,0.360614 -2.387707,0.360614 -2.08082,0 -3.196082,-0.870915 -1.115261,-0.87772 -1.332326,-2.551509 z m 10.18598,-3.980356 h 2.238004 l 1.901183,5.130237 1.856278,-5.130237 h 2.178125 l -2.806868,6.953715 -0.501489,1.258745 q -0.276944,0.632774 -0.531438,0.966172 -0.247004,0.333397 -0.576344,0.537517 -0.32185,0.210926 -0.800892,0.326593 -0.471551,0.11567 -1.070344,0.11567 -0.606284,0 -1.190117,-0.11567 L 49.37499,27.149364 q 0.494,0.08845 0.890705,0.08845 0.733525,0 1.085324,-0.394633 0.351788,-0.38783 0.538918,-0.993388 z m 9.190473,5.164256 2.110761,-0.292573 q 0.134732,0.55793 0.546408,0.850504 0.411674,0.285769 1.152688,0.285769 0.815861,0 1.227535,-0.272162 0.276944,-0.190512 0.276944,-0.510301 0,-0.21773 -0.149701,-0.360613 -0.157191,-0.136081 -0.703587,-0.25175 -2.544895,-0.510301 -3.226024,-0.932152 -0.943111,-0.585146 -0.943111,-1.626163 0,-0.938955 0.815871,-1.578534 0.815858,-0.639578 2.529914,-0.639578 1.631721,0 2.425132,0.483087 0.793402,0.483084 1.092802,1.428844 l -1.983518,0.333398 q -0.127242,-0.421849 -0.48652,-0.646384 -0.351789,-0.224531 -1.010469,-0.224531 -0.830827,0 -1.190115,0.210924 -0.239517,0.149688 -0.239517,0.38783 0,0.204121 0.209577,0.347005 0.284433,0.190513 1.961061,0.537518 1.684126,0.347006 2.350285,0.850503 0.658681,0.510302 0.658681,1.422043 0,0.993387 -0.913174,1.707809 -0.913164,0.714424 -2.702066,0.714424 -1.62424,0 -2.574833,-0.598754 -0.943111,-0.598755 -1.235024,-1.626163 z m 13.322171,-5.164256 v 1.524102 h -1.437102 v 2.912123 q 0,0.884523 0.0374,1.034212 0.04485,0.142885 0.18712,0.238141 0.1497,0.09526 0.359289,0.09526 0.291911,0 0.845796,-0.183708 l 0.179629,1.483277 q -0.733514,0.28577 -1.661657,0.28577 -0.568855,0 -1.025437,-0.170101 -0.456583,-0.176905 -0.67365,-0.449066 -0.209576,-0.278964 -0.291912,-0.748442 -0.06734,-0.333397 -0.06734,-1.347198 V 20.12761 h -0.965562 v -1.524102 h 0.965562 v -1.43565 l 2.11076,-1.115861 v 2.551511 z m 6.47344,4.926116 2.095792,0.319788 q -0.404185,1.04782 -1.279931,1.598948 -0.868257,0.544321 -2.178128,0.544321 -2.073333,0 -3.068841,-1.23153 -0.785923,-0.986583 -0.785923,-2.490273 0,-1.796263 1.032927,-2.810063 1.032927,-1.020604 2.612261,-1.020604 1.773931,0 2.799378,1.068233 1.025438,1.061427 0.980531,3.259128 h -5.269419 q 0.02249,0.850503 0.508979,1.326786 0.48652,0.469477 1.212566,0.469477 0.494,0 0.830829,-0.244945 0.33682,-0.244945 0.508979,-0.789266 z m 0.119754,-1.932345 q -0.02249,-0.830091 -0.471552,-1.258744 -0.449094,-0.435458 -1.092803,-0.435458 -0.688618,0 -1.137711,0.455869 -0.449101,0.455871 -0.441622,1.238333 z m 4.055786,-2.993771 h 1.938611 v 0.986583 q 1.040406,-1.14988 2.47753,-1.14988 0.763462,0 1.324837,0.285769 0.561368,0.28577 0.920646,0.864111 0.523947,-0.578341 1.130229,-0.864111 0.606294,-0.285769 1.294912,-0.285769 0.875737,0 1.482019,0.326593 0.606284,0.31979 0.905684,0.94576 0.217066,0.462673 0.217066,1.496885 v 4.619935 h -2.103281 v -4.130044 q 0,-1.075037 -0.217066,-1.388022 -0.291911,-0.408241 -0.898195,-0.408241 -0.441614,0 -0.83083,0.244944 -0.389225,0.244945 -0.561375,0.721228 -0.172159,0.469478 -0.172159,1.490081 v 3.470054 h -2.103272 v -3.959944 q 0,-1.054623 -0.112273,-1.360805 -0.112272,-0.306181 -0.351799,-0.45587 -0.232035,-0.149688 -0.63622,-0.149688 -0.48652,0 -0.875736,0.238141 -0.389228,0.23814 -0.561377,0.687207 -0.16467,0.449065 -0.16467,1.490082 v 3.510877 h -2.103281 z"
     id="text1"
     style="font-weight:bold;font-size:37.3333px;line-height:1;font-family:Arial;-inkscape-font-specification:'Arial, Bold';letter-spacing:1px;word-spacing:-0.07px;white-space:pre;stroke:#ffffff;stroke-width:1.56554;stroke-linecap:square;stroke-miterlimit:2.2;stroke-dasharray:none;stroke-opacity:1;paint-order:markers stroke fill"
     aria-label="Moto System" /><g
     id="g3"
     transform="matrix(0.99462384,0,0,0.99462384,0.92334137,0.14916299)"><path
       d="m 19.646863,0.28732096 c -1.672078,0 -3.145908,1.07029654 -3.558439,2.65410154 -0.164437,0.6313172 -0.112841,1.3111334 0.01912,2.001945 0.131963,0.6908115 0.344174,1.3601582 0.715202,1.9001424 0.192436,0.2800535 0.403616,0.4862293 0.669726,0.6821289 0.119398,0.087896 0.238107,0.1629771 0.363286,0.2263428 0.125179,0.063366 0.195402,0.1473494 0.536918,0.1462443 0.400597,-0.0013 0.510723,-0.1370946 0.660425,-0.2382283 0.07921,-0.053513 0.174507,-0.1350541 0.259932,-0.2030884 0.0056,0.034565 0.0089,0.064239 0.02687,0.1214396 0.005,0.015935 0.02196,0.048129 0.02945,0.068213 -0.0381,0.051932 -0.10901,0.1512312 -0.144177,0.1989543 -0.293211,0.3978944 -0.52529,0.6890235 -0.540019,0.7110677 L 17.33641,8.7694906 c -0.448041,0.070869 -0.864624,0.1377863 -1.177706,0.1896525 -0.156542,0.025933 -0.287887,0.047109 -0.38499,0.064079 -0.04855,0.00849 -0.08932,0.017415 -0.12299,0.023771 -0.03366,0.00636 -3.32e-4,-0.00941 -0.132808,0.031006 -0.127978,0.039052 -0.08419,0.1670607 -0.170016,0.2382283 -0.01154,-0.0013 -0.01599,-0.00196 -0.01757,-0.00258 h -5.16e-4 v -5.168e-4 -5.167e-4 -5.168e-4 h 5.16e-4 v -5.168e-4 -5.167e-4 -5.168e-4 l -5.16e-4,-5.168e-4 -5.17e-4,-5.167e-4 -5.17e-4,-5.168e-4 -5.17e-4,-5.168e-4 c -0.0043,-0.00259 -0.01581,-0.00659 -0.04289,-0.013436 -0.279586,-0.070712 -0.481,-0.131031 -0.820106,-0.1291949 -0.51396,0.00261 -0.930461,0.2423447 -1.279509,0.5761922 C 12.654359,9.759216 12.22034,10.025732 11.85199,10.39058 11.666356,10.20975 11.47725,10.027753 11.133171,9.722404 11.002036,9.6060308 10.904447,9.5148395 10.785388,9.4216471 10.666328,9.3284551 10.502596,9.1876397 10.180257,9.1601644 9.857918,9.1326894 9.5728874,9.305937 9.4474854,9.4123454 9.3220834,9.5187537 9.2559586,9.5977492 9.1663656,9.6913981 8.9510406,9.9164679 8.7780952,10.113163 8.6408162,10.298596 c -0.126926,0.171447 -0.2674073,0.290169 -0.2909383,0.717269 -0.07084,-0.0047 -0.1238839,-0.07441 -0.1953369,-0.07441 -0.111199,0 -0.2266947,-0.03856 -0.5136637,0.03876 -0.28697,0.07732 -0.6273702,0.457763 -0.7012492,0.713135 -0.1477579,0.510744 -0.083716,0.875409 -0.083716,1.808675 0,0.657896 0.00152,1.064652 0.013436,1.345655 0.011914,0.281004 -0.090814,0.413544 0.2108399,0.824239 0.097486,0.132705 0.4156304,0.348225 0.6196004,0.386539 0.203971,0.03831 0.3236752,0.02702 0.5038452,0.0217 0.03089,-9.09e-4 0.053066,-0.02214 0.083716,-0.02377 -0.0045,0.01185 -0.00215,0.0098 -0.00775,0.02377 -0.05602,0.137725 -0.1640972,0.373444 -0.3240112,0.70125 -0.0725,0.148622 -0.1274766,0.254726 -0.1896526,0.378788 -1.3641935,-0.390998 -2.9028309,-0.38072 -4.1894083,0.118856 -0.2564311,0.09957 -0.510009,0.219733 -0.7224365,0.334346 -0.1062137,0.05731 -0.2000542,0.109631 -0.2950725,0.1757 -0.047509,0.03303 -0.093115,0.06554 -0.1601969,0.130741 -0.067083,0.0652 -0.2619995,0.102093 -0.2619995,0.599447 1e-7,0.266839 0.1273642,0.290954 0.2227254,0.404627 -0.76463,0.610222 -1.43529433,1.360403 -1.81229248,2.230354 -0.3496711,0.806888 -0.45678413,1.368112 -0.45733643,2.392619 -4.492e-4,0.828393 0.03750652,1.129728 0.17208252,1.574064 0.2849313,0.940829 0.70518552,1.697711 1.33428549,2.384868 0.9214484,1.006483 2.0988808,1.660482 3.4411336,1.912028 0.7634521,0.14308 1.6813504,0.09392 2.4685832,-0.107487 2.3704715,-0.606492 4.1005636,-2.657764 4.3692426,-4.999695 0.06137,-0.0028 0.09768,0.0085 0.220659,-0.04134 0.199157,-0.08065 0.412705,-0.322493 0.474906,-0.484209 0.124404,-0.323431 0.07028,-0.389691 0.07028,-0.535367 0,-0.01167 -0.004,-0.0249 -0.0041,-0.03669 0.233778,0.395658 0.441439,0.816877 0.63872,1.066085 0.738162,0.932459 1.916642,1.451817 3.267501,1.570447 0.253393,0.02225 0.643104,0.02507 1.238168,0.02739 0.595065,0.0023 1.353,-0.0018 2.174027,-0.01188 l 2.791044,-0.03307 a 0.7870787,0.7870787 0 0 0 0.337964,-0.08217 l 0.337964,-0.165881 c 0.315568,-0.155428 0.60158,-0.364415 0.860929,-0.599447 l 0.09974,-0.08992 0.335897,0.01757 c 0.272746,0.01417 0.316321,0.02198 0.44545,0.03307 0.0584,0.225016 0.07692,0.454576 0.170016,0.697115 0.174696,0.455142 0.391781,0.913624 0.646472,1.289327 1.45311,2.143527 4.226685,3.091646 6.681763,2.280998 0.906236,-0.299233 1.817091,-0.869151 2.431376,-1.55236 1.457709,-1.621259 1.938261,-3.773811 1.273307,-5.801196 -0.10637,-0.324314 -0.384768,-0.529742 -0.542602,-0.823722 0.07093,0.02054 0.128231,0.105657 0.201021,0.118855 0.204811,0.03713 0.383281,0.03895 0.583944,0.0021 0.100332,-0.01848 0.2066,-0.04079 0.355534,-0.127124 0.148934,-0.08633 0.431498,-0.330253 0.431498,-0.732255 0,-0.0012 -0.01496,-0.154249 -0.02532,-0.195337 -0.01036,-0.04109 -0.01921,-0.06805 -0.02739,-0.08992 -0.01637,-0.04375 -0.02792,-0.07003 -0.03876,-0.09198 -0.02168,-0.0439 -0.04004,-0.07334 -0.05891,-0.10542 -0.03775,-0.06416 -0.08045,-0.130613 -0.132808,-0.210839 -0.104716,-0.160453 -0.243978,-0.366406 -0.406177,-0.599447 -0.291793,-0.419235 -0.653848,-0.919987 -0.988053,-1.369425 0.05586,-0.04931 0.162128,-0.09688 0.185518,-0.126608 0.09431,-0.119882 0.207882,-0.348931 0.241846,-0.533301 0.03396,-0.184369 0.03152,-0.3298 0.03152,-0.525549 0,-0.236309 -0.02995,-0.446513 -0.103352,-0.683679 l 0.283186,-0.257349 h 0.507463 c 0.245002,0 0.471759,-0.0054 0.656291,-0.01602 0.09227,-0.0053 0.173004,-0.01155 0.252181,-0.02119 0.07918,-0.0096 0.06147,0.05911 0.376721,-0.109554 0.282522,-0.151167 0.369122,-0.347726 0.425814,-0.488342 0.05669,-0.140616 0.07681,-0.258707 0.08578,-0.378788 0.01754,-0.234872 0.06864,-0.493562 -0.283187,-0.859379 l 5.16e-4,-5.17e-4 -5.16e-4,-5.17e-4 v -5.17e-4 -5.16e-4 c 0.06953,-0.2414 0.04755,-0.274145 0.05478,-0.418063 0.0073,-0.14458 0.01202,-0.326505 0.0155,-0.560172 0.0069,-0.465528 0.0076,-1.130087 0.0026,-2.013831 v -0.0078 l 0.0098,-2.5274946 a 0.7870787,0.7870787 0 0 0 0,-0.00413 V 7.2868937 c 0,-0.2667438 -0.02534,-0.5261166 -0.130741,-0.7890991 -0.10548,-0.2629826 -0.316619,-0.5164538 -0.561238,-0.6655925 -0.06496,-0.039611 -0.282581,-0.1355527 -0.444934,-0.1622639 -0.162352,-0.026711 -0.318539,-0.033937 -0.576193,-0.040824 -0.515307,-0.013773 -1.428696,-0.01386 -3.223059,-0.013953 -1.971363,-1.018e-4 -2.932991,-0.00467 -3.503662,0.031523 -0.285336,0.018096 -0.486075,0.032386 -0.738456,0.1426269 -0.252381,0.1102411 -0.451093,0.3642237 -0.489893,0.4196126 -0.247442,0.3532846 -0.224792,0.6456665 -0.224792,0.9901205 v 0.8242391 2.1683427 c -0.0038,-0.0066 -0.0059,-0.01089 -0.0098,-0.01757 C 28.267446,9.6720652 27.884065,9.0601601 27.48101,8.4687337 26.875401,7.5805817 26.263308,6.8122307 25.559163,6.0549276 24.71692,5.1490983 23.931719,4.6572346 22.967074,4.4942993 c -0.0044,-7.5e-4 -0.0071,-0.00109 -0.0083,-0.00103 h -5.16e-4 v 5.168e-4 l 5.16e-4,5.167e-4 5.17e-4,5.168e-4 c 9.48e-4,5.447e-4 0.0022,0.00159 0.0031,0.00207 -9.65e-4,-1.274e-4 -0.0028,-5.207e-4 -0.0052,-0.00103 -0.04279,-0.070266 -0.07803,-0.14095 -0.14056,-0.2108398 -0.0041,-0.00459 -0.01907,-0.00869 -0.02325,-0.013436 0.0025,-0.037335 0.03322,-0.1043068 0.03669,-0.142627 0.01229,-0.1355429 0.01561,-0.271227 0.01189,-0.4139282 C 22.834668,3.4296096 22.808239,3.137302 22.73453,2.8494385 22.589107,2.2815746 22.348223,1.7344254 21.967135,1.2908773 21.399418,0.6301162 20.544353,0.28732096 19.646863,0.28732096 Z M 19.646346,1.074353 c 0.699409,0 1.324183,0.2639824 1.723409,0.7286377 0.223845,0.2605332 0.494315,0.8176479 0.603064,1.2423015 0.09552,0.3730453 0.113473,1.0623048 0.03152,1.2154296 -0.05145,0.096131 -0.425551,0.3998405 -1.932699,1.5688965 -0.29297,0.2272466 -0.761231,0.608987 -1.040247,0.8474935 -0.35753,0.3056234 -0.546914,0.4332601 -0.641304,0.4335653 -0.07862,2.544e-4 -0.256473,-0.089608 -0.430981,-0.2180746 C 17.795604,6.7722352 17.576023,6.5492162 17.471802,6.3975423 16.946149,5.6325208 16.630747,3.9791283 16.849618,3.1388265 17.170599,1.9065034 18.29816,1.074353 19.646346,1.074353 Z M 18.6955,3.4726562 c -0.146245,0.00201 -0.392783,0.071308 -0.93431,0.2444296 l -0.632003,0.2015381 v 0.1979207 c 0,0.3937899 0.319431,1.624707 0.42168,1.624707 0.02574,0 0.183766,-0.08297 0.350883,-0.1844848 0.444991,-0.270319 1.04313,-0.7593826 1.157035,-0.9461955 0.204711,-0.3357378 0.0907,-0.9428158 -0.207223,-1.1022583 -0.04338,-0.02322 -0.08959,-0.036556 -0.156062,-0.035657 z m 3.42253,1.2645223 v 5.168e-4 c 0.0027,-1.674e-4 0.0052,-2.979e-4 0.0072,0 0.06276,0.009 0.14628,0.1020176 0.216525,0.241329 0.114095,0.2262734 0.115864,0.2274929 0.494543,0.291455 0.816236,0.1378679 1.356669,0.4702063 2.146639,1.3198161 0.678201,0.7294007 1.261292,1.4622205 1.847433,2.3218221 0.783964,1.1503565 1.509985,2.4014815 1.509985,2.6013915 0,0.05793 -0.05789,0.150519 -0.128674,0.206189 l -0.128675,0.101286 0.112655,0.321427 c 0.162948,0.463441 0.164331,1.215829 0.0026,1.641761 -0.14575,0.383857 -0.420285,0.750614 -0.747241,0.998388 -0.362493,0.274708 -0.692409,0.406526 -4.10776,1.637626 -0.669637,0.241375 -1.236365,0.456731 -1.259355,0.479041 -0.04448,0.04312 0.167499,0.487398 0.733806,1.537374 0.191951,0.355893 0.614882,1.166312 0.939477,1.800923 0.324595,0.634612 0.63301,1.215144 0.68523,1.289844 0.261133,0.373598 0.355582,0.769042 0.242879,1.015959 -0.07678,0.168215 -0.240857,0.26212 -1.595252,0.915189 -1.550187,0.747482 -1.708573,0.795151 -1.930114,0.573609 -0.13213,-0.132141 -0.164772,-0.375123 -0.07958,-0.595829 0.02493,-0.06459 0.247437,-0.33105 0.494543,-0.592729 0.247105,-0.261676 0.504649,-0.552669 0.572059,-0.646989 l 0.122473,-0.172083 -0.104903,-0.113688 c -0.05761,-0.06253 -0.262953,-0.364877 -0.456303,-0.671793 -0.19335,-0.306916 -0.842686,-1.322525 -1.443323,-2.257227 -0.600633,-0.934701 -1.144138,-1.801246 -1.207678,-1.925981 -0.1598,-0.313687 -0.193214,-0.793305 -0.077,-1.097607 0.175452,-0.459418 0.283891,-0.541458 2.105298,-1.580265 1.092017,-0.622811 2.186223,-1.231892 2.47375,-1.377177 0.196635,-0.09936 0.294488,-0.258382 0.159164,-0.258382 -0.03066,0 -0.133683,-0.03724 -0.229443,-0.08268 -0.218906,-0.103876 -0.566658,-0.678348 -0.621668,-1.026294 -0.04465,-0.282443 -0.201632,-0.52383 -0.733805,-1.129646 l -0.383956,-0.4377 0.180867,-0.2981728 c 0.363027,-0.5976614 0.77857,-1.3462176 0.73794,-1.3296346 -0.02291,0.00935 -0.290916,0.3005653 -0.595313,0.646989 -1.385968,1.5773314 -1.747248,1.9153684 -2.165759,2.0262324 -0.279385,0.074 -3.893129,0.475194 -3.980119,0.441834 -0.03635,-0.01394 -0.06666,-0.08387 -0.06666,-0.154513 0,-0.11789 -0.01784,-0.128157 -0.221692,-0.128157 -0.199533,0 -0.229018,0.01574 -0.286288,0.153996 -0.07502,0.181101 -0.277048,0.353466 -0.414445,0.353466 -0.05342,0 -0.162345,-0.0333 -0.241845,-0.07441 -0.126481,-0.06534 -0.163162,-0.06581 -0.291972,-0.0015 -0.209837,0.104679 -0.479766,0.01802 -0.72192,-0.23151 -0.195767,-0.201731 -0.405359,-0.256148 -0.639237,-0.166398 -0.115347,0.04426 -0.480075,0.613383 -0.480075,0.749308 0,0.05921 0.06875,0.167879 0.152446,0.241329 0.197062,0.172932 0.192658,0.288435 -0.02894,0.736906 -0.217975,0.441153 -0.213928,0.576175 0.01964,0.642855 0.163211,0.0466 0.176556,0.03829 0.462504,-0.278536 0.516262,-0.572011 1.024582,-0.754046 2.108399,-0.75396 1.38512,1.09e-4 2.736089,0.324208 4.029211,0.966866 0.378857,0.188287 0.787369,0.416133 0.907955,0.505913 l 0.219625,0.163297 -0.625285,0.367936 c -0.998347,0.587742 -1.257555,0.921782 -1.299145,1.67535 -0.03589,0.650352 -0.09429,0.542051 2.245341,4.182174 0.421432,0.655685 0.817126,1.2753 0.879016,1.37666 l 0.112654,0.183968 -0.473873,0.506429 c -0.539609,0.577209 -0.643371,0.759353 -0.643371,1.12603 0,0.3536 0.147789,0.632233 0.404626,0.763261 0.260776,0.13304 0.463735,0.129131 0.892969,-0.01809 0.400241,-0.137276 2.785223,-1.311317 2.930054,-1.442289 0.315662,-0.285452 0.3706,-0.840297 0.129191,-1.308964 -0.536963,-1.042447 -1.002185,-1.929304 -1.612305,-3.075782 -0.389966,-0.732786 -0.722796,-1.369504 -0.740006,-1.414384 -0.02423,-0.06323 0.03494,-0.105448 0.263033,-0.188618 0.161902,-0.05905 1.093601,-0.395103 2.070157,-0.746725 2.245894,-0.808672 2.489959,-0.924493 3.038575,-1.441256 0.597243,-0.562571 0.528551,-0.54814 2.99775,-0.63717 2.573632,-0.09281 6.726287,-0.101719 6.813537,-0.01447 0.101189,0.10118 0.07614,0.435443 -0.03721,0.496093 -0.05596,0.02994 -0.448491,0.05219 -0.913122,0.05219 h -0.814938 l -0.532784,0.487308 c -0.293098,0.268201 -0.532784,0.508024 -0.532784,0.532784 0,0.02478 0.05586,0.04496 0.124024,0.04496 0.208926,0 0.282153,0.172517 0.282153,0.664559 0,0.366746 -0.01746,0.459733 -0.10542,0.571541 -0.09776,0.124225 -0.133234,0.133842 -0.506429,0.133842 H 34.37878 l 0.60048,0.799434 c 0.711362,0.947557 1.630392,2.268223 1.630392,2.342493 0,0.07857 -0.229362,0.120639 -0.444418,0.08165 -0.392807,-0.07122 -0.707039,-0.264172 -1.147733,-0.704867 -0.882028,-0.88203 -1.873835,-1.422463 -3.100069,-1.688269 -0.665882,-0.144338 -1.762015,-0.09473 -2.455148,0.111105 l -0.256315,0.07648 0.105937,0.289904 c 0.05852,0.159564 0.12198,0.306979 0.14056,0.327629 0.01859,0.02066 0.203716,0.0016 0.411861,-0.04237 0.48697,-0.102874 1.479604,-0.103129 1.953886,-0.001 1.826035,0.393155 3.238978,1.640276 3.801835,3.356384 0.581781,1.773798 0.179862,3.594443 -1.111043,5.030184 -0.478953,0.532692 -1.347526,1.084728 -2.093929,1.331185 -2.107604,0.695915 -4.534741,-0.132802 -5.783627,-1.975073 -0.394177,-0.581462 -0.827339,-1.710932 -0.827339,-2.156458 0,-0.139005 -0.100346,-0.158709 -1.043864,-0.207739 l -0.663009,-0.03462 -0.342615,0.310575 c -0.188171,0.170528 -0.493792,0.38445 -0.679545,0.47594 l -0.337447,0.166398 -2.791561,0.03411 c -1.6349,0.02009 -3.015807,0.01495 -3.33313,-0.01292 -1.192704,-0.104741 -2.14753,-0.55218 -2.719213,-1.27434 -0.237192,-0.299624 -0.934323,-1.466525 -1.165304,-1.950269 -0.167909,-0.351672 -0.190036,-0.443155 -0.189136,-0.77928 0.0013,-0.471319 0.131452,-0.785297 0.467155,-1.127063 l 0.235645,-0.239262 -0.11989,-0.255282 c -0.06572,-0.140304 -0.13874,-0.254765 -0.16278,-0.254765 -0.02402,0 -0.125661,0.03412 -0.225826,0.07597 -0.239636,0.100126 -0.390978,0.09592 -0.482658,-0.01292 -0.148133,-0.175836 -0.464622,-0.952639 -0.469222,-1.151867 -0.0043,-0.185248 0.01247,-0.210238 0.210323,-0.320394 l 0.214457,-0.119373 -0.233577,-0.466121 c -0.320822,-0.640404 -0.401436,-0.745174 -0.572059,-0.745174 -0.115818,0 -0.157287,0.03702 -0.233577,0.206189 -0.152841,0.338942 -0.311738,0.374631 -0.767395,0.173116 -0.159232,-0.07042 -0.306559,-0.121288 -0.327629,-0.113688 -0.04169,0.01513 -0.9074377,1.741688 -0.9074377,1.809708 v 5.17e-4 5.17e-4 c 0.00523,0.02642 0.1743335,0.173976 0.3803385,0.331763 1.1681732,0.894748 1.9817902,2.232607 2.2339722,3.673677 0.04091,0.233843 0.0739,0.559198 0.0739,0.722953 0,0.275628 -0.0082,0.297657 -0.114721,0.297657 -0.06328,0 -0.19913,-0.05686 -0.301791,-0.126608 -0.101046,-0.06867 -0.196797,-0.125324 -0.214457,-0.127124 h -5.17e-4 -5.16e-4 v 5.17e-4 h -5.17e-4 v 5.17e-4 l -5.17e-4,5.17e-4 c -0.01442,0.01685 -0.02584,0.20159 -0.02584,0.425297 0,2.19266 -1.6613721,4.258441 -3.8819338,4.826578 C 6.6630375,28.7138 5.7683949,28.754738 5.1821136,28.64486 3.9950563,28.422302 2.9912372,27.864383 2.1766113,26.974581 1.6167786,26.363083 1.2749725,25.748978 1.0154419,24.892021 0.88743163,24.469364 0.87702022,24.369747 0.87746582,23.547917 0.87800082,22.555583 0.93872495,22.232339 1.2702067,21.467424 1.6646523,20.557212 2.4524763,19.660277 3.3300293,19.12183 3.569032,18.975182 3.7503272,18.851995 3.7599772,18.831925 l 5.168e-4,-5.16e-4 v -5.17e-4 h -5.168e-4 v -5.17e-4 h -5.168e-4 v -5.17e-4 h -5.167e-4 -5.168e-4 c -0.3650988,-0.0023 -0.8335408,-0.177157 -0.8335408,-0.311092 0,-0.0666 0.4965227,-0.334401 0.9368937,-0.505395 1.1579985,-0.449649 2.694861,-0.475983 3.9212077,-0.06718 0.202874,0.06763 0.3805311,0.12299 0.3942911,0.12299 0.013761,0 0.2321557,-0.42481 0.4852417,-0.943611 0.326748,-0.669797 0.4516615,-0.976967 0.4309815,-1.059367 -0.035109,-0.139898 0.05206,-0.419185 0.1741496,-0.558622 0.10988,-0.125492 0.3643138,-0.628983 0.3379638,-0.667143 l -5.167e-4,-5.17e-4 -5.168e-4,-5.17e-4 h -5.168e-4 -5.167e-4 c -0.021453,-0.0057 -0.1387446,0.0521 -0.2682007,0.134359 -0.327397,0.208027 -0.6774163,0.304784 -1.1549683,0.318844 -0.338181,0.01 -0.4033246,-0.002 -0.4656046,-0.08682 -0.05903,-0.08037 -0.072347,-0.393803 -0.072347,-1.704289 0,-1.874744 -0.029407,-1.773535 0.5131469,-1.773535 0.630535,0 1.1959297,0.219063 1.6991211,0.659392 0.2930074,0.256399 0.2936404,0.256754 0.3560504,0.141076 0.0803,-0.148822 -0.0048,-0.288587 -0.3746539,-0.614433 -0.3813594,-0.335969 -0.7219197,-0.732213 -0.7219197,-0.839742 0,-0.122796 0.2188279,-0.418717 0.6206339,-0.838708 0.3821137,-0.3994212 0.3359917,-0.4037611 0.8753987,0.07493 0.865358,0.767951 1.101411,1.012471 1.063501,1.101741 -0.07393,0.174 -0.05173,0.289708 0.05839,0.305408 0.08477,0.0121 0.133829,-0.04033 0.238746,-0.254765 0.289434,-0.591589 0.770527,-0.952396 1.269689,-0.952396 0.222121,0 0.271553,-0.0214 0.429432,-0.183969 0.221622,-0.228198 0.528908,-0.3717334 0.798917,-0.3731034 0.113268,-6.133e-4 0.394159,0.046716 0.624252,0.1049034 0.468584,0.118498 0.564823,0.105614 0.564823,-0.075448 0,-0.074904 0.03566,-0.1362055 0.08888,-0.1524455 0.04883,-0.014898 0.819706,-0.1424756 1.712557,-0.2837036 l 1.623157,-0.2568319 0.17725,-0.1943034 c 0.141502,-0.1545814 0.812392,-1.0649184 1.921847,-2.6081095 0.02723,-0.037879 0.03917,-0.061265 0.03772,-0.071314 -7.8e-5,-3.052e-4 -4.11e-4,-0.00127 -5.17e-4,-0.00155 l -5.17e-4,-5.167e-4 -5.17e-4,-5.168e-4 v -5.168e-4 l -5.16e-4,-5.167e-4 -5.17e-4,-5.168e-4 h -5.17e-4 l -5.17e-4,-5.167e-4 v -5.168e-4 h -5.16e-4 c -0.03647,-0.011481 -0.296927,0.20065 -0.637171,0.5286499 -0.242522,0.2337915 -0.455793,0.425297 -0.473873,0.425297 h -5.17e-4 -5.16e-4 V 7.364404 h -5.17e-4 c -2.69e-4,-1.39e-4 -10e-4,-2.207e-4 -0.0015,-5.168e-4 0,0 -5.17e-4,-5.168e-4 -5.17e-4,-5.168e-4 0,0 -5.17e-4,-5.167e-4 -5.17e-4,-5.167e-4 -0.01579,-0.016207 -0.02842,-0.1104298 -0.02842,-0.2222087 0,-0.186362 -0.0257,-0.2447503 -0.152445,-0.3513997 -0.298455,-0.2511325 -0.282337,-0.269325 1.21698,-1.3983643 0.55864,-0.4206787 0.900562,-0.6485469 0.981852,-0.6537069 z m 11.407572,1.6639812 c 3.588411,1.864e-4 3.671088,0.00262 3.835425,0.1028361 0.217972,0.1328922 0.313676,0.3725217 0.313676,0.7834147 v 0.8149373 l -0.01033,2.5347292 c 0.01024,1.772406 -0.0026,2.647689 -0.04083,2.779675 -0.03701,0.127844 -0.110502,0.225875 -0.218074,0.291455 -0.156832,0.09554 -0.285082,0.09852 -3.934127,0.0987 l -3.771863,5.17e-4 -0.172082,-0.172599 -0.1726,-0.1726 V 10.743014 8.0237996 7.198527 c 0,-0.3061126 0.02238,-0.4518586 0.08268,-0.5379516 0.183533,-0.2620066 0.145065,-0.2596193 4.088122,-0.2594157 z m -0.0016,0.260966 c -0.0662,-0.00521 -0.104866,0.012781 -1.632975,0.7684285 -0.860799,0.4256627 -1.567564,0.7768441 -1.570964,0.7803141 -0.0034,0.00344 0.270297,0.1426535 0.608748,0.3100586 0.338452,0.1674026 0.619769,0.305221 0.624769,0.3059245 0.01409,0.00186 3.143317,-1.6023712 3.14296,-1.6112712 C 34.696411,7.2112965 34.447908,7.0861913 34.144169,6.937561 33.698602,6.7195261 33.578752,6.6664357 33.524052,6.6621257 Z M 35.297587,7.5096191 33.72404,8.314738 c -1.293313,0.6615153 -1.569074,0.8070147 -1.55081,0.8195882 0.01222,0.00841 0.32017,0.1620239 0.684713,0.3415812 l 0.663525,0.326595 0.218075,-0.1090372 C 33.859709,9.6332818 34.574311,9.2789389 35.327559,8.9064331 36.080824,8.5339289 36.70172,8.2246466 36.70732,8.2191366 36.713,8.2136766 36.398243,8.0518801 36.007621,7.8594686 Z M 36.983272,8.67854 c -0.01306,0.00492 -0.728291,0.3566694 -1.597318,0.7854818 l -1.590601,0.7849652 -0.0088,0.608231 c -0.0046,0.334459 -0.0089,1.085559 -0.0098,1.669149 -0.0015,0.841313 0.0016,1.061261 0.01499,1.060401 0.0093,-5.75e-4 0.730931,-0.3746 1.60352,-0.830957 l 1.586466,-0.829924 0.0036,-1.623673 c 0.0019,-0.8886031 9.98e-4,-1.6165743 -0.0021,-1.623674 z m -6.91379,0.0062 c -0.0226,-0.00853 -0.02354,0.071507 -0.02325,1.562179 2.9e-4,1.498396 0.0015,1.573514 0.02532,1.625224 0.01376,0.02983 0.03959,0.06762 0.05736,0.08371 0.01777,0.01609 0.727468,0.392597 1.577682,0.836642 0.850215,0.444046 1.547776,0.807308 1.549776,0.807702 0.0021,4.03e-4 0.0031,-0.751991 0.0031,-1.671732 V 10.256738 L 32.573722,9.9187744 C 32.196413,9.7328631 31.882174,9.5781929 31.875574,9.5756429 c -0.0072,-0.00266 -0.0124,0.1873658 -0.0124,0.4604371 0,0.445807 -0.0014,0.466999 -0.02894,0.523999 -0.06928,0.14311 -0.268662,0.185082 -0.387057,0.08113 -0.09945,-0.08733 -0.09899,-0.08119 -0.09973,-0.7420736 L 31.346924,9.3095093 30.720089,9.0015177 C 30.375349,8.8322632 30.082542,8.6896312 30.069482,8.6847412 Z m 4.343921,6.035808 c -0.410594,0 -0.746207,0.0065 -0.746207,0.01447 0,0.008 0.04315,0.137949 0.09612,0.288354 0.08679,0.246447 0.08927,0.296409 0.02584,0.505396 -0.03871,0.127538 -0.0705,0.237429 -0.0708,0.244429 v 5.17e-4 5.17e-4 l 5.17e-4,5.17e-4 5.17e-4,5.16e-4 h 5.17e-4 c 0.01075,0.0059 0.07273,0.01085 0.147277,0.01085 0.105081,0 0.237614,-0.07372 0.444418,-0.248047 0.161882,-0.136459 0.418521,-0.376278 0.571024,-0.532784 l 0.277503,-0.284737 z m -6.355167,3.978568 c -0.115558,0.0023 -0.508784,0.277795 -0.89607,0.634587 -0.428408,0.394671 -0.863845,0.970184 -1.14825,1.51722 -0.227318,0.437242 -0.571712,1.384805 -0.527616,1.449007 0,0 5.16e-4,5.17e-4 5.16e-4,5.17e-4 l 5.17e-4,5.16e-4 c 0.01605,0.01605 0.128332,0.02946 0.250114,0.02946 0.165249,0 0.229518,-0.02263 0.252698,-0.08888 0.422959,-1.209241 1.09991,-2.131264 2.006079,-2.733683 l 0.340548,-0.226859 -0.103353,-0.26355 c -0.05681,-0.145002 -0.123372,-0.284529 -0.148312,-0.310059 -0.0057,-0.0059 -0.0149,-0.0085 -0.02687,-0.0083 z M 6.0156535,20.030819 c -0.1161554,8.4e-4 -0.2318119,0.0066 -0.342098,0.01809 -1.4871456,0.15401 -2.68881,1.185329 -3.056661,2.623613 -0.1201506,0.469778 -0.1289019,1.219155 -0.019637,1.686719 0.2862127,1.224744 1.3708579,2.311817 2.6060425,2.611727 0.3872344,0.09402 1.2239456,0.09279 1.6278076,-0.0021 0.7036983,-0.165282 1.480072,-0.653277 1.931665,-1.214396 0.234539,-0.291422 0.5687931,-0.921591 0.6511231,-1.227315 0.251131,-0.932629 0.1147132,-1.990299 -0.3601848,-2.795695 -0.161214,-0.273411 -0.8523381,-1.024744 -0.9425781,-1.024744 -0.041308,0 -0.7760629,1.456124 -0.7741129,1.534274 4.957e-4,0.02069 0.077819,0.138146 0.1715657,0.260966 0.098813,0.129452 0.208636,0.363268 0.260966,0.556555 C 8.0107266,23.94951 7.6191245,24.792656 6.7799479,25.19071 6.4914616,25.327569 6.3965201,25.347243 6.0192708,25.346773 5.660552,25.34632 5.5394386,25.323776 5.2999349,25.212415 4.5164284,24.84811 4.0791375,24.018129 4.2441854,23.208403 4.3653825,22.613806 4.7429347,22.14073 5.2999349,21.884452 5.5247259,21.781024 5.6744546,21.750326 5.9825806,21.744926 l 0.3942911,-0.0067 0.3756877,-0.766878 0.3751709,-0.766362 -0.1612305,-0.05271 C 6.7193367,20.07175 6.3641216,20.028419 6.0156535,20.030819 Z m 24.8356935,0.297139 c -0.36272,-9.8e-4 -0.697531,0.02119 -0.744141,0.04909 -0.0763,0.04567 -0.05838,0.118085 0.177767,0.729154 l 0.262516,0.679029 0.329696,0.01447 c 0.474268,0.02077 0.860144,0.182882 1.211296,0.507979 1.077928,0.997971 0.680363,2.744237 -0.722954,3.175517 -0.781184,0.240082 -1.676165,-0.08854 -2.124418,-0.780314 -0.08625,-0.133108 -0.15893,-0.24378 -0.16123,-0.24598 -0.02179,-0.02158 -1.563648,-0.117695 -1.575098,-0.09818 v 5.17e-4 l -5.17e-4,5.16e-4 c -0.0066,0.01876 0.03811,0.182886 0.101286,0.369487 0.343291,1.013657 1.202852,1.851938 2.244824,2.190047 0.275691,0.08947 0.873812,0.174315 1.052133,0.149345 0.0558,-0.0078 0.23013,-0.02677 0.387573,-0.04237 1.256533,-0.124557 2.419695,-1.153815 2.813781,-2.489253 0.10972,-0.371808 0.123832,-1.197181 0.02687,-1.598352 -0.03708,-0.15346 -0.170119,-0.492339 -0.295072,-0.753443 -0.378973,-0.791896 -1.073118,-1.404274 -1.952336,-1.721342 -0.328875,-0.118595 -0.449074,-0.134409 -1.031978,-0.135909 z m -17.161743,0.280086 c -0.02557,0.0016 -0.0721,0.03813 -0.115756,0.09198 -0.10928,0.13477 -0.130178,0.471187 -0.04341,0.70125 0.112391,0.297994 0.995143,1.715485 1.19941,1.92598 0.212629,0.219093 0.672862,0.543055 0.713652,0.502295 h 5.17e-4 v -5.17e-4 l 5.16e-4,-5.16e-4 c 1.12e-4,-2.58e-4 4.38e-4,-7.38e-4 5.17e-4,-0.001 0.0029,-0.02062 -0.05507,-0.112982 -0.134875,-0.212907 -0.08504,-0.106481 -0.473646,-0.818039 -0.86403,-1.581299 -0.390382,-0.763256 -0.724521,-1.402585 -0.742591,-1.420585 -0.0027,-0.0028 -0.0067,-0.0045 -0.01137,-0.0047 -7.8e-4,-2.2e-5 -0.0018,-5e-5 -0.0026,0 z m 15.252815,0.284221 c -0.09774,0.0042 -0.678687,0.546348 -0.858862,0.808219 -0.175627,0.255267 -0.416894,0.72288 -0.392224,0.75861 v 5.17e-4 c 0.02365,0.02364 1.028352,0.108005 1.35909,0.114205 0.192851,0.0036 0.245821,-0.01756 0.341581,-0.13901 l 0.113172,-0.144177 -0.257349,-0.677478 c -0.141575,-0.372779 -0.273976,-0.695619 -0.294556,-0.717269 -3e-4,-3e-4 -6.92e-4,-6.76e-4 -0.001,-0.001 l -5.17e-4,-5.17e-4 c -0.0022,-0.0014 -0.0057,-0.0022 -0.0093,-0.0021 z"
       style="baseline-shift:baseline;display:inline;overflow:visible;opacity:1;vector-effect:none;fill:#ffffff;stroke-linecap:round;stroke-linejoin:round;stroke-miterlimit:0;paint-order:stroke fill markers;enable-background:accumulate;stop-color:#000000;stop-opacity:1"
       id="path3" /><path
       d="m 19.646346,1.074353 c -1.348186,0 -2.475747,0.8321504 -2.796728,2.0644735 -0.218871,0.8403018 0.09653,2.4936943 0.622184,3.2587158 0.104221,0.1516739 0.323802,0.3746929 0.487309,0.4950602 0.174508,0.1284663 0.352362,0.218329 0.430981,0.2180746 0.09439,-3.052e-4 0.283774,-0.1279419 0.641304,-0.4335653 0.279016,-0.2385065 0.747277,-0.6202469 1.040247,-0.8474935 1.507148,-1.169056 1.881251,-1.4727654 1.932699,-1.5688965 0.08195,-0.1531248 0.064,-0.8423843 -0.03152,-1.2154296 C 21.86407,2.6206386 21.5936,2.0635239 21.369755,1.8029907 20.970529,1.3383354 20.345755,1.074353 19.646346,1.074353 Z M 18.6955,3.4726562 c 0.06647,-8.99e-4 0.112684,0.012437 0.156062,0.035657 0.297919,0.1594425 0.411934,0.7665205 0.207223,1.1022583 -0.113905,0.1868129 -0.712044,0.6758765 -1.157035,0.9461955 -0.167117,0.1015151 -0.325146,0.1844848 -0.350883,0.1844848 -0.102249,0 -0.42168,-1.2309171 -0.42168,-1.624707 V 3.9186239 L 17.76119,3.7170858 C 18.302717,3.5439643 18.549255,3.4746693 18.6955,3.4726562 Z m 3.42253,1.2645223 c -0.08129,0.00516 -0.423212,0.2330282 -0.981852,0.6537069 -1.499317,1.1290393 -1.515435,1.1472318 -1.21698,1.3983643 0.126742,0.1066494 0.152445,0.1650377 0.152445,0.3513997 0,0.1117789 0.01263,0.2060021 0.02842,0.2222087 5.31e-4,4.538e-4 0.002,0.00127 0.0026,0.00155 h 5.17e-4 v 5.167e-4 h 5.16e-4 5.17e-4 c 0.01808,0 0.231351,-0.1915055 0.473873,-0.425297 0.340244,-0.3279999 0.600697,-0.5401312 0.637171,-0.5286499 h 5.16e-4 v 5.168e-4 l 5.17e-4,5.167e-4 h 5.17e-4 l 5.17e-4,5.168e-4 5.16e-4,5.167e-4 v 5.168e-4 l 5.17e-4,5.168e-4 5.17e-4,5.167e-4 c 1.06e-4,2.757e-4 4.39e-4,0.00125 5.17e-4,0.00155 0.0014,0.010048 -0.01049,0.033435 -0.03772,0.071314 -1.109455,1.5431911 -1.780345,2.4535281 -1.921847,2.6081095 l -0.17725,0.1943034 -1.623157,0.2568319 c -0.892851,0.141228 -1.663731,0.2688056 -1.712557,0.2837036 -0.05322,0.01624 -0.08888,0.077541 -0.08888,0.1524455 0,0.1810619 -0.09624,0.1939459 -0.564823,0.075448 -0.230093,-0.05819 -0.510984,-0.1055162 -0.624252,-0.1049029 -0.270009,0.00137 -0.577295,0.1449049 -0.798917,0.3731029 -0.157879,0.162564 -0.207311,0.183969 -0.429432,0.183969 -0.499162,0 -0.980255,0.360807 -1.269689,0.952396 -0.104917,0.214438 -0.153972,0.266865 -0.238746,0.254765 -0.110121,-0.0157 -0.132328,-0.131408 -0.05839,-0.305408 0.03791,-0.08927 -0.198143,-0.33379 -1.063501,-1.101741 -0.539407,-0.4786916 -0.493285,-0.4743517 -0.8753987,-0.07493 -0.401806,0.419991 -0.6206339,0.715912 -0.6206339,0.838708 0,0.107529 0.3405603,0.503773 0.7219197,0.839742 0.3698559,0.325846 0.4549539,0.465611 0.3746539,0.614433 -0.06241,0.115678 -0.06304,0.115323 -0.3560504,-0.141076 -0.5031914,-0.440329 -1.0685861,-0.659392 -1.6991211,-0.659392 -0.542554,0 -0.5131469,-0.101209 -0.5131469,1.773535 0,1.310486 0.013317,1.623921 0.072347,1.704289 0.06228,0.08478 0.1274236,0.09679 0.4656046,0.08682 0.477552,-0.01406 0.8275713,-0.110817 1.1549683,-0.318844 0.1294561,-0.08225 0.2467472,-0.140038 0.2682007,-0.134359 h 5.167e-4 5.168e-4 l 5.168e-4,5.17e-4 5.167e-4,5.17e-4 c 0.02635,0.03816 -0.2280838,0.541651 -0.3379638,0.667143 -0.12209,0.139437 -0.2092586,0.418724 -0.1741496,0.558622 0.02068,0.0824 -0.1042335,0.38957 -0.4309815,1.059367 -0.253086,0.518801 -0.4714807,0.943611 -0.4852417,0.943611 -0.01376,0 -0.1914171,-0.05536 -0.3942911,-0.12299 -1.2263467,-0.408803 -2.7632092,-0.382469 -3.9212077,0.06718 -0.440371,0.170994 -0.9368937,0.438796 -0.9368937,0.505395 0,0.133935 0.468442,0.308819 0.8335408,0.311092 h 5.168e-4 5.167e-4 v 5.17e-4 h 5.168e-4 v 5.17e-4 h 5.168e-4 v 5.17e-4 l -5.168e-4,5.16e-4 c -0.00965,0.02007 -0.1909452,0.143257 -0.4299479,0.289905 -0.877553,0.538447 -1.665377,1.435382 -2.0598226,2.345594 -0.33148175,0.764915 -0.39220588,1.088159 -0.39274088,2.080493 -4.456e-4,0.82183 0.009966,0.921447 0.13797608,1.344104 0.2595306,0.856957 0.6013367,1.471062 1.1611694,2.08256 0.8146259,0.889802 1.818445,1.447721 3.0055013,1.670182 0.5862813,0.109876 1.4809239,0.06894 2.1301026,-0.09715 2.2205617,-0.568137 3.8819338,-2.633918 3.8819338,-4.826578 0,-0.223707 0.01142,-0.408451 0.02584,-0.425297 l 5.17e-4,-5.17e-4 v -5.17e-4 h 5.17e-4 v -5.17e-4 h 5.16e-4 5.17e-4 c 0.01766,0.0018 0.113411,0.05846 0.214457,0.127124 0.102661,0.06975 0.238515,0.126608 0.301791,0.126608 0.10649,0 0.114721,-0.02203 0.114721,-0.297657 0,-0.163755 -0.03299,-0.48911 -0.0739,-0.722953 C 11.526944,21.086237 10.713327,19.748378 9.5451538,18.85363 9.3391488,18.695843 9.1700493,18.548284 9.1648153,18.521867 v -5.17e-4 -5.17e-4 c 0,-0.06802 0.8657457,-1.794583 0.9074377,-1.809708 0.02107,-0.0076 0.168397,0.04327 0.327629,0.113688 0.455657,0.201515 0.614554,0.165826 0.767395,-0.173116 0.07629,-0.169171 0.117759,-0.206189 0.233577,-0.206189 0.170623,0 0.251237,0.10477 0.572059,0.745174 l 0.233577,0.466121 -0.214457,0.119373 c -0.197854,0.110156 -0.214605,0.135146 -0.210323,0.320394 0.0046,0.199228 0.321089,0.976031 0.469222,1.151867 0.09168,0.108838 0.243022,0.113046 0.482658,0.01292 0.100165,-0.04184 0.201802,-0.07597 0.225826,-0.07597 0.02404,0 0.09706,0.114461 0.16278,0.254765 l 0.11989,0.255282 -0.235645,0.239262 c -0.335703,0.341766 -0.465844,0.655744 -0.467155,1.127063 -9e-4,0.336125 0.02123,0.427608 0.189136,0.77928 0.230981,0.483744 0.928112,1.650645 1.165304,1.950269 0.571683,0.72216 1.526509,1.169599 2.719213,1.27434 0.317323,0.02787 1.69823,0.03301 3.33313,0.01292 l 2.791561,-0.03411 0.337447,-0.166398 c 0.185753,-0.09149 0.491374,-0.305412 0.679545,-0.47594 l 0.342615,-0.310575 0.663009,0.03462 c 0.943518,0.04903 1.043864,0.06873 1.043864,0.207739 0,0.445526 0.433162,1.574996 0.827339,2.156458 1.248886,1.842271 3.676023,2.670988 5.783627,1.975073 0.746403,-0.246457 1.614976,-0.798493 2.093929,-1.331185 1.290905,-1.435741 1.692824,-3.256386 1.111043,-5.030184 -0.562857,-1.716108 -1.9758,-2.963229 -3.801835,-3.356384 -0.474282,-0.102096 -1.466916,-0.101841 -1.953886,10e-4 -0.208145,0.04402 -0.393267,0.06303 -0.411861,0.04237 -0.01858,-0.02065 -0.08204,-0.168065 -0.14056,-0.327629 l -0.105937,-0.289904 0.256315,-0.07648 c 0.693133,-0.205836 1.789266,-0.255443 2.455148,-0.111105 1.226234,0.265806 2.218041,0.806239 3.100069,1.688269 0.440694,0.440695 0.754926,0.633643 1.147733,0.704867 0.215056,0.03899 0.444418,-0.0031 0.444418,-0.08165 0,-0.07427 -0.91903,-1.394936 -1.630392,-2.342493 l -0.60048,-0.799434 h 0.401526 c 0.373195,0 0.408671,-0.0096 0.506429,-0.133842 0.08796,-0.111808 0.10542,-0.204795 0.10542,-0.571541 0,-0.492042 -0.07323,-0.664559 -0.282153,-0.664559 -0.06816,0 -0.124024,-0.02018 -0.124024,-0.04496 0,-0.02476 0.239686,-0.264583 0.532784,-0.532784 l 0.532784,-0.487308 h 0.814938 c 0.464631,0 0.857162,-0.02225 0.913122,-0.05219 0.113351,-0.06065 0.138396,-0.394913 0.03721,-0.496093 -0.08725,-0.08725 -4.239905,-0.07834 -6.813537,0.01447 -2.469199,0.08903 -2.400507,0.0746 -2.99775,0.63717 -0.548616,0.516763 -0.792681,0.632584 -3.038575,1.441256 -0.976556,0.351622 -1.908255,0.68768 -2.070157,0.746725 -0.228093,0.08317 -0.287259,0.125392 -0.263033,0.188618 0.01721,0.04488 0.35004,0.681598 0.740006,1.414384 0.61012,1.146478 1.075342,2.033335 1.612305,3.075782 0.241409,0.468667 0.186471,1.023512 -0.129191,1.308964 -0.144831,0.130972 -2.529813,1.305013 -2.930054,1.442289 -0.429234,0.147218 -0.632193,0.151127 -0.892969,0.01809 -0.256837,-0.131028 -0.404626,-0.409661 -0.404626,-0.763261 0,-0.366677 0.103762,-0.548821 0.643371,-1.12603 l 0.473873,-0.506429 -0.112654,-0.183968 c -0.06189,-0.10136 -0.457584,-0.720975 -0.879016,-1.37666 -2.339627,-3.640123 -2.28123,-3.531822 -2.245341,-4.182174 0.04159,-0.753568 0.300798,-1.087608 1.299145,-1.67535 l 0.625285,-0.367936 -0.219625,-0.163297 c -0.120586,-0.08978 -0.529098,-0.317626 -0.907955,-0.505913 -1.293122,-0.642658 -2.644091,-0.966757 -4.029211,-0.966866 -1.083817,-8.6e-5 -1.592137,0.181949 -2.108399,0.75396 -0.285948,0.316831 -0.299293,0.325141 -0.462504,0.278536 -0.233565,-0.06668 -0.237612,-0.201702 -0.01964,-0.642855 0.221597,-0.448471 0.226001,-0.563974 0.02894,-0.736906 -0.0837,-0.07345 -0.152446,-0.182118 -0.152446,-0.241329 0,-0.135925 0.364728,-0.705046 0.480075,-0.749308 0.233878,-0.08975 0.44347,-0.03533 0.639237,0.166398 0.242154,0.249526 0.512083,0.336189 0.72192,0.23151 0.12881,-0.06426 0.165491,-0.06379 0.291972,0.0015 0.0795,0.04111 0.188421,0.07441 0.241845,0.07441 0.137397,0 0.339428,-0.172365 0.414445,-0.353466 0.05727,-0.138253 0.08676,-0.153996 0.286288,-0.153996 0.203849,0 0.221692,0.01027 0.221692,0.128157 0,0.07064 0.03031,0.140569 0.06666,0.154513 0.08699,0.03336 3.700734,-0.367829 3.980119,-0.441834 0.418511,-0.110864 0.779791,-0.448901 2.165759,-2.0262324 0.304397,-0.3464237 0.572401,-0.6376349 0.595313,-0.646989 0.04063,-0.016583 -0.374913,0.7319732 -0.73794,1.3296346 l -0.180867,0.2981728 0.383956,0.4377 c 0.532173,0.605816 0.689158,0.847203 0.733805,1.129646 0.05501,0.347946 0.402762,0.922418 0.621668,1.026294 0.09576,0.04544 0.198785,0.08268 0.229443,0.08268 0.135324,0 0.03747,0.159027 -0.159164,0.258382 -0.287527,0.145285 -1.381733,0.754366 -2.47375,1.377177 -1.821407,1.038807 -1.929846,1.120847 -2.105298,1.580265 -0.116216,0.304302 -0.0828,0.78392 0.077,1.097607 0.06354,0.124735 0.607045,0.99128 1.207678,1.925981 0.600637,0.934702 1.249973,1.950311 1.443323,2.257227 0.19335,0.306916 0.398692,0.60926 0.456303,0.671793 l 0.104903,0.113688 -0.122473,0.172083 c -0.06741,0.09432 -0.324954,0.385313 -0.572059,0.646989 -0.247106,0.261679 -0.46961,0.528134 -0.494543,0.592729 -0.08519,0.220706 -0.05255,0.463688 0.07958,0.595829 0.221541,0.221542 0.379927,0.173873 1.930114,-0.573609 1.354395,-0.653069 1.518475,-0.746974 1.595252,-0.915189 0.112703,-0.246917 0.01825,-0.642361 -0.242879,-1.015959 -0.05222,-0.0747 -0.360635,-0.655232 -0.68523,-1.289844 -0.324595,-0.634611 -0.747526,-1.44503 -0.939477,-1.800923 -0.566307,-1.049976 -0.778289,-1.49425 -0.733806,-1.537374 0.02299,-0.02231 0.589718,-0.237666 1.259355,-0.479041 3.415351,-1.2311 3.745267,-1.362918 4.10776,-1.637626 0.326956,-0.247774 0.601491,-0.614531 0.747241,-0.998388 0.161747,-0.425932 0.160364,-1.17832 -0.0026,-1.641761 l -0.112655,-0.321427 0.128675,-0.101286 c 0.07078,-0.05567 0.128674,-0.148261 0.128674,-0.206189 0,-0.19991 -0.726021,-1.451035 -1.509985,-2.6013915 C 26.244263,8.0525159 25.661172,7.3196961 24.982971,6.5902954 24.193001,5.7406856 23.652568,5.4083472 22.836332,5.2704793 22.457653,5.2065172 22.455884,5.2052977 22.341789,4.9790243 22.271544,4.8397129 22.188025,4.7466912 22.125264,4.7376953 c -0.002,-2.979e-4 -0.0045,-1.674e-4 -0.0072,0 z m 11.407572,1.6639812 c -3.943057,-2.036e-4 -3.904589,-0.00259 -4.088122,0.2594157 -0.0603,0.086093 -0.08268,0.231839 -0.08268,0.5379516 v 0.8252726 2.7192144 2.719213 l 0.1726,0.1726 0.172082,0.172599 3.771863,-5.17e-4 c 3.649045,-1.82e-4 3.777295,-0.0032 3.934127,-0.0987 0.107572,-0.06558 0.181066,-0.163611 0.218074,-0.291455 0.03818,-0.131986 0.05107,-1.007269 0.04083,-2.779675 l 0.01033,-2.5347292 V 7.2874105 c 0,-0.410893 -0.0957,-0.6505225 -0.313676,-0.7834147 C 37.19669,6.4037841 37.114013,6.4013461 33.525602,6.4011597 Z m -0.0016,0.260966 c 0.0547,0.00431 0.17455,0.0574 0.620117,0.2754353 0.303739,0.1486303 0.552242,0.2737355 0.552421,0.2780192 3.57e-4,0.0089 -3.128872,1.6131354 -3.14296,1.6112712 -0.005,-7.035e-4 -0.286317,-0.1385219 -0.624769,-0.3059245 -0.338451,-0.1674051 -0.612192,-0.3066182 -0.608748,-0.3100586 0.0034,-0.00347 0.710165,-0.3546514 1.570964,-0.7803141 1.528109,-0.7556474 1.566777,-0.7736354 1.632975,-0.7684285 z m 1.773535,0.8474934 0.710034,0.3498495 c 0.390622,0.1924115 0.705379,0.354208 0.699699,0.359668 -0.0056,0.00551 -0.626496,0.3147923 -1.379761,0.6872965 -0.753248,0.3725058 -1.46785,0.7268487 -1.588016,0.7870321 L 33.521468,9.8025024 32.857943,9.4759074 C 32.4934,9.2963501 32.185448,9.1427338 32.17323,9.1343262 32.154966,9.1217527 32.430727,8.9762533 33.72404,8.314738 Z M 36.983272,8.67854 c 0.0031,0.0071 0.004,0.7350709 0.0021,1.623674 l -0.0036,1.623673 -1.586466,0.829924 c -0.872589,0.456357 -1.594199,0.830382 -1.60352,0.830957 -0.01343,8.6e-4 -0.01648,-0.219088 -0.01499,-1.060401 9.31e-4,-0.58359 0.0052,-1.33469 0.0098,-1.669149 l 0.0088,-0.608231 1.590601,-0.7849652 C 36.254981,9.0352094 36.970215,8.6834636 36.983272,8.67854 Z m -6.91379,0.0062 c 0.01306,0.00489 0.305867,0.147522 0.650607,0.3167765 l 0.626835,0.3079916 5.17e-4,0.5896281 c 7.43e-4,0.6608858 2.85e-4,0.6547458 0.09973,0.7420738 0.118395,0.10395 0.317777,0.06198 0.387057,-0.08113 0.02758,-0.057 0.02894,-0.07819 0.02894,-0.523999 0,-0.2730715 0.0052,-0.4630934 0.0124,-0.4604373 0.0066,0.00255 0.320839,0.1572202 0.698148,0.3431315 l 0.685747,0.3379638 v 1.671733 c 0,0.919741 -10e-4,1.672135 -0.0031,1.671732 -0.002,-3.94e-4 -0.699561,-0.363656 -1.549776,-0.807702 -0.850214,-0.444045 -1.559916,-0.820557 -1.577682,-0.836642 -0.01777,-0.01609 -0.0436,-0.05389 -0.05736,-0.08371 -0.02387,-0.05171 -0.02503,-0.126828 -0.02532,-1.625224 -2.84e-4,-1.4906724 6.52e-4,-1.5707082 0.02325,-1.562179 z m 4.343921,6.035808 h 0.746725 l -0.277503,0.284737 c -0.152503,0.156506 -0.409142,0.396325 -0.571024,0.532784 -0.206804,0.174324 -0.339337,0.248047 -0.444418,0.248047 -0.07455,0 -0.136522,-0.0049 -0.147277,-0.01085 h -5.17e-4 l -5.17e-4,-5.16e-4 -5.17e-4,-5.17e-4 v -5.17e-4 -5.17e-4 c 2.98e-4,-0.007 0.03209,-0.116891 0.0708,-0.244429 0.06343,-0.208987 0.06095,-0.258949 -0.02584,-0.505396 -0.05297,-0.150405 -0.09612,-0.280311 -0.09612,-0.288354 0,-0.008 0.335613,-0.01447 0.746207,-0.01447 z m -6.355167,3.978568 c 0.01197,-2.34e-4 0.02116,0.0024 0.02687,0.0083 0.02494,0.02553 0.0915,0.165057 0.148312,0.310059 l 0.103353,0.26355 -0.340548,0.226859 c -0.906169,0.602419 -1.58312,1.524442 -2.006079,2.733683 -0.02318,0.06625 -0.08745,0.08888 -0.252698,0.08888 -0.121782,0 -0.234064,-0.01341 -0.250114,-0.02946 0,0 -5.17e-4,-5.16e-4 -5.17e-4,-5.16e-4 -0.04734,-0.05748 0.298891,-1.010568 0.5271,-1.449524 0.284405,-0.547036 0.719842,-1.122549 1.14825,-1.51722 0.387286,-0.356792 0.780512,-0.632331 0.89607,-0.634587 z M 6.0156535,20.030819 c 0.3484681,-0.0024 0.7036832,0.04093 0.9508463,0.121439 l 0.1612305,0.05271 -0.3751709,0.766362 -0.3756877,0.766878 -0.3942911,0.0067 c -0.308126,0.0054 -0.4578547,0.0361 -0.6826457,0.139526 -0.5570002,0.256278 -0.9345524,0.729354 -1.0557495,1.323951 -0.1650479,0.809726 0.272243,1.639707 1.0557495,2.004012 0.2395037,0.111361 0.3606171,0.133905 0.7193359,0.134358 0.3772493,4.7e-4 0.4721908,-0.0192 0.7606771,-0.156063 0.8391766,-0.398054 1.2307787,-1.2412 0.9896037,-2.132169 -0.05233,-0.193287 -0.162153,-0.427103 -0.260966,-0.556555 -0.093747,-0.12282 -0.17107,-0.24028 -0.1715657,-0.260966 -0.00195,-0.07815 0.7328049,-1.534274 0.7741129,-1.534274 0.09024,0 0.7813641,0.751333 0.9425781,1.024744 0.474898,0.805396 0.6113158,1.863066 0.3601848,2.795695 -0.08233,0.305724 -0.4165841,0.935893 -0.6511231,1.227315 -0.451593,0.561119 -1.2279667,1.049114 -1.931665,1.214396 -0.403862,0.09486 -1.2405732,0.09609 -1.6278076,0.0021 -1.2351846,-0.29991 -2.3198298,-1.386983 -2.6060425,-2.611727 -0.1092649,-0.467564 -0.1005136,-1.216941 0.019637,-1.686719 0.367851,-1.438284 1.5695154,-2.469603 3.056661,-2.623613 0.1102861,-0.01144 0.2259426,-0.01725 0.342098,-0.01809 z m 24.8356935,0.297139 c 0.582904,0.0015 0.703103,0.01731 1.031978,0.135909 0.879218,0.317068 1.573363,0.929446 1.952336,1.721342 0.124953,0.261104 0.257989,0.599983 0.295072,0.753443 0.09696,0.401171 0.08285,1.226544 -0.02687,1.598352 -0.394086,1.335438 -1.557248,2.364696 -2.813781,2.489253 -0.157443,0.01561 -0.331771,0.03461 -0.387573,0.04237 -0.178321,0.02497 -0.776442,-0.05988 -1.052133,-0.149345 -1.041972,-0.338109 -1.901533,-1.17639 -2.244824,-2.190047 -0.06318,-0.186601 -0.10789,-0.350731 -0.101286,-0.369487 l 5.17e-4,-5.16e-4 v -5.17e-4 c 0.01145,-0.01951 1.553303,0.0766 1.575098,0.09818 0.0023,0.0022 0.07498,0.112872 0.16123,0.24598 0.448253,0.691774 1.343234,1.020396 2.124418,0.780314 1.403317,-0.43128 1.800882,-2.177546 0.722954,-3.175517 -0.351152,-0.325097 -0.737028,-0.487207 -1.211296,-0.507979 l -0.329696,-0.01447 -0.262516,-0.679029 c -0.236146,-0.611069 -0.254062,-0.683483 -0.177767,-0.729154 0.04661,-0.0279 0.381421,-0.05007 0.744141,-0.04909 z m -17.161743,0.280086 c 8.25e-4,-5e-5 0.0018,-2.2e-5 0.0026,0 0.0047,1.35e-4 0.0087,0.0019 0.01137,0.0047 0.01807,0.018 0.352209,0.657329 0.742591,1.420585 0.390384,0.76326 0.778992,1.474818 0.86403,1.581299 0.08238,0.103148 0.141476,0.197449 0.134358,0.213941 l -5.16e-4,5.16e-4 v 5.17e-4 h -5.17e-4 c -0.04079,0.04076 -0.501023,-0.283202 -0.713652,-0.502295 -0.204267,-0.210495 -1.087019,-1.627986 -1.19941,-1.92598 -0.08677,-0.230063 -0.06587,-0.56648 0.04341,-0.70125 0.04365,-0.05385 0.09018,-0.09042 0.115756,-0.09198 z m 15.252815,0.284221 c 0.0036,-1.54e-4 0.0071,6.37e-4 0.0093,0.0021 0,0 5.17e-4,5.17e-4 5.17e-4,5.17e-4 3.41e-4,3.57e-4 7.33e-4,7.33e-4 0.001,0.001 0.02058,0.02165 0.152981,0.34449 0.294556,0.717269 l 0.257349,0.677478 -0.113172,0.144177 c -0.09576,0.121453 -0.14873,0.142595 -0.341581,0.13901 -0.330738,-0.0062 -1.335442,-0.09057 -1.35909,-0.114205 v -5.17e-4 c -0.02467,-0.03573 0.216597,-0.503343 0.392224,-0.75861 0.180175,-0.261871 0.761118,-0.804018 0.858862,-0.808219 z"
       style="baseline-shift:baseline;display:inline;overflow:visible;opacity:1;vector-effect:none;stroke-linecap:round;stroke-linejoin:round;stroke-miterlimit:0;paint-order:stroke fill markers;enable-background:accumulate;stop-color:#000000;stop-opacity:1"
       id="path1" /></g><path
     id="path58"
     style="baseline-shift:baseline;display:inline;overflow:visible;opacity:1;stroke:#ffffff;stroke-width:1.30837;stroke-linecap:round;stroke-linejoin:round;stroke-miterlimit:2.2;stroke-dasharray:none;stroke-opacity:1;paint-order:markers stroke fill;enable-background:accumulate;stop-color:#000000;stop-opacity:1"
     d="m 85.924378,1.2373833 c -4.09723,1.38e-5 -7.418911,3.3216939 -7.418922,7.4189235 1.1e-5,4.0972272 3.321692,7.4189122 7.418922,7.4189222 1.40138,-8e-6 2.774633,-0.397167 3.959755,-1.145063 l -1.026657,-1.205014 c -0.891269,0.515469 -1.903503,0.786861 -2.933098,0.786858 -3.234676,7e-6 -5.857209,-2.621028 -5.857203,-5.8557032 -6e-6,-3.2346758 2.622527,-5.8572092 5.857203,-5.8572023 1.698664,-2e-6 3.31341,0.7381473 4.425875,2.0218437 l 1.217004,-0.981696 C 90.157754,2.1884113 88.095086,1.2373787 85.924378,1.2373833 Z m 0.003,0.1483794 c 2.096557,-6.8e-6 4.081047,0.910183 5.466023,2.4789699 L 90.357782,4.701048 c -0.01681,-0.018735 -0.03389,-0.038447 -0.05097,-0.05695 L 91.249566,3.8362585 C 89.818947,2.3089254 87.8072,1.4589266 85.711553,1.5206547 c -3.93712,0.1159694 -7.052247,3.3239788 -7.087696,7.2285789 -1.53e-4,-0.019956 0,-0.039957 0,-0.059952 1.5e-5,-4.034773 3.268744,-7.3035038 7.303518,-7.3035183 z m 5.857164,2.7202723 -1.215504,0.981696 c 0.786278,1.023354 1.212487,2.278039 1.212505,3.5685768 2.4e-5,1.4202272 -0.516277,2.7912122 -1.452312,3.8593372 L 85.868844,7.3658649 82.746903,11.150265 c 0,0 -0.771649,-1.087544 -0.813833,-2.4969548 0.137744,-1.8898845 1.423785,-3.102459 1.423785,-3.102459 L 82.309339,4.3308497 c 0,0 -1.927557,1.9609103 -1.825504,4.3419438 -0.02061,3.2933765 2.404032,4.6866615 2.404032,4.6866615 l 3.018525,-3.5565866 3.256833,3.7499256 1.010172,1.184032 c 1.986481,-1.387811 3.169903,-3.657281 3.169903,-6.0805192 0,-1.6475364 -0.548363,-3.2489085 -1.558722,-4.5502729 z m -0.02552,0.2038336 C 92.689284,5.5492809 93.206699,7.0479665 93.226307,8.597856 93.179317,7.0564955 92.638511,5.5762716 91.697522,4.3593277 Z M 82.30926,4.5391804 83.210021,5.588321 c -0.02117,0.020768 0.0015,-0.01 -0.07044,0.070448 L 82.262874,4.6965534 c -0.204643,0.2333379 -1.575963,1.8610522 -1.665132,3.7769058 0.02177,-2.0477444 1.489653,-3.6957628 1.711597,-3.9342767 z M 85.873352,7.5771925 88.41827,10.516284 85.840382,7.7120815 82.823353,11.5954 82.73193,11.475499 c 0,0 -0.823698,-1.085049 -0.909754,-2.5329242 l -0.0015,-0.00601 v -0.00601 c 0.0015,-0.032861 0.0042,-0.064995 0.006,-0.097421 0.08823,1.3792192 0.82882,2.4160202 0.82882,2.4160202 l 0.08692,0.122901 z m 7.354478,1.0536368 c 9.41e-4,0.019113 0.003,0.039251 0.003,0.058452 0,0.022163 -0.0013,0.043822 -0.0015,0.065944 -3.15e-4,-0.041187 -5.68e-4,-0.08312 -0.0015,-0.124396 z M 79.954645,8.7507305 c 0.03341,3.2684975 2.696239,5.9096655 5.972607,5.9096565 1.016556,7e-6 2.009709,-0.270769 2.897125,-0.764371 l 0.07642,0.08843 c -0.853439,0.491974 -1.811663,0.77579 -2.79821,0.804841 -3.295701,0.09708 -6.047906,-2.497053 -6.144964,-5.7927538 -0.0024,-0.082037 -0.0037,-0.164464 -0.003,-0.2457977 z m 11.943716,0.00299 c 0.01566,1.4090585 -0.466754,2.7798395 -1.365384,3.8683295 l -0.08545,0.103428 -0.05996,-0.06595 0.03145,-0.03448 c 0.940211,-1.072689 1.463821,-2.446522 1.479458,-3.8713138 z m -4.472197,2.6543335 1.882458,2.041327 h 0.0015 l 0.978658,1.082113 c -0.03364,0.02513 -0.0678,0.04885 -0.101932,0.07346 l -1.014667,-1.190022 -0.0015,0.0015 z" /></svg>
