<?xml version="1.0" encoding="UTF-8" standalone="no"?>
<!-- Created with Inkscape (http://www.inkscape.org/) -->

<svg
   width="94.57mm"
   height="30mm"
   viewBox="0 0 94.57 30"
   version="1.1"
   id="svg1"
   xml:space="preserve"
   inkscape:export-filename="SHEILA REFEIÇÕES DELIVERY vetor OFC.png"
   inkscape:export-xdpi="96"
   inkscape:export-ydpi="96"
   inkscape:version="1.4.3 (0d15f75, 2025-12-25)"
   sodipodi:docname="img2.svg"
   xmlns:inkscape="http://www.inkscape.org/namespaces/inkscape"
   xmlns:sodipodi="http://sodipodi.sourceforge.net/DTD/sodipodi-0.dtd"
   xmlns="http://www.w3.org/2000/svg"
   xmlns:svg="http://www.w3.org/2000/svg"><sodipodi:namedview
     id="namedview1"
     pagecolor="#ff5858"
     bordercolor="#000000"
     borderopacity="0.25"
     inkscape:showpageshadow="2"
     inkscape:pageopacity="0.0"
     inkscape:pagecheckerboard="0"
     inkscape:deskcolor="#d1d1d1"
     inkscape:document-units="mm"
     inkscape:zoom="0.35388021"
     inkscape:cx="1058.2677"
     inkscape:cy="755.9055"
     inkscape:window-width="1366"
     inkscape:window-height="745"
     inkscape:window-x="-8"
     inkscape:window-y="-8"
     inkscape:window-maximized="1"
     inkscape:current-layer="svg1"
     showguides="false"><inkscape:page
       x="0"
       y="0"
       width="94.57"
       height="30"
       id="page2"
       margin="0"
       bleed="0" /></sodipodi:namedview><defs
     id="defs1" /><path
     id="path60"
     style="baseline-shift:baseline;display:inline;overflow:visible;opacity:1;vector-effect:none;fill:#ffffff;stroke-linecap:round;stroke-linejoin:round;stroke-miterlimit:0;paint-order:stroke fill markers;enable-background:accumulate;stop-color:#000000;stop-opacity:1"
     d="m 19.64708,0.28732096 c -1.672078,0 -3.145908,1.07029654 -3.558439,2.65410154 -0.164437,0.6313172 -0.112841,1.3111334 0.01912,2.001945 0.131963,0.6908115 0.344174,1.3601582 0.715202,1.9001424 0.192436,0.2800535 0.403616,0.4862293 0.669726,0.6821289 0.119398,0.087896 0.238107,0.1629771 0.363286,0.2263428 0.125179,0.063366 0.195402,0.1473494 0.536918,0.1462443 0.400597,-0.0013 0.510723,-0.1370946 0.660425,-0.2382283 0.07921,-0.053513 0.174507,-0.1350541 0.259932,-0.2030884 0.0056,0.034565 0.0089,0.064239 0.02687,0.1214396 0.005,0.015935 0.02196,0.048129 0.02945,0.068213 -0.0381,0.051932 -0.10901,0.1512312 -0.144177,0.1989543 -0.293211,0.3978944 -0.52529,0.6890235 -0.540019,0.7110677 L 17.33662,8.7694907 c -0.448041,0.070869 -0.864624,0.1377863 -1.177706,0.1896525 -0.156542,0.025933 -0.287887,0.047109 -0.38499,0.064079 -0.04855,0.00849 -0.08932,0.017415 -0.12299,0.023771 -0.03366,0.00636 -3.32e-4,-0.00941 -0.132808,0.031006 -0.127978,0.039052 -0.08419,0.1670607 -0.170016,0.2382283 -0.01154,-0.0013 -0.01599,-0.00196 -0.01757,-0.00258 h -5.16e-4 V 9.3131307 9.312614 9.3120972 h 5.16e-4 v -5.168e-4 -5.167e-4 -5.168e-4 l -5.16e-4,-5.168e-4 -5.17e-4,-5.167e-4 c -0.0029,-0.00253 -0.01297,-0.00664 -0.04392,-0.014469 -0.279585,-0.070708 -0.480997,-0.1310317 -0.820103,-0.1291956 -0.51396,0.00261 -0.93046,0.2423447 -1.279508,0.5761922 -0.531399,0.017175 -0.965419,0.283691 -1.333769,0.648539 C 11.666573,10.20975 11.477467,10.027753 11.133388,9.722404 11.002253,9.6060308 10.904664,9.5148395 10.785605,9.4216471 10.666545,9.3284551 10.502813,9.1876397 10.180474,9.1601644 9.8581348,9.1326894 9.5731034,9.305937 9.4477014,9.4123454 c -0.125402,0.1064083 -0.191526,0.1854038 -0.281119,0.2790527 -0.215325,0.2250698 -0.388271,0.4217649 -0.52555,0.6071979 -0.126926,0.171447 -0.267407,0.290169 -0.290938,0.717269 -0.07084,-0.0047 -0.123884,-0.07441 -0.195337,-0.07441 -0.111199,0 -0.226695,-0.03856 -0.513664,0.03876 -0.28697,0.07732 -0.6273699,0.457763 -0.7012489,0.713135 -0.1477579,0.510744 -0.083716,0.875409 -0.083716,1.808675 0,0.657896 0.00152,1.064652 0.013436,1.345655 0.011914,0.281004 -0.090814,0.413544 0.2108398,0.824239 0.097486,0.132705 0.41563,0.348225 0.6196,0.386539 0.203971,0.03831 0.323676,0.02702 0.503846,0.0217 0.03089,-9.09e-4 0.053065,-0.02214 0.083715,-0.02377 -0.0045,0.01185 -0.00215,0.0098 -0.00775,0.02377 -0.05602,0.137725 -0.164097,0.373444 -0.324011,0.70125 -0.0725,0.148622 -0.127477,0.254726 -0.189653,0.378788 -1.3641935,-0.390998 -2.9028307,-0.38072 -4.1894081,0.118856 -0.2564311,0.09957 -0.510009,0.219733 -0.7224365,0.334346 -0.1062137,0.05731 -0.2000541,0.109631 -0.2950724,0.1757 -0.047509,0.03303 -0.093115,0.06554 -0.160197,0.130741 -0.067083,0.0652 -0.2619995,0.102093 -0.2619995,0.599447 1e-7,0.266839 0.1273642,0.290954 0.2227254,0.404627 -0.76463,0.610222 -1.43529426,1.360403 -1.81229241,2.230354 -0.3496711,0.806888 -0.4567842,1.368112 -0.4573365,2.392619 -4.492e-4,0.828393 0.0375066,1.129728 0.1720826,1.574064 0.2849313,0.940829 0.70518545,1.697711 1.33428541,2.384868 0.9214484,1.006483 2.0988809,1.660482 3.4411337,1.912028 0.7634521,0.14308 1.6813505,0.09392 2.4685833,-0.107487 2.3704715,-0.606492 4.1005637,-2.657764 4.3692427,-4.999695 0.06137,-0.0028 0.09768,0.0085 0.220659,-0.04134 0.199157,-0.08065 0.412705,-0.322493 0.474906,-0.484209 0.124404,-0.323431 0.07028,-0.389691 0.07028,-0.535367 0,-0.01167 -0.004,-0.0249 -0.0041,-0.03669 0.233778,0.395658 0.44144,0.816877 0.638721,1.066085 0.738162,0.932459 1.916641,1.451817 3.2675,1.570447 0.253393,0.02225 0.643104,0.02507 1.238168,0.02739 0.595065,0.0023 1.353,-0.0018 2.174027,-0.01188 l 2.791044,-0.03307 a 0.7870787,0.7870787 0 0 0 0.337964,-0.08217 l 0.337964,-0.165881 c 0.315568,-0.155428 0.60158,-0.364415 0.860929,-0.599447 l 0.09974,-0.08992 0.335897,0.01757 c 0.272746,0.01417 0.316322,0.02198 0.445451,0.03307 0.0584,0.225016 0.07692,0.454576 0.170015,0.697115 0.174696,0.455142 0.391781,0.913624 0.646472,1.289327 1.45311,2.143527 4.226685,3.091646 6.681763,2.280998 0.906236,-0.299233 1.817091,-0.869151 2.431376,-1.55236 1.457709,-1.621259 1.938261,-3.773811 1.273307,-5.801196 -0.10637,-0.324314 -0.384768,-0.529742 -0.542602,-0.823722 0.07093,0.02054 0.128231,0.105657 0.201021,0.118855 0.204811,0.03713 0.383281,0.03898 0.583944,0.0021 0.100332,-0.01848 0.2066,-0.04079 0.355534,-0.127124 0.148934,-0.08633 0.431498,-0.330253 0.431498,-0.732255 0,-0.0012 -0.01496,-0.154249 -0.02532,-0.195337 -0.01036,-0.04109 -0.01921,-0.06805 -0.02739,-0.08992 -0.01637,-0.04375 -0.02792,-0.07003 -0.03876,-0.09198 -0.02168,-0.0439 -0.04004,-0.07334 -0.05891,-0.10542 -0.03775,-0.06416 -0.08045,-0.130613 -0.132808,-0.210839 -0.104716,-0.160453 -0.243978,-0.366406 -0.406177,-0.599447 -0.291793,-0.419235 -0.653848,-0.919987 -0.988053,-1.369425 0.05586,-0.04931 0.162128,-0.09688 0.185518,-0.126608 0.09431,-0.119882 0.207882,-0.348931 0.241846,-0.533301 0.03396,-0.184369 0.03152,-0.3298 0.03152,-0.525549 0,-0.236309 -0.02995,-0.446513 -0.103353,-0.683679 l 0.283187,-0.257349 h 0.507462 c 0.245002,0 0.471759,-0.0054 0.656291,-0.01602 0.09227,-0.0053 0.173004,-0.01155 0.252181,-0.02119 0.07918,-0.0096 0.06147,0.05911 0.376721,-0.109554 0.282522,-0.151167 0.369122,-0.347726 0.425814,-0.488342 0.05669,-0.140616 0.07681,-0.258707 0.08578,-0.378788 0.01754,-0.234872 0.06864,-0.493562 -0.283187,-0.859379 l 5.17e-4,-5.17e-4 -5.17e-4,-5.17e-4 v -5.17e-4 -5.16e-4 c 0.06953,-0.2414 0.04755,-0.274145 0.05478,-0.418063 0.0073,-0.14458 0.01202,-0.326505 0.0155,-0.560172 0.0069,-0.465528 0.0071,-1.130087 0.0021,-2.013831 v -0.0078 l 0.0098,-2.5274946 a 0.7870787,0.7870787 0 0 0 0,-0.00413 V 7.2868937 c 0,-0.2667438 -0.02534,-0.5261166 -0.130741,-0.7890991 C 38.225293,6.234812 38.014624,5.9813408 37.770005,5.8322021 37.705045,5.7925911 37.487424,5.6966494 37.325071,5.6699382 c -0.162352,-0.026711 -0.318539,-0.033937 -0.576193,-0.040824 -0.515307,-0.013773 -1.428696,-0.01386 -3.223059,-0.013953 -1.971363,-1.018e-4 -2.932991,-0.00467 -3.503662,0.031523 -0.285336,0.018096 -0.486075,0.032386 -0.738456,0.1426269 -0.252381,0.1102411 -0.451093,0.3642237 -0.489893,0.4196126 -0.247442,0.3532846 -0.224792,0.6456665 -0.224792,0.9901205 v 0.8242391 2.1683427 c -0.0038,-0.0066 -0.0059,-0.01089 -0.0098,-0.01757 C 28.267682,9.6720652 27.884282,9.0601601 27.481227,8.4687337 26.875618,7.5805817 26.263525,6.8122307 25.55938,6.0549276 24.717137,5.1490983 23.931936,4.6572346 22.967291,4.4942993 c -0.0044,-7.5e-4 -0.0071,-0.00109 -0.0083,-0.00103 h -5.16e-4 v 5.168e-4 l 5.16e-4,5.167e-4 5.17e-4,5.168e-4 c 9.48e-4,5.447e-4 0.0022,0.00159 0.0031,0.00207 -9.65e-4,-1.274e-4 -0.0028,-5.172e-4 -0.0052,-0.00103 -0.04279,-0.070266 -0.07803,-0.14095 -0.14056,-0.2108398 -0.0041,-0.00459 -0.01907,-0.00869 -0.02325,-0.013436 0.0025,-0.037335 0.03322,-0.1043068 0.03669,-0.142627 0.01229,-0.1355429 0.01561,-0.271227 0.01189,-0.4139282 C 22.834829,3.4296195 22.808456,3.137302 22.734747,2.8494385 22.589324,2.2815746 22.34844,1.7344254 21.967352,1.2908773 21.399635,0.63011622 20.54457,0.28732096 19.64708,0.28732096 Z" /><path
     style="baseline-shift:baseline;display:inline;overflow:visible;opacity:1;vector-effect:none;stroke-linecap:round;stroke-linejoin:round;stroke-miterlimit:0;paint-order:stroke fill markers;enable-background:accumulate;stop-color:#000000;stop-opacity:1"
     d="m 19.646427,1.0744329 c -1.348186,0 -2.47594,0.8322744 -2.796921,2.0645975 -0.218871,0.8403018 0.09689,2.4936097 0.622543,3.2586312 0.104221,0.1516739 0.323503,0.374323 0.48701,0.4946903 0.174508,0.1284663 0.35237,0.2184608 0.430989,0.2182064 0.09439,-3.052e-4 0.283987,-0.1280777 0.641517,-0.4337011 0.279016,-0.2385065 0.747011,-0.6198258 1.039981,-0.8470724 1.507148,-1.169056 1.88123,-1.4728736 1.932678,-1.5690047 0.08195,-0.1531248 0.0639,-0.8426727 -0.03162,-1.215718 C 21.863855,2.6204085 21.593783,2.0636743 21.369938,1.8031411 20.970712,1.3384858 20.345836,1.0744329 19.646427,1.0744329 Z M 18.695447,3.47289 c 0.06647,-8.99e-4 0.112483,0.012018 0.155861,0.035238 0.297919,0.1594425 0.412074,0.7665863 0.207363,1.1023241 -0.113905,0.1868129 -0.711996,0.6761431 -1.156987,0.9464621 -0.167117,0.1015151 -0.325291,0.1843223 -0.351028,0.1843223 -0.102249,0 -0.421504,-1.2307819 -0.421504,-1.6245718 V 3.9187892 l 0.63203,-0.2019423 C 18.302709,3.5437254 18.549202,3.4749031 18.695447,3.47289 Z m 3.422624,1.2645103 c -0.08129,0.00516 -0.423511,0.2325836 -0.982151,0.6532623 -1.499317,1.1290393 -1.515078,1.1475527 -1.216623,1.3986852 0.126742,0.1066494 0.152249,0.1651168 0.152249,0.3514788 0,0.1192308 0.01386,0.2176049 0.03118,0.2236272 h 4.73e-4 v 4.689e-4 h 4.66e-4 4.69e-4 c 0.01808,0 0.231387,-0.1913253 0.473909,-0.4251168 0.340244,-0.3279999 0.600525,-0.5400548 0.636999,-0.5285735 h 4.68e-4 l 4.69e-4,4.689e-4 4.69e-4,4.692e-4 h 4.69e-4 l 4.7e-4,4.689e-4 4.67e-4,4.689e-4 v 4.692e-4 l 4.71e-4,4.689e-4 4.69e-4,4.691e-4 c 0.0034,0.00882 -0.008,0.032784 -0.03705,0.073188 -1.109455,1.5431911 -1.780336,2.4534985 -1.921838,2.6080799 l -0.177547,0.1942615 -1.623215,0.256606 c -0.892851,0.141228 -1.663391,0.2688154 -1.712217,0.2837134 -0.05322,0.01624 -0.089,0.077341 -0.089,0.1522455 0,0.1810622 -0.09613,0.1939402 -0.564714,0.075442 -0.230093,-0.058187 -0.51108,-0.1054301 -0.624348,-0.1048168 -0.270009,0.00137 -0.57711,0.1449718 -0.798732,0.3731698 -0.157879,0.162564 -0.207516,0.183872 -0.429637,0.183872 -0.499162,0 -0.980042,0.360746 -1.269476,0.952335 -0.104917,0.214438 -0.154216,0.266898 -0.23899,0.254798 -0.110121,-0.0157 -0.132204,-0.130944 -0.05827,-0.304944 0.03791,-0.08927 -0.198116,-0.333922 -1.063474,-1.101873 -0.539407,-0.4786919 -0.493424,-0.4744111 -0.8755376,-0.07499 -0.401806,0.419991 -0.620736,0.715694 -0.620736,0.83849 0,0.107529 0.340573,0.503874 0.7219324,0.839843 0.3698562,0.325846 0.4552692,0.465587 0.3749692,0.614409 -0.06241,0.115678 -0.06344,0.115446 -0.3564472,-0.140953 -0.5031914,-0.440329 -1.0681274,-0.659585 -1.6986624,-0.659585 -0.542554,0 -0.513213,-0.10109 -0.513213,1.773654 0,1.310486 0.01325,1.623717 0.07228,1.704085 0.06228,0.08478 0.127143,0.09717 0.465324,0.0872 0.477552,-0.01406 0.827785,-0.110924 1.155182,-0.318951 0.131511,-0.08356 0.249644,-0.142472 0.268352,-0.134627 h 4.7e-4 v 4.7e-4 h 4.68e-4 l 4.7e-4,4.68e-4 4.68e-4,4.69e-4 c 0.02635,0.03816 -0.228045,0.541323 -0.337925,0.666815 -0.12209,0.139437 -0.209493,0.418943 -0.174384,0.558841 0.02068,0.0824 -0.104243,0.389609 -0.430991,1.059406 -0.253086,0.518801 -0.471442,0.9433 -0.485203,0.9433 -0.01376,0 -0.191071,-0.05525 -0.393945,-0.122882 -1.2263467,-0.408803 -2.7633824,-0.382329 -3.9213809,0.06732 -0.440371,0.170994 -0.9369742,0.438934 -0.9369742,0.505533 0,0.133935 0.4684204,0.308547 0.8335192,0.31082 h 4.565e-4 4.575e-4 4.576e-4 v 4.66e-4 h 4.576e-4 v 4.73e-4 h 4.564e-4 v 4.68e-4 4.67e-4 l -4.564e-4,4.7e-4 c -0.00965,0.02007 -0.1910839,0.142938 -0.4300866,0.289586 -0.877553,0.538447 -1.6651829,1.435386 -2.0596285,2.345598 -0.33148176,0.764915 -0.39250666,1.08853 -0.39304166,2.080864 -4.456e-4,0.82183 0.00978,0.921366 0.13779026,1.344023 0.2595306,0.856957 0.6016728,1.470717 1.1615055,2.082215 0.8146259,0.889802 1.818582,1.44774 3.0056383,1.670201 0.5862813,0.109876 1.480475,0.06896 2.1296537,-0.09713 2.2205617,-0.568137 3.8820773,-2.633621 3.8820773,-4.826281 0,-0.223707 0.01133,-0.408723 0.02575,-0.425569 l 4.7e-4,-4.69e-4 v -4.68e-4 h 4.69e-4 4.69e-4 v -4.69e-4 h 4.68e-4 4.69e-4 c 0.01766,0.0018 0.113545,0.05828 0.214591,0.126947 0.102661,0.06975 0.238508,0.12695 0.301784,0.12695 0.10649,0 0.11475,-0.02209 0.11475,-0.297718 0,-0.163755 -0.03317,-0.489446 -0.07408,-0.723289 -0.252182,-1.44107 -1.065841,-2.778614 -2.2340146,-3.673362 -0.206005,-0.157787 -0.375158,-0.305636 -0.380392,-0.332053 v -4.69e-4 -4.68e-4 c 0,-0.06802 0.8659176,-1.794676 0.9076096,-1.809801 0.02107,-0.0076 0.168303,0.04343 0.327535,0.113846 0.455657,0.201515 0.614267,0.165914 0.767108,-0.173028 0.07629,-0.169171 0.118201,-0.206007 0.234019,-0.206007 0.170623,0 0.251121,0.104568 0.571943,0.744972 l 0.233566,0.466229 -0.214592,0.119268 c -0.197854,0.110156 -0.214356,0.135059 -0.210074,0.320307 0.0046,0.199228 0.320806,0.976182 0.468939,1.152018 0.09168,0.108838 0.242858,0.112776 0.482494,0.01265 0.100165,-0.04184 0.20186,-0.07589 0.225884,-0.07589 0.02404,0 0.09737,0.114498 0.16309,0.254802 l 0.11972,0.255251 -0.235372,0.239439 c -0.335703,0.341766 -0.465822,0.655852 -0.467133,1.127171 -9e-4,0.336125 0.02093,0.427183 0.188839,0.778855 0.230981,0.483744 0.928383,1.650676 1.165575,1.9503 0.571683,0.72216 1.52651,1.169706 2.719214,1.274447 0.317323,0.02787 1.697821,0.0332 3.332721,0.01311 l 2.791498,-0.03434 0.337925,-0.166252 c 0.185753,-0.09149 0.491296,-0.305641 0.679467,-0.476169 l 0.342442,-0.310368 0.663202,0.03478 c 0.943518,0.04903 1.043593,0.06881 1.043593,0.207815 0,0.445526 0.433468,1.574844 0.827645,2.156306 1.248886,1.842271 3.675981,2.671062 5.783585,1.975147 0.746403,-0.246457 1.61456,-0.798681 2.093513,-1.331373 1.290905,-1.435741 1.693138,-3.25623 1.111357,-5.030028 -0.562857,-1.716108 -1.975625,-2.963511 -3.80166,-3.356666 -0.474282,-0.102096 -1.466945,-0.101574 -1.953915,0.0013 -0.208145,0.04402 -0.393421,0.06312 -0.412015,0.04246 -0.01858,-0.02065 -0.08198,-0.167969 -0.140502,-0.327533 l -0.106173,-0.290083 0.256607,-0.07635 c 0.693133,-0.205836 1.789048,-0.255474 2.45493,-0.111136 1.226234,0.265806 2.218029,0.806242 3.100057,1.688272 0.440694,0.440695 0.755145,0.633541 1.147952,0.704765 0.215056,0.03899 0.444093,-0.0032 0.444093,-0.08177 0,-0.07427 -0.919083,-1.394881 -1.630445,-2.342438 l -0.600336,-0.799411 h 0.401624 c 0.373195,0 0.408681,-0.0095 0.506439,-0.133725 0.08796,-0.111808 0.105262,-0.205197 0.105262,-0.571943 0,-0.492042 -0.07298,-0.664103 -0.281906,-0.664103 -0.06816,0 -0.124236,-0.02041 -0.124236,-0.04519 0,-0.02476 0.239992,-0.264437 0.53309,-0.532638 l 0.532634,-0.48746 h 0.814998 c 0.464631,0 0.857069,-0.02247 0.913029,-0.05241 0.113351,-0.06065 0.138229,-0.394411 0.03704,-0.495591 -0.08725,-0.08725 -4.239539,-0.07835 -6.813171,0.01446 -2.469199,0.08903 -2.400717,0.07443 -2.99796,0.637001 -0.548616,0.516763 -0.792723,0.632481 -3.038617,1.441153 -0.976556,0.351622 -1.908117,0.687732 -2.070019,0.746777 -0.228093,0.08317 -0.287609,0.125615 -0.263383,0.188841 0.01721,0.04488 0.350488,0.68126 0.740454,1.414046 0.61012,1.146478 1.074959,2.033216 1.611922,3.075663 0.241409,0.468667 0.186454,1.023784 -0.129208,1.309236 -0.144831,0.130972 -2.5295,1.304779 -2.929741,1.442055 -0.429234,0.147218 -0.632375,0.15111 -0.893151,0.01807 -0.256837,-0.131028 -0.404336,-0.409446 -0.404336,-0.763046 0,-0.366677 0.103713,-0.548604 0.643322,-1.125813 l 0.473462,-0.506437 -0.112493,-0.184323 c -0.06189,-0.10136 -0.457263,-0.720862 -0.878695,-1.376547 -2.339627,-3.640123 -2.281645,-3.531704 -2.245756,-4.182056 0.04159,-0.753568 0.300947,-1.087877 1.299294,-1.675619 l 0.625252,-0.367743 -0.21956,-0.16354 c -0.120586,-0.08978 -0.529204,-0.317248 -0.908061,-0.505535 -1.293122,-0.642658 -2.643783,-0.966682 -4.028903,-0.966791 -1.083817,-8.6e-5 -1.592158,0.181543 -2.10842,0.753554 -0.285948,0.316831 -0.299403,0.32535 -0.462614,0.278745 -0.233565,-0.06668 -0.237855,-0.201719 -0.01988,-0.642872 0.221597,-0.448471 0.225992,-0.563907 0.02893,-0.736839 -0.0837,-0.07345 -0.152247,-0.182036 -0.152247,-0.241247 0,-0.135925 0.364885,-0.705227 0.480232,-0.749489 0.233878,-0.08975 0.443039,-0.03548 0.638806,0.166251 0.242154,0.249526 0.512548,0.336438 0.722385,0.231759 0.12881,-0.06426 0.165363,-0.06404 0.291844,0.0013 0.0795,0.04111 0.188273,0.07454 0.241697,0.07454 0.137397,0 0.33971,-0.172186 0.414727,-0.353287 0.05727,-0.138253 0.08644,-0.154053 0.285973,-0.154053 0.203849,0 0.221818,0.01041 0.221818,0.1283 0,0.07064 0.03006,0.140113 0.06641,0.154057 0.08699,0.03336 3.700726,-0.367378 3.980111,-0.441383 0.418511,-0.110864 0.779823,-0.449319 2.165791,-2.0266501 0.304397,-0.3464237 0.572524,-0.6375829 0.595436,-0.646937 0.04063,-0.016583 -0.374717,0.7323557 -0.737744,1.3300171 l -0.181158,0.298171 0.384003,0.437313 c 0.532173,0.605816 0.689032,0.84744 0.733679,1.129883 0.05501,0.347946 0.403184,0.922097 0.62209,1.025973 0.09576,0.04544 0.198842,0.08267 0.2295,0.08267 0.135324,0 0.03716,0.159511 -0.159475,0.258866 -0.287527,0.145285 -1.381435,0.754189 -2.473452,1.377 -1.821407,1.038807 -1.930257,1.120881 -2.105709,1.580299 -0.116216,0.304302 -0.08255,0.783667 0.07725,1.097354 0.06354,0.124735 0.606953,0.991202 1.207586,1.925903 0.600637,0.934702 1.250062,1.950589 1.443412,2.257505 0.19335,0.306916 0.398678,0.609252 0.456289,0.671785 l 0.104808,0.113845 -0.12243,0.171676 c -0.06741,0.09432 -0.324839,0.385259 -0.571944,0.646935 -0.247106,0.261679 -0.469758,0.528582 -0.494691,0.593177 -0.08519,0.220706 -0.05263,0.463293 0.0795,0.595434 0.221541,0.221542 0.379782,0.174185 1.929969,-0.573297 1.354395,-0.653069 1.518884,-0.747075 1.595661,-0.91529 0.112703,-0.246917 0.01808,-0.642436 -0.243053,-1.016034 -0.05222,-0.0747 -0.360745,-0.655198 -0.68534,-1.28981 -0.324595,-0.634611 -0.747281,-1.444869 -0.939232,-1.800762 -0.566307,-1.049976 -0.778161,-1.494256 -0.733678,-1.53738 0.02299,-0.02231 0.58945,-0.237954 1.259087,-0.479329 3.415351,-1.2311 3.745469,-1.362967 4.107962,-1.637675 0.326956,-0.247774 0.601481,-0.614559 0.747231,-0.998416 0.161747,-0.425932 0.160448,-1.178299 -0.0025,-1.64174 L 28.082977,11.821 28.211732,11.719804 c 0.07078,-0.05567 0.128753,-0.148532 0.128753,-0.20646 0,-0.19991 -0.726309,-1.450946 -1.510273,-2.6013022 C 26.244071,8.0524402 25.661409,7.3195753 24.983208,6.5901746 24.193238,5.7405648 23.652625,5.4084174 22.836389,5.2705495 22.45771,5.2065874 22.455793,5.2054293 22.341698,4.9791559 22.271453,4.8398445 22.188061,4.7464541 22.1253,4.7374582 c -0.002,-2.979e-4 -0.0046,-1.674e-4 -0.0073,0 z m 11.407693,1.6638762 c -3.943057,-2.036e-4 -3.90455,-0.00269 -4.088083,0.2593166 -0.0603,0.086093 -0.08267,0.2319478 -0.08267,0.5380604 v 0.8249357 2.7196668 2.719215 l 0.172576,0.172578 0.172124,0.172578 3.771845,-4.71e-4 c 3.649045,-1.82e-4 3.777196,-0.0034 3.934028,-0.09894 0.107572,-0.06558 0.180748,-0.163548 0.217756,-0.291392 0.03818,-0.131986 0.05136,-1.007346 0.04112,-2.779752 l 0.0104,-2.5348931 v -0.814993 c 0,-0.410893 -0.09601,-0.6504809 -0.313982,-0.7833731 C 37.196541,6.4036011 37.114192,6.4014466 33.525781,6.4012602 Z m -0.0019,0.2606722 c 0.0547,0.00431 0.174716,0.057546 0.620283,0.2755809 0.303739,0.1486303 0.552338,0.2735561 0.552517,0.2778398 3.57e-4,0.0089 -3.12889,1.6133341 -3.142978,1.6114699 -0.005,-7.035e-4 -0.286278,-0.1384468 -0.62473,-0.3058494 -0.338451,-0.1674051 -0.612432,-0.3069261 -0.608988,-0.3103665 0.0034,-0.00347 0.710463,-0.3545476 1.571262,-0.7802103 1.528109,-0.7556474 1.566505,-0.7736713 1.632703,-0.7684644 z m 1.773656,0.8475237 0.710186,0.3501239 c 0.390622,0.1924115 0.705476,0.3541498 0.699796,0.3596098 -0.0056,0.00551 -0.62645,0.3146412 -1.379715,0.6871454 -0.753248,0.3725058 -1.468252,0.7268025 -1.588418,0.7869859 l -0.218157,0.1093289 -0.6632,-0.3266306 C 32.493469,9.2964784 32.185409,9.1429041 32.173191,9.1344965 32.154927,9.121923 32.430811,8.9760456 33.724124,8.3145303 Z m 1.685562,1.1691862 c 0.0031,0 0.0041,0.730698 0.0022,1.6236684 l -0.0036,1.623669 -1.586624,0.829904 c -0.872589,0.456357 -1.594015,0.830233 -1.603336,0.830808 -0.01343,8.6e-4 -0.01639,-0.218995 -0.0149,-1.060308 9.31e-4,-0.58359 0.0054,-1.334838 0.01,-1.669297 l 0.0087,-0.608086 1.590687,-0.7851788 c 0.875185,-0.4318509 1.593984,-0.7851796 1.59709,-0.7851796 z m -6.913468,0.00632 c 0.01306,0.00489 0.305813,0.147438 0.650553,0.3166925 l 0.626609,0.3076566 8.98e-4,0.5900138 c 7.43e-4,0.6608855 -7e-5,0.6544835 0.09938,0.7418115 0.118395,0.10395 0.31789,0.06225 0.38717,-0.08086 0.02758,-0.057 0.02892,-0.07825 0.02892,-0.524057 0,-0.2730712 0.005,-0.4630105 0.0122,-0.4603544 0.0066,0.00255 0.321131,0.1569836 0.69844,0.3428949 l 0.68579,0.3379245 v 1.672011 c 0,0.919741 -0.0011,1.671959 -0.0032,1.671556 -0.002,-3.94e-4 -0.699363,-0.363725 -1.549578,-0.807771 -0.850214,-0.444045 -1.560274,-0.820597 -1.57804,-0.836682 -0.01777,-0.01609 -0.04362,-0.05375 -0.05738,-0.08358 -0.02387,-0.05171 -0.02501,-0.12708 -0.0253,-1.625476 -2.84e-4,-1.490672 8.98e-4,-1.5703058 0.0235,-1.5617766 z m 4.343796,6.0356744 h 0.746822 l -0.277387,0.284616 c -0.152503,0.156506 -0.409609,0.396179 -0.571491,0.532638 -0.206804,0.174324 -0.339011,0.248024 -0.444092,0.248024 -0.07455,0 -0.136523,-0.0049 -0.147278,-0.01084 h -4.68e-4 l -4.7e-4,-4.69e-4 -4.69e-4,-4.72e-4 -4.69e-4,-4.66e-4 v -4.68e-4 c 2.98e-4,-0.007 0.03222,-0.11687 0.07093,-0.244408 0.06343,-0.208987 0.06104,-0.259085 -0.02575,-0.505532 -0.05297,-0.150405 -0.09623,-0.28019 -0.09623,-0.288233 0,-0.008 0.335733,-0.01446 0.746327,-0.01446 z m -6.355065,3.978301 c 0.01197,-2.34e-4 0.02095,0.0023 0.02666,0.0082 0.02494,0.02553 0.09137,0.165364 0.148182,0.310366 l 0.103463,0.263384 -0.340634,0.226787 c -0.906169,0.602419 -1.582911,1.524431 -2.00587,2.733672 -0.02318,0.06625 -0.08729,0.089 -0.252539,0.089 -0.121782,0 -0.234231,-0.01332 -0.250281,-0.02937 -0.05063,-0.05063 0.29766,-1.009509 0.526764,-1.450187 0.284405,-0.547036 0.719547,-1.122378 1.147955,-1.517049 0.387286,-0.356792 0.780755,-0.632486 0.896313,-0.634742 z m -22.0427544,1.33183 c 0.3484681,-0.0024 0.7038181,0.04102 0.9509812,0.121528 l 0.1612811,0.05285 -0.3754223,0.766205 -0.3754223,0.766656 -0.3943962,0.0067 c -0.308126,0.0054 -0.4578367,0.03617 -0.6826277,0.139598 -0.5570002,0.256278 -0.9345933,0.729546 -1.0557904,1.324143 -0.1650479,0.809726 0.2722839,1.639756 1.0557904,2.004061 0.2395037,0.111361 0.3605025,0.133722 0.7192213,0.134175 0.3772493,4.7e-4 0.4722978,-0.019 0.7607841,-0.155859 0.8391766,-0.398054 1.2305546,-1.241342 0.9893796,-2.132311 -0.05233,-0.193287 -0.161859,-0.427092 -0.260672,-0.556544 -0.093747,-0.12282 -0.1711781,-0.240438 -0.1716738,-0.261124 -0.00195,-0.07815 0.7330298,-1.534216 0.7743378,-1.534216 0.09024,0 0.781182,0.751658 0.942396,1.025069 0.474898,0.805396 0.611193,1.862937 0.360062,2.795566 -0.08233,0.305724 -0.416464,0.935589 -0.651003,1.227011 -0.451593,0.561119 -1.228079,1.049533 -1.9317773,1.214815 -0.403862,0.09486 -1.2404996,0.09582 -1.627734,0.0018 -1.2351846,-0.29991 -2.3196076,-1.386956 -2.6058203,-2.6117 -0.1092649,-0.467564 -0.1007226,-1.216685 0.019428,-1.686463 0.367851,-1.438284 1.5695429,-2.469882 3.0566885,-2.623892 0.1102861,-0.01144 0.2258363,-0.01723 0.3419917,-0.01807 z M 30.851301,20.32805 c 0.582904,0.0015 0.702973,0.01739 1.031848,0.135985 0.879218,0.317068 1.573585,0.929353 1.952558,1.721249 0.124953,0.261104 0.257923,0.600096 0.295006,0.753556 0.09696,0.401171 0.08306,1.22611 -0.02666,1.597918 -0.394086,1.335438 -1.557554,2.364706 -2.814087,2.489263 -0.157443,0.01561 -0.331818,0.0347 -0.38762,0.04246 -0.178321,0.02497 -0.776487,-0.05962 -1.052178,-0.149086 -1.041972,-0.338109 -1.901111,-1.176535 -2.244402,-2.190192 -0.06318,-0.186601 -0.108255,-0.350792 -0.101651,-0.369548 l 4.69e-4,-4.68e-4 v -4.7e-4 c 0.01145,-0.01951 1.553534,0.07646 1.575329,0.09804 0.0023,0.0022 0.07503,0.113106 0.161282,0.246214 0.448253,0.691774 1.343048,1.020292 2.124232,0.78021 1.403317,-0.43128 1.801215,-2.177533 0.723287,-3.175504 -0.351152,-0.325097 -0.737389,-0.487017 -1.211657,-0.507789 l -0.329793,-0.01446 -0.26248,-0.679013 c -0.236146,-0.611069 -0.253841,-0.683489 -0.177546,-0.72916 0.04661,-0.0279 0.381348,-0.05022 0.744068,-0.04924 z M 13.6921,20.608148 c 0.0047,1.35e-4 0.0086,0.0018 0.01129,0.0046 0.01807,0.018 0.352331,0.657113 0.742713,1.420369 0.390384,0.76326 0.779204,1.475175 0.864242,1.581656 0.08238,0.103148 0.141293,0.197196 0.134175,0.213688 l -4.69e-4,4.67e-4 v 4.7e-4 h -4.68e-4 c -0.04079,0.04076 -0.50117,-0.282826 -0.713799,-0.501919 -0.204267,-0.210495 -1.087053,-1.628373 -1.199444,-1.926367 -0.08677,-0.230063 -0.0659,-0.566379 0.04338,-0.701149 0.04506,-0.05559 0.0934,-0.09243 0.118365,-0.09172 z m 15.250463,0.284165 c 0.0036,-1.54e-4 0.0067,4.7e-4 0.0089,0.0019 4.7e-4,3.38e-4 0.0013,0.0013 0.0019,0.0019 0.02058,0.02165 0.15298,0.344183 0.294555,0.716962 l 0.257509,0.677658 -0.113393,0.144116 c -0.09576,0.121453 -0.148688,0.142729 -0.341539,0.139144 -0.330738,-0.0062 -1.335283,-0.09066 -1.358931,-0.114297 v -4.68e-4 c -0.02467,-0.03573 0.21651,-0.503259 0.392137,-0.758526 0.180175,-0.261871 0.761075,-0.80402 0.858819,-0.808221 z"
     id="path2" /><path
     d="M 38.599461,11.600298 V 1.5716795 h 3.333768 l 2.001763,6.8408039 1.979189,-6.8408039 H 49.25547 V 11.600298 H 47.18598 V 3.7060103 L 44.996077,11.600298 H 42.851329 L 40.668956,3.7060103 V 11.600298 Z M 51.376568,7.8652191 q 0,-0.9577125 0.519254,-1.8538579 0.519254,-0.8961454 1.467457,-1.3681607 0.955733,-0.4720157 2.129697,-0.4720157 1.81363,0 2.972547,1.0740064 1.158916,1.0671655 1.158916,2.7021176 0,1.6486336 -1.173968,2.7363212 -1.166442,1.080847 -2.942444,1.080847 -1.09871,0 -2.099593,-0.451493 -0.993358,-0.451493 -1.512612,-1.3202749 -0.519254,-0.8756228 -0.519254,-2.12749 z m 2.167321,0.1026119 q 0,1.0808471 0.564409,1.6554747 0.564409,0.5746273 1.392203,0.5746273 0.827799,0 1.384682,-0.5746273 0.564405,-0.5746276 0.564405,-1.6691561 0,-1.0671656 -0.564405,-1.6417929 -0.556883,-0.5746276 -1.384682,-0.5746276 -0.827794,0 -1.392203,0.5746276 Q 53.543889,6.886984 53.543889,7.967831 Z M 65.357742,4.3353643 v 1.5323401 h -1.444884 v 2.9278642 q 0,0.8893042 0.03761,1.0398022 0.04515,0.1436568 0.188136,0.2394282 0.150508,0.09577 0.361221,0.09577 0.293493,0 0.850372,-0.1847016 l 0.180611,1.4912956 q -0.73749,0.287313 -1.670645,0.287313 -0.57193,0 -1.030982,-0.17102 Q 62.370129,11.415595 62.151889,11.141963 61.94118,10.86149 61.8584,10.389475 61.79067,10.054275 61.79067,9.0349956 V 5.8677044 H 60.81989 V 4.3353643 h 0.97078 V 2.8919546 l 2.122171,-1.1218919 v 2.5653016 z m 1.39113,3.5298548 q 0,-0.9577125 0.519254,-1.8538579 0.519254,-0.8961454 1.467461,-1.3681607 0.955728,-0.4720157 2.129696,-0.4720157 1.813627,0 2.972543,1.0740064 1.158917,1.0671655 1.158917,2.7021176 0,1.6486336 -1.173968,2.7363212 -1.166439,1.080847 -2.94244,1.080847 -1.098714,0 -2.099598,-0.451493 -0.993357,-0.451493 -1.512611,-1.3202749 -0.519254,-0.8756228 -0.519254,-2.12749 z m 2.167325,0.1026119 q 0,1.0808471 0.564405,1.6554747 0.564408,0.5746273 1.392207,0.5746273 0.827795,0 1.384678,-0.5746273 0.564408,-0.5746276 0.564408,-1.6691561 0,-1.0671656 -0.564408,-1.6417929 -0.556883,-0.5746276 -1.384678,-0.5746276 -0.827799,0 -1.392207,0.5746276 -0.564405,0.5746273 -0.564405,1.6554743 z m -30.851041,14.37937 2.167325,-0.191542 q 0.195662,0.991916 0.79017,1.457091 0.602033,0.465174 1.617968,0.465174 1.076137,0 1.617969,-0.410448 0.549353,-0.417289 0.549353,-0.971394 0,-0.355722 -0.233287,-0.601991 -0.225761,-0.253109 -0.797695,-0.437811 -0.391325,-0.123135 -1.783528,-0.437812 -1.791053,-0.403607 -2.513491,-0.991916 -1.015935,-0.827737 -1.015935,-2.018037 0,-0.76617 0.474104,-1.429728 0.481625,-0.670399 1.377152,-1.01928 0.903052,-0.348881 2.174851,-0.348881 2.077016,0 3.12305,0.827737 1.05356,0.827737 1.10624,2.20958 l -2.227527,0.08893 q -0.142982,-0.773011 -0.617085,-1.10821 -0.466578,-0.34204 -1.407255,-0.34204 -0.970781,0 -1.520138,0.362562 -0.353695,0.232588 -0.353695,0.622514 0,0.355721 0.331118,0.608831 0.421423,0.321518 2.046917,0.670399 1.625494,0.348881 2.400613,0.725125 0.782644,0.369403 1.219118,1.01928 0.444001,0.643036 0.444001,1.593907 0,0.861942 -0.52678,1.61443 -0.52678,0.752488 -1.490035,1.121892 -0.963254,0.362562 -2.400612,0.362562 -2.092068,0 -3.213359,-0.875622 -1.121288,-0.882464 -1.339527,-2.565302 z m 10.241038,-4.00187 h 2.250101 l 1.911462,5.157966 1.866306,-5.157966 h 2.189899 l -2.822035,6.991301 -0.504207,1.265549 q -0.278437,0.636195 -0.534306,0.971394 -0.248338,0.3352 -0.579456,0.540423 -0.323592,0.212066 -0.805221,0.328358 -0.474104,0.116296 -1.076137,0.116296 -0.609559,0 -1.196541,-0.116296 L 48.817922,26.93738 q 0.496677,0.08893 0.895527,0.08893 0.737489,0 1.091184,-0.396767 0.353696,-0.389926 0.541832,-0.998757 z m 9.240151,5.19217 2.122171,-0.294155 q 0.13546,0.560946 0.549357,0.855101 0.413898,0.287314 1.158917,0.287314 0.820273,0 1.23417,-0.273633 0.278441,-0.191542 0.278441,-0.51306 0,-0.218906 -0.150507,-0.362562 -0.158037,-0.136816 -0.70739,-0.25311 -2.55865,-0.51306 -3.243463,-0.937191 -0.948203,-0.588309 -0.948203,-1.634952 0,-0.944031 0.820273,-1.587066 0.820269,-0.643036 2.543594,-0.643036 1.640542,0 2.438237,0.485698 0.797696,0.485696 1.098715,1.436568 l -1.994241,0.3352 q -0.12793,-0.42413 -0.489151,-0.649877 -0.353695,-0.225746 -1.015935,-0.225746 -0.83532,0 -1.196541,0.212065 -0.240813,0.150497 -0.240813,0.389926 0,0.205224 0.21071,0.34888 0.285967,0.191543 1.971663,0.540424 1.693222,0.348881 2.362984,0.8551 0.662239,0.513061 0.662239,1.429729 0,0.998757 -0.918104,1.717041 -0.918099,0.718285 -2.716678,0.718285 -1.63302,0 -2.588749,-0.601991 -0.948203,-0.601991 -1.241696,-1.634952 z m 13.394188,-5.19217 v 1.53234 h -1.44488 v 2.927864 q 0,0.889304 0.03761,1.039802 0.04515,0.143657 0.188136,0.239428 0.150507,0.09577 0.361221,0.09577 0.293493,0 0.850376,-0.184701 l 0.180606,1.491295 q -0.737489,0.287314 -1.670645,0.287314 -0.57193,0 -1.030982,-0.17102 -0.459052,-0.177861 -0.677287,-0.451493 -0.210714,-0.280473 -0.293493,-0.752489 -0.06773,-0.335199 -0.06773,-1.354479 V 19.87767 h -0.97078 v -1.53234 h 0.97078 v -1.44341 l 2.122171,-1.121892 v 2.565302 z m 6.508425,4.952742 2.107119,0.321517 q -0.406371,1.053484 -1.28685,1.60759 -0.87295,0.547264 -2.189899,0.547264 -2.084542,0 -3.085425,-1.238186 -0.79017,-0.991917 -0.79017,-2.503734 0,-1.805972 1.038508,-2.825252 1.038508,-1.026121 2.626377,-1.026121 1.783524,0 2.81451,1.074007 1.030982,1.067165 0.985832,3.276745 h -5.297906 q 0.02258,0.8551 0.511733,1.333957 0.489151,0.472015 1.219118,0.472015 0.496677,0 0.835321,-0.246269 0.338647,-0.246269 0.511732,-0.793533 z m 0.120404,-1.942789 q -0.02258,-0.834578 -0.474099,-1.265548 -0.451526,-0.437812 -1.098715,-0.437812 -0.692338,0 -1.143864,0.458334 -0.451527,0.458334 -0.444001,1.245026 z m 4.07771,-3.009953 h 1.949086 v 0.991916 q 1.046034,-1.156096 2.490918,-1.156096 0.767592,0 1.332001,0.287314 0.564404,0.287314 0.925625,0.868782 0.52678,-0.581468 1.136339,-0.868782 0.60956,-0.287314 1.301902,-0.287314 0.880475,0 1.490035,0.328359 0.609559,0.321518 0.910578,0.950872 0.218235,0.465174 0.218235,1.504976 v 4.644906 h -2.114645 v -4.152368 q 0,-1.080847 -0.218239,-1.395524 -0.293489,-0.410448 -0.903049,-0.410448 -0.444,0 -0.835324,0.246269 -0.391324,0.246269 -0.564409,0.725125 -0.173084,0.472016 -0.173084,1.498136 v 3.48881 h -2.114646 v -3.981348 q 0,-1.060324 -0.112878,-1.36816 -0.112883,-0.307836 -0.353695,-0.458334 -0.233291,-0.150498 -0.639663,-0.150498 -0.489155,0 -0.880475,0.239428 -0.391324,0.239428 -0.564408,0.690922 -0.165559,0.451493 -0.165559,1.498136 v 3.529854 h -2.114645 z"
     id="text1"
     style="font-weight:bold;font-size:37.3333px;line-height:1;font-family:Arial;-inkscape-font-specification:'Arial, Bold';letter-spacing:1px;word-spacing:-0.07px;white-space:pre;stroke:#ffffff;stroke-width:1.574;stroke-linecap:square;stroke-miterlimit:2.2;stroke-dasharray:none;stroke-opacity:1;paint-order:markers stroke fill"
     aria-label="Moto System" /></svg>
