<?xml version="1.0" encoding="UTF-8" standalone="no"?>
<!-- Created with Inkscape (http://www.inkscape.org/) -->

<svg
   width="100mm"
   height="35mm"
   viewBox="0 0 99.999992 34.999998"
   version="1.1"
   id="svg1"
   xml:space="preserve"
   inkscape:export-filename="Control Web.svg"
   inkscape:export-xdpi="96"
   inkscape:export-ydpi="96"
   inkscape:version="1.4.3 (0d15f75, 2025-12-25)"
   sodipodi:docname="img2.svg"
   xmlns:inkscape="http://www.inkscape.org/namespaces/inkscape"
   xmlns:sodipodi="http://sodipodi.sourceforge.net/DTD/sodipodi-0.dtd"
   xmlns="http://www.w3.org/2000/svg"
   xmlns:svg="http://www.w3.org/2000/svg"><sodipodi:namedview
     id="namedview1"
     pagecolor="#696969"
     bordercolor="#000000"
     borderopacity="0.25"
     inkscape:showpageshadow="2"
     inkscape:pageopacity="0.0"
     inkscape:pagecheckerboard="0"
     inkscape:deskcolor="#d1d1d1"
     inkscape:document-units="mm"
     inkscape:zoom="0.35388021"
     inkscape:cx="1058.2677"
     inkscape:cy="755.9055"
     inkscape:window-width="1366"
     inkscape:window-height="745"
     inkscape:window-x="-8"
     inkscape:window-y="-8"
     inkscape:window-maximized="1"
     inkscape:current-layer="svg1"
     showguides="true"><inkscape:page
       x="0"
       y="0"
       width="99.999992"
       height="35"
       id="page2"
       margin="0"
       bleed="0" /></sodipodi:namedview><defs
     id="defs1" /><g
     id="g100"
     inkscape:label="Control"
     transform="matrix(0.64483202,0,0,0.64483202,-30.410549,-16.714497)"><path
       id="path48"
       style="baseline-shift:baseline;display:inline;overflow:visible;vector-effect:none;fill:#ffffff;stroke-linecap:square;stroke-miterlimit:2.2;paint-order:markers stroke fill;enable-background:accumulate;stop-color:#000000;fill-opacity:1"
       d="m 111.31414,28.756901 c -0.67296,0.04019 -1.31283,0.184769 -1.94821,0.349333 -0.0641,0.0141 -0.0844,0.02021 -0.14107,0.03669 l 5.1e-4,5.17e-4 c -2.70588,0.717748 -5.04534,2.44002 -6.58822,4.986259 -1.4028,2.315005 -1.99318,4.845054 -1.8495,7.769551 0.14868,3.024764 1.12066,5.642401 2.93935,7.771619 1.58962,1.861013 3.49152,3.055429 5.79913,3.625102 h 0.002 c 0.80458,0.198472 1.77046,0.238027 3.021,0.201021 1.53278,-0.04538 2.31831,-0.174986 3.34967,-0.554488 2.27111,-0.835678 3.94075,-2.131739 5.22087,-4.076237 0.37495,-0.569539 0.73052,-1.251051 1.02733,-1.875338 0.82708,3.518513 3.50477,6.046299 7.09982,6.599597 1.19054,0.183232 2.69054,0.03617 3.82974,-0.298689 2.86992,-0.843544 5.03982,-3.041559 5.8906,-5.873027 v 6.003768 h 2.77967 2.76934 l 0.0548,-6.027022 c 0.0213,-2.333368 0.0378,-3.541582 0.078,-4.164087 0.0402,-0.622504 0.0216,-0.480624 0.1602,-0.781348 0.45338,-0.984077 0.76742,-1.205955 1.865,-1.308447 0.85505,-0.07985 1.54363,0.184035 1.84588,0.486275 0.46065,0.460605 0.36745,0.188724 0.46096,0.792717 0.0935,0.603994 0.12877,1.996886 0.16588,4.74648 l 0.0822,6.159831 2.7771,0.06666 2.85357,0.06821 -0.004,-6.14071 c -0.001,-2.710185 -0.0142,-4.243941 -0.13849,-5.382618 -0.0324,-0.297059 -0.16008,-0.445792 -0.21497,-0.701249 h 1.06246 l 0.0372,3.349667 c 0.0248,2.172236 0.0396,3.324392 0.0899,4.095357 0.0503,0.770965 0.18876,1.285466 0.34571,1.682068 0.57578,1.455352 1.85159,2.507162 3.40445,2.878894 l 0.14262,0.03514 h 0.0202 c 0.32237,0.06192 0.56819,0.06149 0.94258,0.07803 0.43479,0.01922 0.94392,0.02755 1.44745,0.02119 l 2.41794,-0.03101 v 0.115238 l 2.85306,-0.06821 2.77761,-0.06666 0.0842,-6.025472 c 0.0321,-2.307577 0.0543,-3.525893 0.0956,-4.152202 0.0413,-0.626309 0.003,-0.432662 0.10904,-0.628902 0.20946,-0.388199 0.60895,-0.73234 0.77308,-0.825273 0.0234,-0.0015 0.2102,-0.05415 0.39119,-0.08268 0.24151,-0.03807 0.54539,-0.07376 0.8201,-0.09405 l 1.33222,-0.09767 c -0.84811,2.316639 -0.8635,5.009634 0.31833,7.49825 1.16106,2.444837 3.47619,4.158641 6.18774,4.615222 1.02041,0.171762 1.91081,0.17 2.97036,-0.0021 3.73403,-0.605866 6.35139,-3.293269 7.13289,-6.78925 v 6.71897 l 2.85564,-0.06821 2.79312,-0.06873 V 42.196391 31.065287 l -2.79518,-0.06821 -2.85358,-0.06666 v 11.265979 0.499711 c -0.34012,-1.714621 -0.98489,-3.262306 -2.20503,-4.468461 -1.67285,-1.653707 -3.74849,-2.45153 -6.25388,-2.45153 -0.88593,0 -1.75218,0.06665 -2.45515,0.254248 -2.11897,0.56589 -3.6265,2.003179 -4.72064,3.714502 l 0.0233,-1.002006 c 0.01,-0.433693 0.004,-0.846007 -0.0134,-1.187525 -0.009,-0.170759 -0.0201,-0.320251 -0.0393,-0.468705 -0.01,-0.07423 -0.0194,-0.146525 -0.0408,-0.239778 -0.0214,-0.09325 -0.007,-0.182648 -0.19172,-0.467155 -0.13598,-0.210613 -0.41441,-0.45418 -0.67541,-0.56224 -0.26025,-0.107747 -0.46961,-0.12431 -0.64647,-0.129191 h -0.002 c -0.35159,-0.0096 -0.64871,0.03435 -1.11931,0.09767 -0.80845,0.108798 -1.50122,0.508123 -2.2226,0.836125 -0.0533,-0.07392 -0.0685,-0.200739 -0.12299,-0.250114 -0.18934,-0.171492 -0.34468,-0.23564 -0.46664,-0.28112 -0.24393,-0.09096 -0.39895,-0.104384 -0.57258,-0.12299 -0.34724,-0.03721 -0.74798,-0.04496 -1.3317,-0.04496 h -2.78949 v 0.0801 l -2.50786,-0.04909 -0.61702,-0.01344 V 35.424711 32.40319 l -2.8515,0.06821 -2.76779,0.0646 -0.0641,2.902148 -0.0103,0.484725 h -1.76165 v 2.658236 0.605131 c -1.02901,-1.863543 -2.94992,-3.080323 -5.2126,-3.40031 -0.41123,-0.05815 -0.81678,-0.08744 -1.21698,-0.08578 h -0.004 -0.002 c -0.96701,0.0048 -1.90476,0.338337 -2.84995,0.711068 v -0.488342 h -2.78898 -2.79105 v 6.136576 c -0.0663,-0.253459 -0.062,-0.560787 -0.14831,-0.791166 -1.00565,-2.683882 -3.25067,-4.642591 -6.06268,-5.308203 -0.6866,-0.162519 -1.47254,-0.200256 -2.28719,-0.187586 -0.81402,0.01268 -1.59857,0.07282 -2.281,0.255799 -3.65441,0.979932 -5.9355,4.214356 -6.20686,7.957137 -0.0492,-0.0041 -0.1863,-0.119673 -0.22272,-0.129191 -0.10776,-0.02817 -0.18363,-0.03899 -0.26407,-0.05064 -0.16087,-0.0233 -0.327,-0.0377 -0.52142,-0.05064 -0.38886,-0.02587 -0.87604,-0.04134 -1.40404,-0.04134 h -2.65617 l -0.64492,1.371492 c -0.33893,0.718953 -1.41162,1.821588 -2.04846,2.140438 -0.39638,0.198458 -0.47536,0.231611 -0.68006,0.265617 -0.2047,0.03401 -0.6262,0.04858 -1.45883,0.04858 -0.86937,0 -1.27823,-0.01515 -1.46864,-0.05064 -0.19041,-0.03549 -0.31164,-0.08902 -0.80874,-0.341581 -1.92557,-0.978293 -3.09748,-3.065215 -3.09748,-6.012036 0,-3.455712 1.62968,-5.767674 4.09949,-6.362919 0.73837,-0.177958 2.63164,-0.02737 3.31659,0.257865 0.49475,0.206017 1.82757,1.480344 2.14457,2.153874 l 0.64648,1.375109 h 2.74608 3.58945 l -0.52917,-1.933732 v -0.0015 c -0.0819,-0.296308 -0.16204,-0.454141 -0.28319,-0.730705 -0.12115,-0.276564 -0.26899,-0.595204 -0.42168,-0.906404 -2.06957,-4.21776 -6.00538,-6.510454 -10.69908,-6.230111 z m 0.0749,1.248503 h 5.1e-4 c 4.27852,-0.255545 7.61619,1.688153 9.50227,5.531962 0.28859,0.588186 0.56826,1.226234 0.62166,1.419551 l 0.0966,0.352434 h -1.95234 -1.95182 l -0.30902,-0.657325 c -0.50466,-1.072271 -1.80523,-2.363918 -2.79621,-2.776574 -1.07305,-0.446839 -2.9483,-0.592526 -4.08813,-0.31781 -3.08534,0.743593 -5.05808,3.699394 -5.05808,7.578865 0,3.297174 1.38621,5.907603 3.78168,7.12463 1.01026,0.513274 1.09666,0.529683 2.84323,0.529683 1.68006,0 1.86173,-0.02983 2.69803,-0.448551 0.99913,-0.50024 2.12535,-1.671145 2.62206,-2.726449 l 0.30644,-0.652156 h 1.86242 c 1.00817,0 1.86917,0.05787 1.93477,0.128157 7e-5,10e-5 4.4e-4,0.0015 5.1e-4,0.0016 v 5.16e-4 l 5.2e-4,5.17e-4 c 0.11551,0.202693 -0.7216,2.008967 -1.42937,3.08405 -1.15963,1.761472 -2.52227,2.822829 -4.6085,3.590478 -0.95724,0.352229 -1.45865,0.433727 -2.95434,0.478007 -1.19292,0.0353 -2.10068,-0.02042 -2.68615,-0.164848 -2.08392,-0.514453 -3.69659,-1.523852 -5.148,-3.223059 -1.63967,-1.919627 -2.50501,-4.218438 -2.64273,-7.020243 -0.13423,-2.732108 0.38988,-4.94926 1.67018,-7.062101 1.74232,-2.875373 4.48905,-4.580471 7.68377,-4.771285 z m 80.11965,2.205033 1.57355,0.03669 1.57407,0.03824 v 9.910506 9.909473 l -1.57407,0.03772 -1.57355,0.03824 v -9.985437 z m -31.47094,1.473295 v 1.740979 1.741496 l 1.84071,0.03721 1.84175,0.03669 v 1.33997 1.33842 l -1.80764,0.06821 -1.80816,0.06614 -0.0393,3.816822 c -0.0217,2.099189 -0.002,4.073929 0.0424,4.388362 0.12084,0.846368 0.44472,1.00311 2.22415,1.07642 l 1.46451,0.06046 -0.0377,1.355989 -0.0382,1.35444 -1.7415,0.0217 c -0.95706,0.01207 -1.96723,-0.03263 -2.24637,-0.09922 h -5.2e-4 c -1.2291,-0.29423 -2.09608,-1.020912 -2.53266,-2.124418 -0.27847,-0.703682 -0.29777,-0.990063 -0.34727,-5.331458 l -0.0522,-4.585249 h -0.85834 -0.85835 V 38.580062 37.17343 h 0.86661 0.86662 l 0.0367,-1.70739 0.0377,-1.707906 1.57355,-0.03669 z m 12.96716,3.255099 c 0.18063,0.0049 0.25898,0.04477 0.30748,0.119889 0.065,0.10048 0.1035,0.844985 0.0847,1.655196 l -0.0336,1.472778 -1.13843,0.08423 c -0.62608,0.04625 -1.31952,0.155549 -1.54048,0.242879 -0.53644,0.212007 -1.0991,0.75963 -1.45211,1.413867 -0.2768,0.513003 -0.2903,0.739759 -0.3545,5.356779 l -0.0677,4.820895 -1.57355,0.03772 -1.57303,0.03824 V 44.67686 37.173442 h 1.53892 c 1.13554,0 1.54443,0.04347 1.55443,0.166914 0.008,0.09208 0.002,0.372925 -0.0124,0.623735 l -0.0258,0.456303 0.44752,-0.29869 c 0.90016,-0.600331 1.83397,-0.951114 2.91868,-1.097091 0.45599,-0.06135 0.73919,-0.09078 0.91984,-0.08578 z m -25.60153,0.01085 h 5.1e-4 c 0.33773,-0.0016 0.68263,0.02274 1.04077,0.07338 1.96911,0.278471 3.53245,1.291988 4.34495,2.816366 0.74121,1.390639 0.815,2.073191 0.817,7.48223 l 0.003,4.859652 -1.57304,-0.03824 -1.57303,-0.03772 -0.0672,-4.954737 c -0.0742,-5.49904 -0.0731,-5.487833 -0.99115,-6.40581 -0.64184,-0.641817 -1.69573,-0.955921 -2.84582,-0.848527 -1.41237,0.131888 -2.29705,0.755011 -2.8851,2.0314 -0.30084,0.652881 -0.30973,0.788929 -0.35243,5.457032 l -0.0444,4.788338 h -1.52962 -1.52911 v -7.500834 -7.498767 h 1.53944 1.54048 v 0.530717 0.531233 l 1.07383,-0.519348 c 1.06751,-0.51624 2.01762,-0.761361 3.03083,-0.766361 z m -16.9137,0.07286 c 0.74625,-0.01161 1.49322,0.03805 1.97869,0.152963 2.43267,0.575821 4.31545,2.223208 5.18056,4.532023 0.45048,1.202264 0.56831,3.801513 0.23048,5.09788 -0.67099,2.574841 -2.57788,4.530495 -5.15524,5.288049 -0.76063,0.22358 -2.58819,0.369493 -3.28662,0.262 -3.23348,-0.49765 -5.48804,-2.643128 -6.15105,-5.852873 -0.88676,-4.293112 1.32855,-8.220848 5.22656,-9.266101 0.48484,-0.13 1.23037,-0.202321 1.97662,-0.213941 z m 51.31108,0.0041 c 2.27367,0 3.89836,0.632241 5.37331,2.090311 1.34553,1.330115 2.02283,2.913645 2.14561,5.019849 0.2478,4.251965 -2.29389,7.496692 -6.39289,8.161776 -0.97005,0.1574 -1.64266,0.158217 -2.56419,0.0031 -2.32282,-0.391125 -4.28408,-1.851322 -5.26634,-3.919657 -2.18455,-4.600095 -9.2e-4,-9.923874 4.57181,-11.144023 0.47136,-0.125786 1.3363,-0.211356 2.13269,-0.211356 z m -17.38757,4.116544 v 3.533635 3.491776 l -2.02933,-0.08372 c -0.7187,-0.02961 -0.95609,-0.09252 -1.04077,-0.103353 -0.002,-0.04317 -0.008,-0.100822 -0.0139,-0.283186 -0.007,-0.248989 -0.0117,-0.584449 -0.0155,-0.976685 -0.008,-0.784472 -0.009,-1.798539 0.002,-2.840137 l 0.0274,-2.623095 0.61702,-0.02325 z" /><path
       style="baseline-shift:baseline;display:inline;overflow:visible;vector-effect:none;fill:#aaaaaa;stroke-linecap:square;stroke-miterlimit:2.2;paint-order:markers stroke fill;enable-background:accumulate;stop-color:#000000"
       d="m 186.34832,46.486029 c -0.0218,0.09591 -0.0467,0.188569 -0.0744,0.276469 -0.12031,0.382486 -0.28201,0.739171 -0.48214,1.066084 0.20024,-0.326891 0.36233,-0.683533 0.48266,-1.066084 0.0272,-0.08623 0.0519,-0.176816 0.0734,-0.270785 2.4e-4,-0.0018 2.8e-4,-0.0039 5.2e-4,-0.0057 z"
       id="path47" /><path
       style="baseline-shift:baseline;display:inline;overflow:visible;vector-effect:none;fill:#aaaaaa;stroke-linecap:square;stroke-miterlimit:2.2;paint-order:markers stroke fill;enable-background:accumulate;stop-color:#000000"
       d="m 177.06981,44.408631 c -0.0261,0.277752 -0.0388,0.56854 -0.0388,0.872298 0,1.334861 0.26261,2.449446 0.8382,3.320211 0.14397,0.217801 0.30779,0.417823 0.48937,0.600997 -0.18147,-0.183101 -0.34495,-0.383303 -0.48886,-0.600997 -0.57559,-0.870765 -0.83819,-1.98535 -0.83819,-3.320211 0,-0.303745 0.0122,-0.59454 0.0382,-0.872298 z"
       id="path46" /><path
       style="baseline-shift:baseline;display:inline;overflow:visible;vector-effect:none;fill:#aaaaaa;stroke-linecap:square;stroke-miterlimit:2.2;paint-order:markers stroke fill;enable-background:accumulate;stop-color:#000000"
       d="m 188.77762,45.702077 v 5.17e-4 c -0.0126,0.303116 -0.0405,0.599047 -0.0832,0.887284 3.2e-4,-0.0016 7.4e-4,-0.0036 0.001,-0.0052 6.6e-4,-0.0032 3.7e-4,-0.0065 10e-4,-0.0098 -8e-5,0.002 2.9e-4,0.0043 0,0.0062 5.8e-4,-0.0028 4.8e-4,-0.006 0.001,-0.0088 0.0412,-0.282866 0.0683,-0.573077 0.0806,-0.870231 z"
       id="path45" /><path
       style="baseline-shift:baseline;display:inline;overflow:visible;vector-effect:none;fill:#aaaaaa;stroke-linecap:square;stroke-miterlimit:2.2;paint-order:markers stroke fill;enable-background:accumulate;stop-color:#000000"
       d="m 186.76276,40.060044 v 5.17e-4 h -5.2e-4 c 1.26844,1.253921 1.88892,2.693017 2.0066,4.711857 0.0185,0.316751 0.0211,0.626551 0.009,0.929659 0.0126,-0.303143 0.0104,-0.612869 -0.008,-0.929659 -0.11768,-2.01884 -0.73815,-3.457936 -2.00659,-4.711857 v -5.17e-4 z"
       id="path44" /><path
       style="baseline-shift:baseline;display:inline;overflow:visible;vector-effect:none;fill:#ffffff;stroke-linecap:square;stroke-miterlimit:2.2;paint-order:markers stroke fill;enable-background:accumulate;stop-color:#000000;fill-opacity:1"
       d="m 181.78684,39.919485 c -0.97729,-5.58e-4 -1.17531,0.04544 -1.99781,0.467671 -1.53102,0.785961 -2.20607,2.098213 -2.20607,4.28501 0,2.545048 1.0045,4.065459 3.07061,4.645711 0.92454,0.259646 2.06467,0.112776 3.08405,-0.396358 1.01949,-0.50918 1.73381,-1.355456 2.08411,-2.4691 0.31857,-1.012851 0.23074,-3.201365 -0.16278,-4.073136 -0.39848,-0.882807 -1.15163,-1.657683 -2.02881,-2.087728 -0.63845,-0.313011 -0.9296,-0.37155 -1.8433,-0.37207 z m -0.50902,1.244367 c 0.11647,4.75e-4 0.27401,0.005 0.5085,0.0052 0.86046,4.9e-4 0.73405,-0.0301 1.29294,0.243912 0.59822,0.29328 1.17292,0.886043 1.44126,1.48053 0.0497,0.11016 0.21072,0.831872 0.23823,1.519287 0.0275,0.687415 -0.0566,1.435246 -0.12868,1.664498 -0.25875,0.822569 -0.71807,1.360421 -1.45107,1.72651 -0.77203,0.385596 -1.63859,0.464717 -2.18746,0.310575 -0.8102,-0.227541 -1.2707,-0.565555 -1.60559,-1.072286 -0.3349,-0.50673 -0.55294,-1.261294 -0.55294,-2.369364 0,-0.964777 0.15185,-1.631498 0.39068,-2.09548 0.23883,-0.463981 0.55642,-0.780499 1.13688,-1.078487 0.5871,-0.301388 0.56781,-0.336288 0.91725,-0.334863 z"
       id="path43" /><path
       style="baseline-shift:baseline;display:inline;overflow:visible;vector-effect:none;fill:#aaaaaa;stroke-linecap:square;stroke-miterlimit:2.2;paint-order:markers stroke fill;enable-background:accumulate;stop-color:#000000"
       d="m 135.16746,46.351153 c -0.11581,0.541001 -0.29837,1.035489 -0.54932,1.476913 -0.45784,0.805333 -1.14973,1.421459 -2.02107,1.806091 0.87154,-0.384619 1.56419,-1.000626 2.0221,-1.806091 0.24919,-0.438324 0.43081,-0.928482 0.54674,-1.465027 5.5e-4,-0.0038 9.6e-4,-0.0081 0.002,-0.01189 z"
       id="path42" /><path
       style="baseline-shift:baseline;display:inline;overflow:visible;vector-effect:none;fill:#aaaaaa;stroke-linecap:square;stroke-miterlimit:2.2;paint-order:markers stroke fill;enable-background:accumulate;stop-color:#000000"
       d="m 125.87759,44.002453 c -0.10952,0.588427 -0.14992,1.205534 -0.0935,1.828829 0.1119,1.238388 0.33263,1.936976 0.87695,2.746086 0.28984,0.430864 0.64594,0.794169 1.05007,1.085722 -0.40381,-0.291535 -0.75937,-0.655116 -1.04903,-1.085722 -0.54432,-0.80911 -0.76505,-1.507698 -0.87695,-2.746086 -0.0563,-0.623319 -0.017,-1.240424 0.0925,-1.828829 z"
       id="path41" /><path
       style="baseline-shift:baseline;display:inline;overflow:visible;vector-effect:none;fill:#aaaaaa;stroke-linecap:square;stroke-miterlimit:2.2;paint-order:markers stroke fill;enable-background:accumulate;stop-color:#000000"
       d="m 123.87409,42.563782 c -0.081,0.277429 -0.13841,0.565836 -0.1881,0.857312 0.0497,-0.291463 0.10714,-0.579892 0.1881,-0.857312 z"
       id="path40" /><path
       style="baseline-shift:baseline;display:inline;overflow:visible;vector-effect:none;fill:#aaaaaa;stroke-linecap:square;stroke-miterlimit:2.2;paint-order:markers stroke fill;enable-background:accumulate;stop-color:#000000"
       d="m 135.62118,40.096735 c 0.64986,0.662457 1.16183,1.466216 1.50585,2.38435 0.33309,0.889029 0.47285,3.04165 0.30799,4.319116 7.6e-4,-0.0031 0.001,-0.0061 0.002,-0.0093 0.16296,-1.278607 0.0233,-3.422975 -0.30903,-4.309815 -0.34408,-0.918279 -0.85684,-1.721914 -1.50688,-2.38435 z"
       id="path39" /><path
       style="baseline-shift:baseline;display:inline;overflow:visible;vector-effect:none;fill:#ffffff;stroke-linecap:square;stroke-miterlimit:2.2;paint-order:markers stroke fill;enable-background:accumulate;stop-color:#000000;fill-opacity:1"
       d="m 130.61993,39.922585 c -1.03489,-0.01638 -2.06836,0.290781 -2.80809,0.923975 -1.05415,0.902315 -1.63498,2.603042 -1.47847,4.334619 0.10898,1.205923 0.28507,1.761596 0.79789,2.523877 1.03412,1.537233 3.01214,2.125558 4.92786,1.465543 1.91639,-0.660255 2.88143,-2.358416 2.77968,-4.889107 -0.063,-1.569191 -0.46084,-2.518194 -1.4025,-3.347082 -0.74607,-0.656703 -1.78149,-0.995455 -2.81637,-1.011825 z m -0.0191,1.250067 c 0.77539,0.01226 1.53415,0.280595 2.0097,0.699182 0.71755,0.631615 0.92291,1.08069 0.97824,2.459282 0.044,1.095626 -0.14777,1.911114 -0.47026,2.478401 -0.32249,0.567288 -0.75984,0.936104 -1.46709,1.179773 -1.44889,0.499182 -2.77796,0.0649 -3.48248,-0.982369 -0.42975,-0.6388 -0.48841,-0.817864 -0.58963,-1.937866 -0.12494,-1.382362 0.40791,-2.72795 1.0449,-3.273185 0.4545,-0.389041 1.20213,-0.635474 1.97662,-0.623218 z"
       id="path38" /><path
       style="baseline-shift:baseline;display:inline;overflow:visible;vector-effect:none;fill:#aaaaaa;stroke-linecap:square;stroke-miterlimit:2.2;paint-order:markers stroke fill;enable-background:accumulate;stop-color:#000000"
       d="m 151.69927,39.281281 c 0.26464,0.285257 0.49066,0.602028 0.67438,0.946712 0.35854,0.672716 0.52604,1.086542 0.63251,2.062406 0.10659,0.975865 0.12829,2.496272 0.1292,5.198649 l 0.002,4.373377 h 0.001 l -0.002,-4.373377 c -9.1e-4,-2.702377 -0.0226,-4.222784 -0.12919,-5.198649 -0.10647,-0.975864 -0.27398,-1.38969 -0.63252,-2.062406 -0.18377,-0.344794 -0.41015,-0.661384 -0.6749,-0.946712 z"
       id="path37" /><path
       style="baseline-shift:baseline;display:inline;overflow:visible;vector-effect:none;fill:#aaaaaa;stroke-linecap:square;stroke-miterlimit:2.2;paint-order:markers stroke fill;enable-background:accumulate;stop-color:#000000"
       d="m 142.82591,37.81367 v 0.05529 1.286743 h 5.1e-4 V 37.86896 37.81367 Z"
       id="path36" /><path
       style="baseline-shift:baseline;display:inline;overflow:visible;vector-effect:none;fill:#aaaaaa;stroke-linecap:square;stroke-miterlimit:2.2;paint-order:markers stroke fill;enable-background:accumulate;stop-color:#000000"
       d="m 168.46775,43.212321 c -0.0173,0.126277 -0.0317,0.268541 -0.0424,0.430464 -0.0479,0.72515 -0.0657,1.933755 -0.0977,4.242636 l -0.0563,3.925341 h 5.2e-4 l 0.0563,-3.925341 c 0.032,-2.308881 0.0498,-3.517486 0.0977,-4.242636 0.0107,-0.161771 0.0247,-0.304146 0.0419,-0.430464 z"
       id="path35" /><path
       style="baseline-shift:baseline;display:inline;overflow:visible;vector-effect:none;fill:#aaaaaa;stroke-linecap:square;stroke-miterlimit:2.2;paint-order:markers stroke fill;enable-background:accumulate;stop-color:#000000"
       d="m 169.43049,38.681834 -1.23662,0.824756 v 5.17e-4 z"
       id="path34" /><path
       style="baseline-shift:baseline;display:inline;overflow:visible;vector-effect:none;fill:#aaaaaa;stroke-linecap:square;stroke-miterlimit:2.2;paint-order:markers stroke fill;enable-background:accumulate;stop-color:#000000"
       d="m 172.89436,37.586294 c 0.007,0.06807 0.0146,0.129297 0.0196,0.222725 -0.005,-0.09343 -0.0121,-0.154665 -0.0191,-0.222725 z"
       id="path33" /><path
       style="baseline-shift:baseline;display:inline;overflow:visible;vector-effect:none;fill:#aaaaaa;stroke-linecap:square;stroke-miterlimit:2.2;paint-order:markers stroke fill;enable-background:accumulate;stop-color:#000000"
       d="m 163.23293,50.455812 -0.0253,0.890385 -0.0134,0.45682 h 5.2e-4 l 0.0134,-0.45682 0.0253,-0.890385 z"
       id="path32" /><path
       style="baseline-shift:baseline;display:inline;overflow:visible;vector-effect:none;fill:#aaaaaa;stroke-linecap:square;stroke-miterlimit:2.2;paint-order:markers stroke fill;enable-background:accumulate;stop-color:#000000"
       d="m 159.55925,40.204738 -0.045,4.268474 c -0.011,1.052612 -0.0103,2.072737 -0.003,2.872176 0.005,0.399731 0.007,0.742655 0.0171,1.009757 0.008,0.267113 0.0127,0.435222 0.0325,0.576709 0.0341,0.238859 0.0836,0.465087 0.20309,0.679545 0.0299,0.05367 0.0648,0.104966 0.10387,0.153996 -0.039,-0.04905 -0.0735,-0.100384 -0.10335,-0.153996 -0.11949,-0.214458 -0.16899,-0.440686 -0.20309,-0.679545 -0.0199,-0.141487 -0.0247,-0.309596 -0.0326,-0.576709 -0.0101,-0.267102 -0.012,-0.610026 -0.017,-1.009757 -0.007,-0.799439 -0.008,-1.819564 0.003,-2.872176 l 0.045,-4.268474 z"
       id="path31" /><path
       style="baseline-shift:baseline;display:inline;overflow:visible;vector-effect:none;fill:#aaaaaa;stroke-linecap:square;stroke-miterlimit:2.2;paint-order:markers stroke fill;enable-background:accumulate;stop-color:#000000"
       d="m 163.16937,38.311314 v 0.876432 0.44235 h 5.2e-4 v -0.44235 -0.876432 z"
       id="path30" /><path
       style="baseline-shift:baseline;display:inline;overflow:visible;vector-effect:none;fill:#aaaaaa;stroke-linecap:square;stroke-miterlimit:2.2;paint-order:markers stroke fill;enable-background:accumulate;stop-color:#000000"
       d="m 155.55743,37.81367 v 0.441317 h 5.2e-4 V 37.81367 Z"
       id="path29" /><path
       style="baseline-shift:baseline;display:inline;overflow:visible;vector-effect:none;fill:#aaaaaa;stroke-linecap:square;stroke-miterlimit:2.2;paint-order:markers stroke fill;enable-background:accumulate;stop-color:#000000"
       d="m 159.48619,34.775656 5.1e-4,1.257288 v 2.20555 h 5.2e-4 v -2.20555 l -5.2e-4,-1.257288 z"
       id="path28" /><path
       style="baseline-shift:baseline;display:inline;overflow:visible;vector-effect:none;fill:#aaaaaa;stroke-linecap:square;stroke-miterlimit:2.2;paint-order:markers stroke fill;enable-background:accumulate;stop-color:#000000"
       d="m 157.35505,34.387566 -0.0103,0.439767 h 5.2e-4 l 0.0103,-0.439767 z"
       id="path27" /><path
       style="baseline-shift:baseline;display:inline;overflow:visible;vector-effect:none;fill:#aaaaaa;stroke-linecap:square;stroke-miterlimit:2.2;paint-order:markers stroke fill;enable-background:accumulate;stop-color:#000000"
       d="m 194.10319,33.354555 v 9.447485 9.008236 h 5.2e-4 V 42.80204 33.354555 Z"
       id="path26" /><path
       style="baseline-shift:baseline;display:inline;overflow:visible;vector-effect:none;fill:#aaaaaa;stroke-linecap:square;stroke-miterlimit:2.2;paint-order:markers stroke fill;enable-background:accumulate;stop-color:#000000"
       d="m 191.98188,32.861561 v 0.442867 h 5.1e-4 v -0.442867 z"
       id="path25" /><path
       style="baseline-shift:baseline;display:inline;overflow:visible;vector-effect:none;fill:#aaaaaa;stroke-linecap:square;stroke-miterlimit:2.2;paint-order:markers stroke fill;enable-background:accumulate;stop-color:#000000"
       d="m 117.59489,46.427113 c -0.26048,0.440987 -0.59335,0.872544 -0.96687,1.260905 0.37361,-0.38841 0.70626,-0.819918 0.96687,-1.260905 z"
       id="path24" /><path
       style="baseline-shift:baseline;display:inline;overflow:visible;vector-effect:none;fill:#aaaaaa;stroke-linecap:square;stroke-miterlimit:2.2;paint-order:markers stroke fill;enable-background:accumulate;stop-color:#000000"
       d="m 118.00778,45.602357 -0.17776,0.381889 c -0.0696,0.147847 -0.1483,0.295871 -0.23513,0.442867 0.0869,-0.146996 0.16604,-0.294993 0.23564,-0.442867 l 0.17777,-0.381889 z"
       id="path23" /><path
       style="baseline-shift:baseline;display:inline;overflow:visible;vector-effect:none;fill:#aaaaaa;stroke-linecap:square;stroke-miterlimit:2.2;paint-order:markers stroke fill;enable-background:accumulate;stop-color:#000000"
       d="m 104.95587,40.667759 c -0.0341,0.350765 -0.0522,0.70973 -0.0522,1.075387 0,2.250987 0.63219,4.234166 1.79421,5.701461 -1.16184,-1.467322 -1.79369,-3.450612 -1.79369,-5.701461 0,-0.365652 0.0176,-0.724639 0.0517,-1.075387 z"
       id="path22" /><path
       style="baseline-shift:baseline;display:inline;overflow:visible;vector-effect:none;fill:#aaaaaa;stroke-linecap:square;stroke-miterlimit:2.2;paint-order:markers stroke fill;enable-background:accumulate;stop-color:#000000"
       d="m 102.64386,39.140721 c -0.003,0.0124 -0.005,0.02479 -0.007,0.03721 0.002,-0.01023 0.005,-0.01976 0.006,-0.02997 3.8e-4,-0.0024 6.8e-4,-0.0048 0.001,-0.0072 z"
       id="path21" /><path
       style="baseline-shift:baseline;display:inline;overflow:visible;vector-effect:none;fill:#aaaaaa;stroke-linecap:square;stroke-miterlimit:2.2;paint-order:markers stroke fill;enable-background:accumulate;stop-color:#000000"
       d="m 102.86194,38.100991 c -0.0792,0.302393 -0.14124,0.612874 -0.19482,0.927592 0.0536,-0.314871 0.11557,-0.625058 0.19482,-0.927592 z"
       id="path20" /><path
       style="baseline-shift:baseline;display:inline;overflow:visible;vector-effect:none;fill:#aaaaaa;stroke-linecap:square;stroke-miterlimit:2.2;paint-order:markers stroke fill;enable-background:accumulate;stop-color:#000000"
       d="m 118.68454,33.816542 c 0.656,0.711628 1.2266,1.558509 1.70687,2.537313 0.10669,0.217444 0.21333,0.442124 0.30593,0.646989 h 5.2e-4 c -0.0926,-0.204865 -0.19872,-0.429545 -0.30541,-0.646989 -0.48033,-0.978894 -1.05177,-1.825677 -1.70791,-2.537313 z"
       id="path19" /><path
       style="baseline-shift:baseline;display:inline;overflow:visible;vector-effect:none;fill:#aaaaaa;stroke-linecap:square;stroke-miterlimit:2.2;paint-order:markers stroke fill;enable-background:accumulate;stop-color:#000000"
       d="m 110.29436,30.776934 c -2.55686,0.467191 -4.72336,1.998183 -6.18516,4.410584 -0.56347,0.9299 -0.97197,1.873318 -1.23868,2.876827 0.26675,-1.003571 0.67672,-1.946873 1.24023,-2.876827 1.46152,-2.411931 3.62739,-3.943069 6.18361,-4.410584 z"
       id="path18" /><path
       style="baseline-shift:baseline;display:inline;overflow:visible;vector-effect:none;fill:#aaaaaa;stroke-linecap:square;stroke-miterlimit:2.2;paint-order:markers stroke fill;enable-background:accumulate;stop-color:#000000"
       d="m 111.41418,30.642059 -0.001,5.16e-4 c 5.2e-4,-3.1e-5 0.001,3.2e-5 0.002,0 v -5.16e-4 z"
       id="path17" /><path
       style="baseline-shift:baseline;display:inline;overflow:visible;vector-effect:none;stroke-linecap:square;stroke-miterlimit:2.2;paint-order:markers stroke fill;enable-background:accumulate;stop-color:#000000"
       d="m 181.80069,37.02645 c -0.79639,0 -1.66133,0.08557 -2.13269,0.211356 -4.57273,1.220149 -6.75636,6.543928 -4.57181,11.144023 0.98226,2.068335 2.94353,3.528532 5.26635,3.919657 0.92153,0.155117 1.59413,0.1543 2.56418,-0.0031 4.099,-0.665084 6.64069,-3.909811 6.39289,-8.161776 -0.12278,-2.106204 -0.80007,-3.689734 -2.1456,-5.019849 -1.47495,-1.45807 -3.09965,-2.090311 -5.37332,-2.090311 z m 0.001,0.639836 c 2.18588,6e-6 3.63795,0.568889 5.03794,1.952852 1.26844,1.253921 1.88943,2.693018 2.00711,4.711858 0.0465,0.79743 -0.007,1.553746 -0.15244,2.258776 0.0853,-0.576474 0.11133,-1.183942 0.0744,-1.81746 -0.11768,-2.01884 -0.73815,-3.457936 -2.00659,-4.711857 -1.4,-1.383969 -2.85307,-1.952852 -5.03897,-1.952852 -0.76257,0 -1.62723,0.09308 -2.01073,0.195337 -2.60738,0.695733 -4.38999,2.818228 -4.91598,5.357812 0.40208,-2.732354 2.23753,-5.063981 4.99452,-5.799646 0.38349,-0.1023 1.24817,-0.194818 2.01073,-0.19482 z m -0.015,2.253092 c 0.9137,5.2e-4 1.20485,0.05906 1.8433,0.372071 0.87718,0.430045 1.63033,1.204921 2.02881,2.087728 0.39352,0.871771 0.48135,3.060285 0.16278,4.073136 -0.3503,1.113644 -1.06462,1.95992 -2.08411,2.4691 -1.01938,0.509134 -2.15951,0.656004 -3.08405,0.396358 -2.06611,-0.580252 -3.07061,-2.100663 -3.07061,-4.645711 0,-2.186797 0.67505,-3.499049 2.20607,-4.28501 0.8225,-0.422234 1.02052,-0.46823 1.99781,-0.467672 z m -4.59662,3.687113 c -0.0547,0.384042 -0.0811,0.794463 -0.0811,1.232483 0,1.334862 0.2631,2.449962 0.83871,3.320727 0.57561,0.870774 1.46169,1.465898 2.57917,1.779737 1.06692,0.299637 2.30997,0.126495 3.42304,-0.429431 1.12794,-0.563334 1.9389,-1.523681 2.32389,-2.747636 0.0277,-0.0879 0.0526,-0.180559 0.0744,-0.276469 -0.0344,0.258947 -0.0846,0.50123 -0.15245,0.717269 -0.38499,1.223954 -1.19595,2.185334 -2.32389,2.748669 -1.11306,0.555926 -2.35664,0.728034 -3.42356,0.428398 -1.11749,-0.313839 -2.00356,-0.908445 -2.57917,-1.77922 -0.57559,-0.870765 -0.83819,-1.98535 -0.83819,-3.320211 0,-0.610335 0.0507,-1.167814 0.15916,-1.674316 z"
       id="path57" /><path
       style="baseline-shift:baseline;display:inline;overflow:visible;vector-effect:none;stroke-linecap:square;stroke-miterlimit:2.2;paint-order:markers stroke fill;enable-background:accumulate;stop-color:#000000"
       d="m 130.48961,37.02235 c -0.74625,0.01162 -1.49178,0.08394 -1.97662,0.21394 -3.89801,1.045253 -6.11332,4.972989 -5.22656,9.266101 0.66301,3.209745 2.91757,5.355223 6.15105,5.852873 0.69843,0.107493 2.52599,-0.03842 3.28662,-0.262 2.57736,-0.757554 4.48425,-2.713208 5.15524,-5.288049 0.33783,-1.296367 0.22,-3.895616 -0.23048,-5.09788 -0.86511,-2.308815 -2.74789,-3.956202 -5.18056,-4.532023 -0.48547,-0.114912 -1.23244,-0.164568 -1.97869,-0.152962 z m 0.008,0.639236 c 0.72027,-0.0112 1.45147,0.04415 1.86087,0.141077 2.28892,0.541788 4.03538,2.069731 4.84725,4.236434 0.37556,1.002306 0.50459,3.611447 0.22944,4.760949 0.16486,-1.277466 0.0251,-3.430087 -0.30799,-4.319116 -0.81186,-2.166703 -2.55834,-3.695161 -4.84725,-4.23695 -0.4094,-0.09692 -1.14009,-0.152794 -1.86035,-0.141594 -0.72038,0.0112 -1.45117,0.0895 -1.86138,0.199471 -2.58335,0.692725 -4.37738,2.718324 -4.90926,5.289083 0.40952,-2.778577 2.25834,-4.99851 4.9878,-5.7304 0.4102,-0.109978 1.1405,-0.187724 1.86087,-0.198954 z m 0.12248,2.260892 c 1.03488,0.01637 2.07029,0.355122 2.81636,1.011825 0.94166,0.828888 1.33952,1.777891 1.4025,3.347082 0.10175,2.530691 -0.86329,4.228852 -2.77968,4.889107 -1.91572,0.660015 -3.89374,0.07169 -4.92786,-1.465543 -0.51282,-0.762281 -0.6889,-1.317954 -0.79788,-2.523877 -0.15651,-1.731577 0.42431,-3.432304 1.47846,-4.334619 0.73973,-0.633194 1.77321,-0.940351 2.8081,-0.923975 z m -4.72013,3.912423 c -0.0712,0.504481 -0.0848,1.028739 -0.0372,1.554944 0.1119,1.238388 0.33212,1.937493 0.87644,2.746602 1.15897,1.722879 3.38046,2.369436 5.47305,1.648478 1.0533,-0.362893 1.88272,-1.036454 2.40605,-1.956986 0.25142,-0.442254 0.43406,-0.937302 0.54984,-1.479497 -0.10196,0.717247 -0.31034,1.360837 -0.62839,1.920297 -0.52333,0.920532 -1.35223,1.594092 -2.40553,1.956986 -2.09259,0.720957 -4.3141,0.07441 -5.47306,-1.648478 -0.54432,-0.80911 -0.76504,-1.507698 -0.87694,-2.746086 -0.0616,-0.681463 -0.0202,-1.359813 0.11575,-1.99626 z"
       id="path56" /><path
       style="baseline-shift:baseline;display:inline;overflow:visible;vector-effect:none;stroke-linecap:square;stroke-miterlimit:2.2;paint-order:markers stroke fill;enable-background:accumulate;stop-color:#000000"
       d="m 147.40331,36.94949 c -1.01321,0.005 -1.96332,0.250121 -3.03083,0.766361 l -1.07383,0.519349 v -0.531234 -0.530717 h -1.54048 -1.53944 v 7.498767 7.500834 h 1.52911 1.52962 l 0.0444,-4.788338 c 0.0427,-4.668103 0.0516,-4.80415 0.35244,-5.457031 0.58805,-1.276389 1.47272,-1.899513 2.88509,-2.031401 1.15009,-0.107394 2.20398,0.20671 2.84582,0.848527 0.91807,0.917977 0.91694,0.906771 0.99116,6.405811 l 0.0672,4.954736 1.57303,0.03772 1.57303,0.03824 -0.003,-4.859651 c -0.002,-5.409039 -0.0758,-6.091592 -0.81701,-7.482231 -0.8125,-1.524378 -2.37584,-2.537895 -4.34495,-2.816366 -0.35814,-0.05064 -0.70304,-0.07503 -1.04077,-0.07338 z m 0.003,0.638716 h 5.1e-4 5.2e-4 5.2e-4 c 0.3127,-10e-4 0.63523,0.02103 0.97255,0.06873 1.84578,0.261032 3.25868,1.192169 3.99355,2.570903 0.35854,0.672716 0.52605,1.086542 0.63252,2.062406 0.1066,0.975865 0.12828,2.496272 0.12919,5.198649 l 0.002,4.373377 -0.0775,-0.0021 -0.003,-3.929993 c -0.001,-2.702378 -0.0221,-4.223302 -0.12868,-5.199166 -0.10647,-0.975864 -0.27448,-1.389172 -0.63303,-2.061889 -0.73486,-1.378734 -2.14777,-2.309871 -3.99356,-2.570903 -0.33744,-0.04771 -0.65975,-0.06931 -0.97255,-0.06821 h -0.001 c -0.93819,0.0056 -1.80621,0.226109 -2.82722,0.719853 l -1.75338,0.847493 v -1.286743 -0.05529 h -1.06609 -0.98908 V 37.81349 h 1.06763 1.06609 v 0.05529 1.286743 l 1.75338,-0.846977 c 1.02071,-0.493586 1.88885,-0.71509 2.8267,-0.720369 z m -4.44159,5.313935 h 5.2e-4 c -0.014,0.114301 -0.0256,0.240542 -0.0346,0.382406 -0.047,0.728212 -0.0603,1.927452 -0.0816,4.261755 l -0.0388,4.318083 h -0.0744 l 0.0346,-3.876249 c 0.0213,-2.334302 0.0346,-3.53406 0.0816,-4.262273 0.0229,-0.354315 0.0613,-0.612657 0.11266,-0.823722 z"
       id="path55" /><path
       style="baseline-shift:baseline;display:inline;overflow:visible;vector-effect:none;stroke-linecap:square;stroke-miterlimit:2.2;paint-order:markers stroke fill;enable-background:accumulate;stop-color:#000000"
       d="m 173.00485,36.93864 c -0.18065,-0.005 -0.46385,0.02443 -0.91984,0.08578 -1.08471,0.145977 -2.01853,0.496759 -2.91869,1.09709 l -0.44752,0.29869 0.0258,-0.456303 c 0.0143,-0.25081 0.0205,-0.531657 0.0124,-0.623734 -0.01,-0.123444 -0.41888,-0.166915 -1.55442,-0.166915 h -1.53893 v 7.503418 7.504451 l 1.57303,-0.03824 1.57355,-0.03772 0.0677,-4.820894 c 0.0642,-4.61702 0.0777,-4.843776 0.3545,-5.356779 0.35301,-0.654237 0.91566,-1.201861 1.4521,-1.413868 0.22096,-0.08733 0.9144,-0.196627 1.54048,-0.242879 l 1.13843,-0.08423 0.0336,-1.472779 c 0.0187,-0.810211 -0.0197,-1.554716 -0.0847,-1.655196 -0.0485,-0.07512 -0.12684,-0.114961 -0.30747,-0.119889 z m -0.11059,0.647466 c 0.007,0.06814 0.0146,0.129631 0.0196,0.223242 0.0142,0.284378 0.0198,0.665037 0.0108,1.059367 l -0.0238,1.043864 -0.0677,0.0052 0.0134,-0.607715 c 0.009,-0.39433 0.003,-0.774988 -0.0109,-1.059367 -0.004,-0.09363 -0.0147,-0.155082 -0.0207,-0.223242 -0.13411,0.0022 -0.34743,0.01974 -0.74569,0.07338 -1.02081,0.137371 -1.87297,0.458989 -2.71818,1.022676 l -1.23662,0.825273 0.0796,-1.404565 c 0.006,-0.110643 0.004,-0.15036 0.006,-0.256832 -0.21433,-0.01955 -0.55031,-0.03204 -1.07642,-0.03204 h -0.98702 v -0.441833 h 1.06505 c 0.52612,0 0.86262,0.0125 1.07694,0.03204 -10e-4,0.106473 4.2e-4,0.146189 -0.006,0.256832 l -0.0796,1.404566 1.23714,-0.825273 c 0.84521,-0.563686 1.69736,-0.885307 2.71818,-1.022677 0.39828,-0.05359 0.61158,-0.07025 0.74569,-0.07286 z m -4.35633,5.245755 c -0.0134,0.110506 -0.0251,0.232852 -0.0341,0.36897 -0.048,0.72515 -0.0662,1.934272 -0.0982,4.243152 l -0.062,4.364591 -0.0724,0.0021 0.0563,-3.925341 c 0.032,-2.308881 0.0498,-3.517486 0.0977,-4.242636 0.0231,-0.348925 0.0623,-0.60669 0.11265,-0.810803 z"
       id="path54" /><path
       style="baseline-shift:baseline;display:inline;overflow:visible;vector-effect:none;stroke-linecap:square;stroke-miterlimit:2.2;paint-order:markers stroke fill;enable-background:accumulate;stop-color:#000000"
       d="m 160.03871,33.683541 -1.57355,0.03772 -1.57354,0.03669 -0.0377,1.707907 -0.0367,1.707389 h -0.86661 -0.86661 v 1.406632 1.406633 h 0.85834 0.85835 l 0.0522,4.58525 c 0.0495,4.341395 0.0688,4.627775 0.34727,5.331457 0.43658,1.103506 1.30356,1.830188 2.53266,2.124418 h 5.1e-4 c 0.27914,0.06659 1.28932,0.11129 2.24638,0.09922 l 1.74149,-0.0217 0.0383,-1.354439 0.0377,-1.35599 -1.46451,-0.06046 c -1.77943,-0.07331 -2.10331,-0.230052 -2.22415,-1.07642 -0.0442,-0.314433 -0.0641,-2.289174 -0.0424,-4.388363 l 0.0393,-3.816821 1.80816,-0.06615 1.80764,-0.06821 v -1.33842 -1.33997 l -1.84174,-0.03669 -1.84072,-0.03721 v -1.741496 z m -0.47284,0.650607 v 1.256254 2.206067 l 2.30425,0.04496 1.37666,0.02739 v 0.877465 0.880567 l -0.0775,0.0031 v -0.44235 -0.876432 l -1.37666,-0.0279 -2.30477,-0.04496 v -2.20555 l -5.2e-4,-1.257288 -1.08882,0.02584 -1.05265,0.02584 0.0103,-0.439767 1.12086,-0.02739 z m -4.00854,3.479416 h 0.39481 1.26039 l -0.01,0.441317 h -1.32912 -0.31626 z m 4.07521,2.387967 -0.0403,3.829223 c -0.012,1.052612 -0.0113,2.073253 -0.003,2.872693 0.004,0.39973 0.008,0.742657 0.017,1.009758 0.008,0.267113 0.0127,0.435222 0.0326,0.576709 0.0341,0.23886 0.0841,0.465087 0.2036,0.679545 0.1195,0.214448 0.31784,0.396414 0.54829,0.507979 0.46089,0.223125 1.01891,0.258399 1.92133,0.295589 l 0.9989,0.04134 -0.0253,0.889868 -0.0264,0.898136 -0.0651,5.17e-4 0.0134,-0.45682 0.0253,-0.890385 -0.9989,-0.04031 c -0.90243,-0.03721 -1.46042,-0.07241 -1.92133,-0.29559 -0.23045,-0.111565 -0.42931,-0.294048 -0.54881,-0.508496 -0.11952,-0.214458 -0.16899,-0.440686 -0.20309,-0.679545 -0.0199,-0.141487 -0.0248,-0.309596 -0.0325,-0.576709 -0.01,-0.267102 -0.0121,-0.610026 -0.0171,-1.009757 -0.007,-0.799439 -0.008,-1.819564 0.003,-2.872176 l 0.045,-4.268474 z"
       id="path53" /><path
       style="baseline-shift:baseline;display:inline;overflow:visible;vector-effect:none;stroke-linecap:square;stroke-miterlimit:2.2;paint-order:markers stroke fill;enable-background:accumulate;stop-color:#000000"
       d="m 191.50966,32.210246 v 9.985437 9.985437 l 1.57355,-0.03824 1.57406,-0.03772 V 42.195676 32.28517 l -1.57406,-0.03824 z m 0.47336,0.651123 1.08933,0.02481 1.11053,0.02636 v 9.448002 9.447485 l -0.0786,0.0021 V 42.80189 33.354405 l -1.11052,-0.02636 -1.01079,-0.02377 z"
       id="path52" /><path
       style="baseline-shift:baseline;display:inline;overflow:visible;vector-effect:none;stroke-linecap:square;stroke-miterlimit:2.2;paint-order:markers stroke fill;enable-background:accumulate;stop-color:#000000"
       d="m 111.39002,30.005213 c -3.19472,0.190814 -5.94145,1.895912 -7.68377,4.771285 -1.2803,2.112841 -1.80441,4.329993 -1.67018,7.062101 0.13772,2.801805 1.00306,5.100617 2.64273,7.020244 1.45141,1.699207 3.06409,2.708606 5.14801,3.223059 0.58547,0.144423 1.49322,0.200148 2.68614,0.164847 1.49569,-0.04428 1.9971,-0.125778 2.95434,-0.478007 2.08623,-0.767649 3.44888,-1.829006 4.60851,-3.590478 0.70777,-1.075083 1.54488,-2.881357 1.42937,-3.08405 l -5.2e-4,-5.16e-4 v -5.17e-4 c -7e-5,-2.12e-4 -4.5e-4,-0.0014 -5.2e-4,-0.0015 -0.0656,-0.07029 -0.92659,-0.128158 -1.93476,-0.128158 h -1.86242 l -0.30644,0.652157 c -0.49671,1.055304 -1.62293,2.226208 -2.62206,2.726448 -0.8363,0.41872 -1.01797,0.448552 -2.69803,0.448552 -1.74657,0 -1.83298,-0.01641 -2.84324,-0.529684 -2.39547,-1.217027 -3.78168,-3.827456 -3.78168,-7.12463 0,-3.879471 1.97275,-6.835272 5.05809,-7.578865 1.13983,-0.274716 3.01507,-0.129029 4.08812,0.31781 0.99098,0.412656 2.29155,1.704304 2.79621,2.776575 l 0.30903,0.657324 h 1.95182 1.95233 l -0.0966,-0.352433 c -0.0534,-0.193317 -0.33308,-0.831366 -0.62167,-1.419552 -1.88608,-3.843809 -5.22374,-5.787507 -9.50226,-5.531962 z m 0.0253,0.636654 h 0.004 0.003 c 4.12117,-0.246147 7.23145,1.567836 9.04802,5.269962 0.14109,0.287584 0.28176,0.588279 0.3912,0.838192 0.055,0.125604 0.0645,0.159841 0.10025,0.250631 h -0.26355 c -0.0926,-0.204865 -0.19924,-0.429545 -0.30593,-0.646989 -1.81656,-3.702126 -4.92787,-5.515594 -9.04906,-5.269446 h -0.003 l -0.004,-5.17e-4 v 5.17e-4 c -3.04227,0.182396 -5.63335,1.787396 -7.30395,4.544425 -0.68762,1.134738 -1.14665,2.289378 -1.39578,3.549138 0.22402,-1.434001 0.70668,-2.72447 1.47381,-3.990454 1.67062,-2.757029 4.26168,-4.362547 7.30395,-4.544943 z m -6.30762,8.991741 c -0.0823,0.535903 -0.12558,1.093748 -0.12558,1.668115 0,3.429865 1.46707,6.238823 4.04058,7.546309 0.50819,0.258211 0.84095,0.421079 1.27383,0.501779 0.43288,0.08068 0.9091,0.08113 1.78387,0.08113 0.84285,0 1.3238,-0.0053 1.74253,-0.07493 0.41873,-0.06959 0.74204,-0.211309 1.1684,-0.42478 1.13631,-0.568922 2.28187,-1.764326 2.83859,-2.947107 l 0.17777,-0.381889 h 1.56114 c 0.49502,0 0.95567,0.01596 1.29036,0.03824 0.0312,0.0022 0.0439,0.005 0.0729,0.0072 -0.0479,0.129094 -0.10417,0.270817 -0.17467,0.433049 -0.3326,-0.02147 -0.78305,-0.03669 -1.26659,-0.03669 h -1.56115 l -0.17828,0.381889 c -0.55672,1.182782 -1.70227,2.378185 -2.83859,2.947107 -0.42636,0.213471 -0.74915,0.35519 -1.16788,0.42478 -0.41873,0.06958 -0.9002,0.07493 -1.74305,0.07493 -0.87477,0 -1.35099,-4.46e-4 -1.78387,-0.08113 -0.43288,-0.08068 -0.76512,-0.243568 -1.27331,-0.501778 -2.57351,-1.307486 -4.04109,-4.116961 -4.04109,-7.546826 0,-0.733965 0.0707,-1.440308 0.20412,-2.109432 z"
       id="path51" /><path
       style="baseline-shift:baseline;display:inline;overflow:visible;vector-effect:none;fill:#ffffff;stroke-width:1.47343;stroke-linecap:round;stroke-miterlimit:4.4;enable-background:accumulate;stop-color:#000000"
       d="m 125.90058,43.834915 c -0.13595,0.636487 -0.17735,1.314747 -0.11575,1.99626 0.1119,1.238388 0.33263,1.936976 0.87695,2.746086 1.15896,1.72289 3.38046,2.369435 5.47305,1.648478 1.0533,-0.362894 1.88221,-1.036454 2.40554,-1.956986 0.31805,-0.55946 0.52642,-1.20305 0.62838,-1.920297 -0.11578,0.542195 -0.29842,1.037243 -0.54984,1.479497 -0.52333,0.920532 -1.35275,1.594093 -2.40605,1.956986 -2.09259,0.720958 -4.31408,0.0744 -5.47305,-1.648478 -0.54432,-0.809109 -0.76453,-1.508214 -0.87643,-2.746602 -0.0476,-0.526253 -0.034,-1.05042 0.0372,-1.554944 z"
       id="path89" /><path
       style="baseline-shift:baseline;display:inline;overflow:visible;vector-effect:none;fill:#ffffff;stroke-width:1.47343;stroke-linecap:round;stroke-miterlimit:4.4;enable-background:accumulate;stop-color:#000000"
       d="m 177.19048,43.606505 c -0.10843,0.506539 -0.15917,1.063925 -0.15917,1.674316 0,1.334861 0.2626,2.449446 0.83819,3.320211 0.57561,0.870775 1.46169,1.465381 2.57918,1.77922 1.06692,0.299636 2.3105,0.127528 3.42356,-0.428398 1.12794,-0.563335 1.9389,-1.524715 2.32389,-2.748669 0.0679,-0.216039 0.11799,-0.458322 0.15244,-0.717269 -0.0218,0.09591 -0.0467,0.188569 -0.0744,0.276469 -0.38499,1.223955 -1.19595,2.184302 -2.32389,2.747636 -1.11307,0.555926 -2.35613,0.729068 -3.42305,0.429431 -1.11748,-0.313839 -2.00356,-0.908963 -2.57917,-1.779737 -0.57561,-0.870765 -0.83871,-1.985865 -0.83871,-3.320727 0,-0.438073 0.0265,-0.848401 0.0811,-1.232483 z"
       id="path88" /><path
       style="baseline-shift:baseline;display:inline;overflow:visible;vector-effect:none;fill:#ffffff;stroke-width:1.47343;stroke-linecap:round;stroke-miterlimit:4.4;enable-background:accumulate;stop-color:#000000"
       d="m 142.96466,42.902155 c -0.0514,0.211065 -0.0898,0.469407 -0.11266,0.823722 -0.047,0.728213 -0.0603,1.927971 -0.0816,4.262273 l -0.0346,3.876249 h 0.0744 l 0.0388,-4.318083 c 0.0213,-2.334303 0.0346,-3.533543 0.0816,-4.261755 0.009,-0.141864 0.0206,-0.268105 0.0346,-0.382406 z"
       id="path87" /><path
       style="baseline-shift:baseline;display:inline;overflow:visible;vector-effect:none;fill:#ffffff;stroke-width:1.47343;stroke-linecap:round;stroke-miterlimit:4.4;enable-background:accumulate;stop-color:#000000"
       d="m 168.53829,42.831875 c -0.0504,0.204113 -0.0896,0.461878 -0.11265,0.810803 -0.0479,0.72515 -0.0657,1.933755 -0.0977,4.242636 l -0.0563,3.925341 0.0724,-0.0021 0.062,-4.364591 c 0.032,-2.30888 0.0502,-3.518002 0.0982,-4.243152 0.009,-0.136118 0.0207,-0.258464 0.0341,-0.36897 z"
       id="path86" /><path
       style="baseline-shift:baseline;display:inline;overflow:visible;vector-effect:none;fill:#ffffff;stroke-width:1.47343;stroke-linecap:round;stroke-miterlimit:4.4;enable-background:accumulate;stop-color:#000000"
       d="m 159.63289,40.201545 -0.0734,0.0031 -0.045,4.268474 c -0.011,1.052612 -0.0102,2.072737 -0.003,2.872176 0.005,0.399731 0.007,0.742655 0.0171,1.009757 0.008,0.267113 0.0126,0.435222 0.0325,0.576709 0.0341,0.238859 0.0836,0.465087 0.20309,0.679545 0.1195,0.214448 0.31835,0.396931 0.5488,0.508496 0.46091,0.223185 1.0189,0.258379 1.92133,0.29559 l 0.99891,0.04031 -0.0253,0.890385 -0.0134,0.45682 0.0651,-5.17e-4 0.0264,-0.898136 0.0253,-0.889868 -0.99891,-0.04134 c -0.90242,-0.03719 -1.46043,-0.07246 -1.92132,-0.295589 -0.23045,-0.111565 -0.42879,-0.293531 -0.54829,-0.507979 -0.11948,-0.214458 -0.16947,-0.440685 -0.20361,-0.679545 -0.0199,-0.141487 -0.0249,-0.309596 -0.0326,-0.576709 -0.009,-0.267101 -0.0128,-0.610028 -0.0171,-1.009758 -0.008,-0.79944 -0.009,-1.820081 0.003,-2.872693 z"
       id="path85" /><path
       style="baseline-shift:baseline;display:inline;overflow:visible;vector-effect:none;fill:#ffffff;stroke-width:1.47343;stroke-linecap:round;stroke-miterlimit:4.4;enable-background:accumulate;stop-color:#000000"
       d="m 105.10805,39.633104 c -0.13356,0.669284 -0.20412,1.375786 -0.20412,2.109949 0,3.429865 1.46759,6.23934 4.0411,7.546826 0.50819,0.25821 0.84043,0.421101 1.27331,0.501778 0.43288,0.08069 0.9091,0.08113 1.78387,0.08113 0.84285,0 1.32431,-0.0054 1.74304,-0.07493 0.41873,-0.06959 0.74153,-0.211309 1.16789,-0.42478 1.13632,-0.568922 2.28187,-1.764325 2.83859,-2.947107 l 0.17828,-0.381889 h 1.56115 c 0.48354,0 0.93399,0.01522 1.26659,0.03669 0.0705,-0.162232 0.12673,-0.303955 0.17466,-0.433049 -0.029,-0.0022 -0.0417,-0.005 -0.0729,-0.0072 -0.33469,-0.02228 -0.79534,-0.03824 -1.29036,-0.03824 H 118.008 l -0.17776,0.381889 c -0.55672,1.182781 -1.70228,2.378185 -2.83859,2.947107 -0.42636,0.213471 -0.74967,0.355189 -1.1684,0.42478 -0.41873,0.06959 -0.89968,0.07493 -1.74253,0.07493 -0.87477,0 -1.35099,-4.56e-4 -1.78387,-0.08113 -0.43288,-0.0807 -0.76564,-0.243568 -1.27383,-0.501779 -2.57351,-1.307486 -4.04058,-4.116444 -4.04058,-7.546309 0,-0.574547 0.043,-1.132575 0.12557,-1.668632 z"
       id="path84" /><path
       style="baseline-shift:baseline;display:inline;overflow:visible;vector-effect:none;fill:#ffffff;stroke-width:1.47343;stroke-linecap:round;stroke-miterlimit:4.4;enable-background:accumulate;stop-color:#000000"
       d="m 155.55769,37.813577 v 0.441317 h 0.31626 1.32912 l 0.01,-0.441317 h -1.26038 z"
       id="path83" /><path
       style="baseline-shift:baseline;display:inline;overflow:visible;vector-effect:none;fill:#ffffff;stroke-width:1.47343;stroke-linecap:round;stroke-miterlimit:4.4;enable-background:accumulate;stop-color:#000000"
       d="m 181.80208,37.666299 c -0.76256,2e-6 -1.62724,0.09252 -2.01073,0.19482 -2.75699,0.735665 -4.59245,3.067292 -4.99453,5.799646 0.52599,-2.539584 2.3086,-4.662079 4.91598,-5.357812 0.3835,-0.102257 1.24816,-0.195337 2.01073,-0.195337 2.1859,0 3.63897,0.568883 5.03897,1.952852 1.26844,1.253921 1.88892,2.693017 2.0066,4.711857 0.0369,0.633518 0.0109,1.240986 -0.0744,1.81746 0.14559,-0.70503 0.19893,-1.461346 0.15245,-2.258776 -0.11768,-2.01884 -0.73867,-3.457937 -2.00711,-4.711858 -1.39999,-1.383963 -2.85206,-1.952846 -5.03794,-1.952852 z"
       id="path82" /><path
       style="baseline-shift:baseline;display:inline;overflow:visible;vector-effect:none;fill:#ffffff;stroke-width:1.47343;stroke-linecap:round;stroke-miterlimit:4.4;enable-background:accumulate;stop-color:#000000"
       d="m 130.49824,37.661599 c -0.72037,0.01123 -1.45067,0.08898 -1.86087,0.198954 -2.72946,0.73189 -4.57829,2.951823 -4.98781,5.7304 0.53188,-2.570759 2.32591,-4.596358 4.90926,-5.289083 0.41021,-0.109974 1.141,-0.188274 1.86138,-0.199471 0.72026,-0.0112 1.45096,0.04467 1.86036,0.141594 2.28891,0.541789 4.03539,2.070247 4.84725,4.23695 0.33311,0.889029 0.47285,3.04165 0.30799,4.319116 0.27515,-1.149502 0.14611,-3.758643 -0.22945,-4.760949 -0.81187,-2.166703 -2.55833,-3.694646 -4.84725,-4.236434 -0.4094,-0.09693 -1.14059,-0.152272 -1.86086,-0.141077 z"
       id="path81" /><path
       style="baseline-shift:baseline;display:inline;overflow:visible;vector-effect:none;fill:#ffffff;stroke-width:1.47343;stroke-linecap:round;stroke-miterlimit:4.4;enable-background:accumulate;stop-color:#000000"
       d="m 147.40625,37.588219 c -0.93805,0.0052 -1.80632,0.226691 -2.82722,0.720369 l -1.75338,0.846977 v -1.286743 -0.05529 h -1.06609 -1.06763 v 0.441833 h 0.98909 1.06608 v 0.05529 1.286743 l 1.75338,-0.847493 c 1.02101,-0.493744 1.88903,-0.714277 2.82722,-0.719853 h 0.001 c 0.3128,-0.0011 0.63511,0.0205 0.97255,0.06821 1.84579,0.261032 3.2587,1.192169 3.99356,2.570903 0.35855,0.672717 0.52656,1.086025 0.63303,2.061889 0.10658,0.975864 0.12758,2.496788 0.12868,5.199166 l 0.003,3.929993 0.0775,0.0021 -0.002,-4.373377 c -9.1e-4,-2.702377 -0.0226,-4.222784 -0.12919,-5.198649 -0.10647,-0.975864 -0.27398,-1.38969 -0.63252,-2.062406 -0.73487,-1.378734 -2.14778,-2.309871 -3.99356,-2.570903 -0.33732,-0.0477 -0.65985,-0.06978 -0.97255,-0.06873 h -5.2e-4 z"
       id="path80" /><path
       style="baseline-shift:baseline;display:inline;overflow:visible;vector-effect:none;fill:#ffffff;stroke-width:1.47343;stroke-linecap:round;stroke-miterlimit:4.4;enable-background:accumulate;stop-color:#000000"
       d="m 172.8941,37.586119 c -0.13411,0.0026 -0.34689,0.01927 -0.74518,0.07286 -1.02082,0.13737 -1.87297,0.458991 -2.71818,1.022677 l -1.23713,0.825273 0.0791,-1.404566 c 0.006,-0.110643 0.005,-0.150359 0.006,-0.256832 -0.21432,-0.01954 -0.55082,-0.03204 -1.07694,-0.03204 h -1.06505 v 0.441833 h 0.98702 c 0.52611,0 0.86209,0.01249 1.07642,0.03204 -0.002,0.106472 4.7e-4,0.146189 -0.006,0.256832 l -0.0796,1.404565 1.23662,-0.825273 c 0.84521,-0.563687 1.69737,-0.885305 2.71818,-1.022676 0.39826,-0.05364 0.61158,-0.07116 0.74569,-0.07338 0.006,0.06816 0.0164,0.129613 0.0207,0.223242 0.0143,0.284379 0.0195,0.665037 0.0109,1.059367 l -0.0134,0.607715 0.0677,-0.0052 0.0238,-1.043864 c 0.009,-0.39433 0.003,-0.774989 -0.0108,-1.059367 -0.005,-0.09361 -0.013,-0.155095 -0.0196,-0.223242 z"
       id="path79" /><path
       style="baseline-shift:baseline;display:inline;overflow:visible;vector-effect:none;fill:#ffffff;stroke-width:1.47343;stroke-linecap:round;stroke-miterlimit:4.4;enable-background:accumulate;stop-color:#000000"
       d="m 159.56623,34.334121 -1.08882,0.02584 -1.12086,0.02739 -0.0103,0.439767 1.05265,-0.02584 1.08882,-0.02584 5.2e-4,1.257288 v 2.20555 l 2.30477,0.04496 1.37666,0.0279 v 0.876432 0.44235 l 0.0775,-0.0031 v -0.880567 -0.877465 l -1.37666,-0.02739 -2.30425,-0.04496 v -2.206067 z"
       id="path78" /><path
       style="baseline-shift:baseline;display:inline;overflow:visible;vector-effect:none;fill:#ffffff;stroke-width:1.47343;stroke-linecap:round;stroke-miterlimit:4.4;enable-background:accumulate;stop-color:#000000"
       d="m 191.98337,32.861342 v 0.442867 l 1.01079,0.02377 1.11053,0.02636 v 9.447485 9.008236 l 0.0786,-0.0021 v -9.447485 -9.448002 l -1.11053,-0.02636 z"
       id="path77" /><path
       style="baseline-shift:baseline;display:inline;overflow:visible;vector-effect:none;fill:#ffffff;stroke-width:1.47343;stroke-linecap:round;stroke-miterlimit:4.4;enable-background:accumulate;stop-color:#000000"
       d="m 111.41568,30.64184 v 5.16e-4 c -3.04227,0.182396 -5.63333,1.787914 -7.30395,4.544943 -0.76713,1.265984 -1.24979,2.556453 -1.47381,3.990454 0.24913,-1.25976 0.70816,-2.4144 1.39578,-3.549138 1.6706,-2.757029 4.26168,-4.362029 7.30395,-4.544425 v -5.17e-4 l 0.004,5.17e-4 h 0.003 c 4.12119,-0.246148 7.2325,1.56732 9.04906,5.269446 0.10669,0.217444 0.21278,0.442124 0.3054,0.646989 h 0.26355 c -0.0357,-0.09079 -0.0453,-0.125027 -0.10025,-0.250631 -0.10944,-0.249913 -0.24958,-0.550608 -0.39067,-0.838192 -1.81657,-3.702126 -4.92738,-5.516109 -9.04855,-5.269962 h -0.003 z"
       id="path76" /></g><g
     id="g90"
     transform="matrix(0.64483202,0,0,0.64483202,-32.347601,-0.89934489)"
     inkscape:label="Web"><path
       style="baseline-shift:baseline;display:inline;overflow:visible;opacity:1;vector-effect:none;fill:#ffffff;stroke-linecap:square;stroke-miterlimit:2.2;paint-order:markers stroke fill;enable-background:accumulate;stop-color:#000000;stop-opacity:1;fill-opacity:1"
       d="m 126.90802,26.896549 -4.05247,4.732011 0.91984,0.814421 c 0,0 0.52523,0.45128 1.17564,1.566829 0.64275,1.102413 1.33077,2.792037 1.49603,5.122685 -0.0925,2.057428 -0.53307,3.570842 -0.96066,4.609538 l -7.81658,-8.984465 -7.72666,8.886796 c -0.4823,-1.048535 -0.97508,-2.5269 -0.9493,-4.564579 0.0435,-3.436517 2.73834,-6.72052 2.73834,-6.72052 l 0.70538,-0.818555 -3.96875,-4.573881 -0.94568,0.831991 c 0,0 -4.81693,4.343633 -4.49223,12.365137 0.32724,8.084686 6.06836,12.377022 6.06836,12.377022 l 0.92657,0.659908 c 2.61752,-2.949454 5.16026,-6.005337 7.72872,-9.019604 l 7.79694,8.971028 0.93741,-0.751892 c 0,0 4.08943,-3.331075 5.43946,-8.955526 -0.0439,1.043758 4.7e-4,2.10581 0.21084,2.998267 0.79722,3.38217 3.45948,5.918952 6.83214,6.451286 h 0.002 5.2e-4 c 0.002,3.89e-4 0.005,7.13e-4 0.007,10e-4 l 0.0884,0.01447 h 0.008 c 1.33663,0.190761 3.00549,0.06057 4.28242,-0.33383 1.4022,-0.433099 2.75406,-1.333836 3.65611,-2.467033 0.67971,-0.853888 1.27062,-1.989615 1.5565,-3.034957 v 5.603276 l 2.79311,0.06873 2.8515,0.06821 v -0.79685 c 0.68592,0.326348 1.38714,0.748944 2.02934,0.855245 h 5.1e-4 c 0.001,1.22e-4 0.003,-1.83e-4 0.004,0 h 5.1e-4 5.2e-4 l 5.2e-4,0.001 h 5.1e-4 l 0.0956,0.01654 h 0.007 c 1.03243,0.162336 1.79778,0.161607 2.83394,-0.0026 3.22774,-0.511355 5.7937,-3.02836 6.64455,-6.355168 0.39045,-1.526373 0.42025,-3.412823 0.0641,-4.92373 -1.00715,-4.272803 -4.8927,-6.988656 -9.23406,-6.443535 -0.82148,0.103146 -1.61607,0.586132 -2.43344,0.968934 -0.006,-0.438411 -0.014,-0.824895 -0.014,-1.353923 v -4.497917 l -2.8515,0.06873 -2.79311,0.06615 v 11.131103 0.470256 c -0.25714,-1.754562 -0.8175,-3.31554 -2.04484,-4.542875 -1.57178,-1.571785 -3.60313,-2.345436 -6.0079,-2.355412 -2.5335,-0.01049 -4.64241,0.804129 -6.25957,2.48822 -0.93999,0.978906 -1.57646,2.186648 -1.98231,3.549137 0.0411,-0.492137 0.12173,-0.961149 0.11318,-1.480529 -0.12721,-7.723482 -4.53151,-11.894881 -4.53151,-11.894881 z m 0.10232,1.801958 c 0,0 4.01281,3.729064 4.13256,10.999845 0.11975,7.27078 -5.43533,11.72745 -5.43533,11.72745 l -7.96127,-9.161198 -7.90133,9.272302 c 0,0 -5.26114,-3.903499 -5.56555,-11.424109 -0.30442,-7.52061 4.07107,-11.37605 4.07107,-11.37605 l 2.435,2.807581 c 0,0 -2.99048,3.475837 -3.04168,7.519437 -0.0512,4.043601 1.95905,6.760311 1.95905,6.760311 l 7.96748,-9.161198 8.09201,9.299174 c 0,0 1.77367,-2.568675 1.9451,-6.837308 -0.33587,-5.166169 -3.10265,-7.61659 -3.10265,-7.61659 z m 25.95913,2.864941 v 3.217375 c 0,1.770076 0.0368,3.218925 0.0806,3.218925 0.0439,0 0.24926,-0.121588 0.45734,-0.269751 0.84296,-0.600233 2.35398,-1.203408 3.31401,-1.32395 3.76921,-0.47328 6.98529,1.772162 7.86153,5.489587 0.28778,1.22096 0.26334,3.071392 -0.0579,4.326868 -0.74082,2.896622 -2.92395,5.003143 -5.62911,5.431709 -1.00397,0.15903 -1.51801,0.154899 -2.54351,-0.01447 h -0.001 c -0.7472,-0.12368 -1.87875,-0.608337 -2.91196,-1.249019 l -0.57,-0.353467 v 0.747758 0.749308 l -1.57303,-0.03772 -1.57303,-0.03824 v -9.909473 -9.910506 l 1.57303,-0.03824 z m -12.4535,4.807459 c 2.16867,0.009 3.76942,0.630074 5.12889,1.989542 1.44102,1.441015 1.9999,3.007515 1.9389,5.433777 l -0.0377,1.503784 -5.60172,0.03462 -5.60121,0.03617 0.0941,0.433048 c 0.23287,1.078939 1.10361,2.138487 2.20348,2.680974 0.80655,0.39781 2.88314,0.428911 3.63596,0.05426 0.65649,-0.326718 1.36239,-1.053434 1.65519,-1.702738 l 0.2403,-0.531751 h 1.66811 1.66915 l -0.0894,0.353984 c -0.17695,0.705081 -0.84812,2.004571 -1.38079,2.673738 -0.68539,0.861019 -1.95118,1.713494 -3.04736,2.052071 -1.00641,0.310846 -2.78749,0.440041 -3.82302,0.276986 h -0.001 c -2.87916,-0.45444 -5.12169,-2.577565 -5.81101,-5.50199 -0.26422,-1.120877 -0.26458,-3.323099 -5.2e-4,-4.345988 0.34665,-1.34288 0.93406,-2.427553 1.80661,-3.33623 1.40637,-1.464574 3.05783,-2.113764 5.35316,-2.104264 z m 2.02401,10.207129 c -0.24371,0.31406 -0.57996,0.719973 -0.82062,0.839743 0.0464,-0.02307 -0.62112,0.141796 -1.22266,0.132808 -0.60153,-0.009 -1.27165,-0.173288 -1.30483,-0.189653 -0.34773,-0.171511 -0.65783,-0.454506 -0.91984,-0.755509 l 3.67988,-0.02377 z"
       id="path16" /><path
       style="baseline-shift:baseline;display:inline;overflow:visible;opacity:1;vector-effect:none;fill:#aaaaaa;stroke-linecap:square;stroke-miterlimit:2.2;paint-order:markers stroke fill;enable-background:accumulate;stop-color:#000000;stop-opacity:1"
       d="m 147.10921,43.948223 -0.0284,1.043864 h 5.2e-4 z"
       id="path15" /><path
       style="baseline-shift:baseline;display:inline;overflow:visible;opacity:1;vector-effect:none;fill:#aaaaaa;stroke-linecap:square;stroke-miterlimit:2.2;paint-order:markers stroke fill;enable-background:accumulate;stop-color:#000000;stop-opacity:1"
       d="m 135.80448,43.193747 -0.12248,0.441317 h 5.2e-4 l 0.12247,-0.441317 z"
       id="path14" /><path
       style="baseline-shift:baseline;display:inline;overflow:visible;opacity:1;vector-effect:none;fill:#ffffff;stroke-linecap:square;stroke-miterlimit:2.2;paint-order:markers stroke fill;enable-background:accumulate;stop-color:#000000;stop-opacity:1;fill-opacity:1"
       d="m 140.23692,39.221379 c -1.04164,0.01278 -1.81734,0.330345 -2.57297,1.037146 -0.70399,0.658497 -0.9246,1.005852 -1.1405,1.792138 l -0.13901,0.502295 h 4.02404 4.02353 l -0.0816,-0.412378 c -0.33578,-1.678907 -1.72069,-2.782412 -3.6499,-2.907316 -0.16042,-0.01038 -0.31473,-0.01378 -0.46354,-0.01188 z m 0.015,1.249014 h 0.002 c 0.11872,-0.0015 0.23889,0.0016 0.36535,0.0098 0.89031,0.05764 1.45849,0.379251 1.87689,0.822173 h -2.08824 -1.97663 c 0.0546,-0.05122 0.017,-0.06593 0.0863,-0.130742 0.58036,-0.542861 0.93901,-0.691495 1.73426,-0.701249 z"
       id="path13" /><path
       style="baseline-shift:baseline;display:inline;overflow:visible;opacity:1;vector-effect:none;fill:#aaaaaa;stroke-linecap:square;stroke-miterlimit:2.2;paint-order:markers stroke fill;enable-background:accumulate;stop-color:#000000;stop-opacity:1"
       d="m 161.98117,45.570863 c -0.0342,0.159153 -0.0785,0.312413 -0.12454,0.464571 0.0455,-0.150093 0.0896,-0.30096 0.12351,-0.457853 3.2e-4,-0.0022 7.5e-4,-0.0045 0.001,-0.0067 z"
       id="path12" /><path
       style="baseline-shift:baseline;display:inline;overflow:visible;opacity:1;vector-effect:none;fill:#aaaaaa;stroke-linecap:square;stroke-miterlimit:2.2;paint-order:markers stroke fill;enable-background:accumulate;stop-color:#000000;stop-opacity:1"
       d="m 152.51043,43.684673 c -0.0193,0.259253 -0.0269,0.565086 -0.0269,0.949296 0,1.245414 0.0728,1.667956 0.39223,2.349211 0.32745,0.698339 0.77643,1.327099 1.29242,1.790588 -0.51586,-0.463463 -0.96452,-1.092385 -1.29191,-1.790588 -0.31942,-0.681255 -0.39222,-1.103797 -0.39222,-2.349211 0,-0.384159 0.007,-0.690025 0.0264,-0.949296 z"
       id="path11" /><path
       style="baseline-shift:baseline;display:inline;overflow:visible;opacity:1;vector-effect:none;fill:#aaaaaa;stroke-linecap:square;stroke-miterlimit:2.2;paint-order:markers stroke fill;enable-background:accumulate;stop-color:#000000;stop-opacity:1"
       d="m 152.60913,43.01443 c -0.0485,0.198316 -0.0794,0.41099 -0.0987,0.670243 0.0192,-0.25927 0.0503,-0.471946 0.0987,-0.670243 z"
       id="path10" /><path
       style="baseline-shift:baseline;display:inline;overflow:visible;opacity:1;vector-effect:none;fill:#ffffff;stroke-linecap:square;stroke-miterlimit:2.2;paint-order:markers stroke fill;enable-background:accumulate;stop-color:#000000;stop-opacity:1;fill-opacity:1"
       d="m 157.30306,39.250829 c -0.64205,0.0034 -1.28109,0.134349 -1.81023,0.393775 -0.90892,0.445611 -1.62437,1.20215 -2.10271,2.222603 -0.31086,0.663311 -0.35347,0.919244 -0.35347,2.158524 0,1.23468 0.042,1.496602 0.34779,2.148707 0.4021,0.857526 1.02279,1.608341 1.64796,1.99471 1.10398,0.682308 2.85569,0.807334 4.03748,0.286804 1.76398,-0.77696 2.70334,-2.549761 2.57193,-4.854484 -0.10908,-1.912791 -0.9477,-3.24112 -2.51147,-3.975985 -0.54002,-0.25377 -1.18523,-0.378054 -1.82728,-0.374654 z m 0.007,1.249024 c 0.47632,-0.0025 0.95399,0.10028 1.28933,0.257865 1.19469,0.561425 1.7045,1.331983 1.79472,2.914034 0.11006,1.930351 -0.5559,3.080394 -1.82779,3.640605 -0.69721,0.307095 -2.2183,0.200098 -2.87735,-0.207223 -0.32387,-0.200157 -0.86232,-0.797121 -1.17357,-1.460893 -0.26983,-0.575475 -0.22841,-0.412703 -0.22841,-1.619022 0,-1.210641 -0.043,-1.035615 0.2341,-1.626774 0.37581,-0.80171 0.88174,-1.317333 1.52135,-1.630909 0.32126,-0.157507 0.79116,-0.265166 1.26762,-0.267683 z"
       id="path9" /><path
       style="baseline-shift:baseline;display:inline;overflow:visible;opacity:1;vector-effect:none;fill:#aaaaaa;stroke-linecap:square;stroke-miterlimit:2.2;paint-order:markers stroke fill;enable-background:accumulate;stop-color:#000000;stop-opacity:1"
       d="m 126.81485,45.162102 c -0.36815,0.801406 -0.6656,1.234033 -0.6656,1.234033 l -0.34468,0.501262 v 5.17e-4 h 5.2e-4 l 0.34468,-0.501779 c 0,0 0.29718,-0.433364 0.66508,-1.234033 z"
       id="path8" /><path
       style="baseline-shift:baseline;display:inline;overflow:visible;opacity:1;vector-effect:none;fill:#aaaaaa;stroke-linecap:square;stroke-miterlimit:2.2;paint-order:markers stroke fill;enable-background:accumulate;stop-color:#000000;stop-opacity:1"
       d="m 127.39465,43.881043 c -0.0705,0.226138 -0.14434,0.375556 -0.21755,0.577743 0.0732,-0.202324 0.147,-0.351444 0.21755,-0.577743 z"
       id="path7" /><path
       style="baseline-shift:baseline;display:inline;overflow:visible;opacity:1;vector-effect:none;fill:#aaaaaa;stroke-linecap:square;stroke-miterlimit:2.2;paint-order:markers stroke fill;enable-background:accumulate;stop-color:#000000;stop-opacity:1"
       d="m 127.83699,42.047047 c -0.002,0.0076 -0.004,0.0131 -0.006,0.02067 -0.001,0.0061 -0.003,0.01199 -0.005,0.01809 -0.12145,0.561932 -0.26313,1.078823 -0.41341,1.539958 0.14219,-0.436484 0.2749,-0.927428 0.39171,-1.454692 -0.0389,0.153338 -0.0802,0.302172 -0.11679,0.463021 0.0465,-0.204597 0.10127,-0.387878 0.14882,-0.587044 z"
       id="path6" /><path
       style="baseline-shift:baseline;display:inline;overflow:visible;opacity:1;vector-effect:none;fill:#aaaaaa;stroke-linecap:square;stroke-miterlimit:2.2;paint-order:markers stroke fill;enable-background:accumulate;stop-color:#000000;stop-opacity:1"
       d="m 127.89279,41.765927 c -0.0193,0.09913 -0.0388,0.196637 -0.0594,0.293005 0.0168,-0.07083 0.0322,-0.143579 0.0465,-0.220141 0.005,-0.02472 0.01,-0.04952 0.0145,-0.07441 -0.003,0.01866 -0.007,0.03501 -0.0109,0.05323 0.003,-0.01715 0.006,-0.03412 0.009,-0.05168 z"
       id="path5" /><path
       style="baseline-shift:baseline;display:inline;overflow:visible;opacity:1;vector-effect:none;fill:#aaaaaa;stroke-linecap:square;stroke-miterlimit:2.2;paint-order:markers stroke fill;enable-background:accumulate;stop-color:#000000;stop-opacity:1"
       d="m 127.89579,41.752487 c -6.1e-4,0.0021 -0.001,0.0048 -0.002,0.0072 -3.5e-4,0.0021 -6.8e-4,0.0041 -10e-4,0.0062 4.1e-4,-0.0021 10e-4,-0.0041 0.002,-0.0062 3.6e-4,-0.0024 5.6e-4,-0.0051 0.001,-0.0072 z"
       id="path4" /><path
       style="baseline-shift:baseline;display:inline;overflow:visible;opacity:1;vector-effect:none;fill:#aaaaaa;stroke-linecap:square;stroke-miterlimit:2.2;paint-order:markers stroke fill;enable-background:accumulate;stop-color:#000000;stop-opacity:1"
       d="m 127.90279,41.724067 c -0.002,0.01089 -0.005,0.01856 -0.007,0.02842 10e-4,-0.0048 0.003,-0.0089 0.004,-0.01395 9.2e-4,-0.0048 0.002,-0.0097 0.003,-0.01447 z"
       id="path3" /><path
       style="baseline-shift:baseline;display:inline;overflow:visible;opacity:1;vector-effect:none;fill:#aaaaaa;stroke-linecap:square;stroke-miterlimit:2.2;paint-order:markers stroke fill;enable-background:accumulate;stop-color:#000000;stop-opacity:1"
       d="m 107.24823,38.729419 c -0.0331,0.304964 -0.0529,0.616629 -0.0568,0.93431 -0.0531,4.203224 2.05155,7.049193 2.05155,7.049182 l 0.35192,0.473873 5.2e-4,-5.17e-4 -0.35192,-0.473356 c 0,1.1e-5 -2.10465,-2.845958 -2.05155,-7.049182 0.004,-0.317628 0.0233,-0.629322 0.0563,-0.93431 z"
       id="path2" /><path
       style="baseline-shift:baseline;display:inline;overflow:visible;opacity:1;vector-effect:none;fill:#aaaaaa;stroke-linecap:square;stroke-miterlimit:2.2;paint-order:markers stroke fill;enable-background:accumulate;stop-color:#000000;stop-opacity:1"
       d="m 117.6693,37.55068 -7.99589,9.194787 7.99641,-9.194271 z"
       id="path1" /><path
       style="baseline-shift:baseline;display:inline;overflow:visible;opacity:1;vector-effect:none;stroke-linecap:square;stroke-miterlimit:2.2;paint-order:markers stroke fill;enable-background:accumulate;stop-color:#000000;stop-opacity:1"
       d="m 140.5158,36.370711 c -2.29533,-0.0095 -3.94679,0.63969 -5.35316,2.104264 -0.87255,0.908677 -1.45996,1.99335 -1.80661,3.33623 -0.26406,1.022889 -0.2637,3.225111 5.2e-4,4.345988 0.68932,2.924425 2.93185,5.04755 5.81101,5.50199 h 0.001 c 1.03553,0.163055 2.81661,0.03386 3.82302,-0.276986 1.09618,-0.338577 2.36197,-1.191052 3.04736,-2.052071 0.53267,-0.669167 1.20384,-1.968657 1.38079,-2.673738 l 0.0894,-0.353984 h -1.66914 -1.66812 l -0.2403,0.531751 c -0.2928,0.649304 -0.9987,1.37602 -1.65519,1.702738 -0.75282,0.374651 -2.82941,0.34355 -3.63596,-0.05426 -1.09987,-0.542487 -1.97061,-1.602035 -2.20348,-2.680974 l -0.0941,-0.433048 5.60121,-0.03617 5.60172,-0.03462 0.0377,-1.503784 c 0.061,-2.426262 -0.49788,-3.992762 -1.9389,-5.433777 -1.35947,-1.359468 -2.96022,-1.980546 -5.12889,-1.989542 z m -0.002,0.639754 h 5.1e-4 c 2.0787,0.009 3.51627,0.571224 4.79506,1.850016 1.36301,1.363015 1.85992,2.739126 1.80092,5.087545 l -0.0284,1.043864 -0.0661,5.17e-4 0.016,-0.603064 c 0.0591,-2.348418 -0.4379,-3.724529 -1.80092,-5.087545 -1.279,-1.279001 -2.71633,-1.841733 -4.79557,-1.850533 -2.20507,-0.0099 -3.68405,0.578675 -5.01055,1.960087 -0.81574,0.849503 -1.35907,1.848145 -1.68879,3.12539 -0.001,0.009 -0.004,0.01809 -0.006,0.02739 0.0235,-0.181387 0.0516,-0.340499 0.0848,-0.468705 0.32971,-1.277245 0.87358,-2.275888 1.6893,-3.125391 1.32631,-1.381201 2.80503,-1.968772 5.00952,-1.95957 z m -0.27699,2.210718 c 0.14881,-0.0019 0.30312,0.0015 0.46354,0.01188 1.92921,0.124904 3.31412,1.228409 3.6499,2.907316 l 0.0816,0.412378 h -4.02352 -4.02405 l 0.13901,-0.502295 c 0.2159,-0.786286 0.43651,-1.133641 1.1405,-1.792138 0.75563,-0.706801 1.53133,-1.024369 2.57297,-1.037146 z m -4.43125,3.972372 h 4.60385 4.43435 l 0.0879,0.441317 h -4.60075 -4.64778 z m 0.0455,2.311487 0.12299,0.562756 c 0.27073,1.254349 1.22637,2.399172 2.4567,3.006018 0.54355,0.268103 1.284,0.353109 2.0407,0.364319 0.7567,0.0112 1.47885,-0.04403 2.01538,-0.311092 0.7858,-0.391069 1.52012,-1.142235 1.87586,-1.931148 l 0.11575,-0.253215 h 1.36116 0.99994 c -0.0443,0.130412 -0.10273,0.280479 -0.17053,0.441317 h -0.90744 -1.36168 l -0.11524,0.253214 c -0.35576,0.788913 -1.09058,1.540595 -1.87637,1.931665 -0.53655,0.267056 -1.25816,0.321259 -2.01486,0.310059 -0.7567,-0.0112 -1.49765,-0.09569 -2.04122,-0.363802 -1.23032,-0.606845 -2.18545,-1.751152 -2.45618,-3.005501 l -0.21911,-1.003557 z"
       id="path50" /><path
       style="baseline-shift:baseline;display:inline;overflow:visible;opacity:1;vector-effect:none;stroke-linecap:square;stroke-miterlimit:2.2;paint-order:markers stroke fill;enable-background:accumulate;stop-color:#000000;stop-opacity:1"
       d="m 152.96931,31.563252 -1.57303,0.03669 -1.57304,0.03824 v 9.910506 9.909473 l 1.57304,0.03824 1.57303,0.03772 v -0.749308 -0.747758 l 0.56999,0.353467 c 1.03321,0.640682 2.16476,1.125339 2.91196,1.249019 h 0.001 c 1.0255,0.169366 1.53954,0.173499 2.54351,0.01447 2.70516,-0.428566 4.8883,-2.535087 5.62912,-5.431709 0.32116,-1.255476 0.34565,-3.105908 0.0579,-4.326868 -0.87624,-3.717425 -4.09232,-5.962867 -7.86153,-5.489587 -0.96003,0.120542 -2.47105,0.723717 -3.31401,1.32395 -0.20808,0.148163 -0.41345,0.269751 -0.45734,0.269751 -0.0438,0 -0.0806,-1.448849 -0.0806,-3.218925 z m -0.47284,0.651123 0.001,2.7311 c 0,0.888304 0.009,1.695672 0.0238,2.285131 0.008,0.294729 0.0158,0.534506 0.0258,0.707968 0.005,0.08671 0.009,0.156621 0.017,0.218591 0.003,0.03096 0.008,0.05674 0.0191,0.102836 0.005,0.02306 0.008,0.04858 0.0367,0.10697 0.007,0.01459 0.0167,0.0331 0.03,0.05374 0.0134,0.02064 0.0596,0.07253 0.0599,0.07286 3.4e-4,3.5e-4 0.12213,0.09228 0.12247,0.0925 3.4e-4,1.7e-4 0.21825,0.05323 0.21859,0.05323 0.2302,0 0.21702,-0.04535 0.26562,-0.06873 0.0486,-0.02339 0.095,-0.04791 0.14418,-0.077 0.0984,-0.05818 0.20897,-0.130693 0.32298,-0.211873 0.74725,-0.532085 2.27132,-1.135847 3.09852,-1.239718 3.55241,-0.446062 6.51348,1.620878 7.34012,5.127853 0.24397,1.039813 0.23892,2.713651 -0.004,3.869014 0.16281,-1.110765 0.14002,-2.51307 -0.0755,-3.426664 -0.82663,-3.506976 -3.78772,-5.574432 -7.34012,-5.128369 -0.8272,0.103837 -2.35075,0.707116 -3.098,1.239201 -0.11401,0.08123 -0.22509,0.15421 -0.32349,0.21239 -0.0491,0.02909 -0.0956,0.05362 -0.14418,0.077 -0.0486,0.02337 -0.0355,0.06873 -0.26562,0.06873 -3.4e-4,0 -0.21825,-0.05404 -0.21859,-0.05426 -3.4e-4,-2.1e-4 -0.12214,-0.09114 -0.12247,-0.09147 -4e-4,-3.3e-4 -0.0466,-0.05171 -0.0599,-0.07235 -0.0134,-0.02063 -0.024,-0.03966 -0.03,-0.05426 -0.0284,-0.05839 -0.0312,-0.08391 -0.0362,-0.106971 -0.0121,-0.0461 -0.0151,-0.07189 -0.0191,-0.102836 -0.008,-0.06202 -0.0126,-0.131354 -0.0176,-0.218074 -0.01,-0.173461 -0.0178,-0.413237 -0.0258,-0.707967 -0.0143,-0.589459 -0.0232,-1.397344 -0.0232,-2.285649 v -2.731616 l -1.08986,0.02532 -1.03146,0.02481 v -0.439766 l 1.11001,-0.02636 z m 4.80648,7.036268 c 0.64205,-0.0034 1.28726,0.120884 1.82728,0.374654 1.56377,0.734865 2.40239,2.063194 2.51147,3.975985 0.13141,2.304723 -0.80795,4.077524 -2.57193,4.854484 -1.18179,0.52053 -2.9335,0.395504 -4.03748,-0.286804 -0.62517,-0.386369 -1.24586,-1.137184 -1.64796,-1.99471 -0.30576,-0.652105 -0.34778,-0.914027 -0.34778,-2.148707 0,-1.23928 0.0426,-1.495213 0.35346,-2.158524 0.47834,-1.020453 1.1938,-1.776992 2.10272,-2.222603 0.52914,-0.259426 1.16817,-0.390383 1.81022,-0.393775 z m -4.69222,3.759461 c -0.0361,0.306819 -0.0481,0.67658 -0.0481,1.182356 0,1.245414 0.0728,1.667955 0.39223,2.349211 0.43653,0.930937 1.08956,1.73834 1.82883,2.195215 1.27264,0.786541 3.11036,0.919178 4.47569,0.31781 1.4362,-0.632586 2.38055,-1.88878 2.72283,-3.484025 -0.25352,1.80393 -1.2342,3.235536 -2.80034,3.925342 -1.36532,0.601368 -3.2041,0.468732 -4.47673,-0.31781 -0.73927,-0.456874 -1.39179,-1.264277 -1.82831,-2.195215 -0.31947,-0.681255 -0.39223,-1.103797 -0.39223,-2.349211 0,-0.770931 0.0284,-1.226123 0.12609,-1.623673 z m -0.19272,6.781498 0.078,0.04909 v 1.108977 0.263033 l -0.078,-0.0016 z"
       id="path49" /><path
       style="baseline-shift:baseline;display:inline;overflow:visible;opacity:1;vector-effect:none;stroke-linecap:square;stroke-miterlimit:2.2;paint-order:markers stroke fill;enable-background:accumulate;stop-color:#000000;stop-opacity:1"
       d="m 127.01021,28.698309 -2.40554,2.809647 c 0,0 2.76678,2.450421 3.10265,7.61659 -0.17143,4.268633 -1.9451,6.837308 -1.9451,6.837308 l -8.09201,-9.299174 -7.96747,9.161198 c 0,0 -2.01021,-2.71671 -1.95906,-6.760311 0.0512,-4.0436 3.04168,-7.519437 3.04168,-7.519437 l -2.435,-2.807581 c 0,0 -4.37549,3.85544 -4.07107,11.37605 0.30441,7.52061 5.56556,11.424109 5.56556,11.424109 l 7.90132,-9.272302 7.96127,9.161198 c 0,0 5.55508,-4.45667 5.43533,-11.72745 -0.11975,-7.270781 -4.13256,-10.999845 -4.13256,-10.999845 z m -0.0233,0.922424 c 0.50664,0.50494 3.57508,3.697623 3.68298,10.251571 0.0169,1.025291 -0.0772,1.986044 -0.25011,2.878894 0.1225,-0.765862 0.18576,-1.579196 0.17156,-2.437578 -0.10794,-6.553949 -3.17634,-9.747147 -3.68298,-10.252087 l -1.53685,1.795239 c -0.0638,-0.06311 -0.11863,-0.114373 -0.16433,-0.159163 z m -18.61695,0.02739 1.82211,2.09858 c -0.0473,0.05674 -0.12411,0.149844 -0.22221,0.275953 l -1.67793,-1.933216 c -0.40111,0.377623 -2.5452,2.478563 -3.33778,6.617684 0.7186,-4.431612 3.00068,-6.668172 3.41581,-7.059001 z m 9.29924,7.90236 8.13645,9.347234 0.34468,-0.501779 c 0,0 1.19079,-1.731424 1.75442,-4.679817 -0.52228,3.216263 -1.83297,5.121134 -1.83297,5.121134 l -0.34468,0.501262 -8.13594,-9.347234 -7.99641,9.195305 -0.35191,-0.473873 c 0,1.1e-5 -2.10466,-2.845958 -2.05156,-7.049182 0.008,-0.640884 0.08,-1.257737 0.19637,-1.843815 -0.0701,0.452012 -0.11234,0.920477 -0.11834,1.402498 -0.0532,4.203225 2.05207,7.049711 2.05207,7.049699 l 0.3514,0.473873 z"
       id="path143" /><path
       style="baseline-shift:baseline;display:inline;overflow:visible;opacity:1;vector-effect:none;fill:#ffffff;stroke-width:1.47343;stroke-linecap:round;stroke-miterlimit:4.4;enable-background:accumulate;stop-color:#000000;stop-opacity:1"
       d="m 152.41796,49.791595 v 1.419551 l 0.078,0.0016 v -0.263033 -1.108977 z"
       id="path70" /><path
       style="baseline-shift:baseline;display:inline;overflow:visible;opacity:1;vector-effect:none;fill:#ffffff;stroke-width:1.47343;stroke-linecap:round;stroke-miterlimit:4.4;enable-background:accumulate;stop-color:#000000;stop-opacity:1"
       d="m 135.85101,45.505035 -0.17415,10e-4 0.21911,1.003557 c 0.27073,1.254349 1.22586,2.398656 2.45618,3.005501 0.54357,0.268112 1.28452,0.352607 2.04122,0.363802 0.7567,0.0112 1.47831,-0.043 2.01486,-0.310059 0.78579,-0.39107 1.52061,-1.142752 1.87637,-1.931665 l 0.11524,-0.253214 h 1.36168 0.90744 c 0.0678,-0.160838 0.1262,-0.310905 0.17053,-0.441317 h -0.99994 -1.36116 l -0.11575,0.253215 c -0.35574,0.788913 -1.09006,1.540079 -1.87586,1.931148 -0.53653,0.267058 -1.25868,0.322288 -2.01538,0.311092 -0.7567,-0.01121 -1.49715,-0.09622 -2.0407,-0.364319 -1.23033,-0.606846 -2.18597,-1.751669 -2.4567,-3.006018 z"
       id="path69" /><path
       style="baseline-shift:baseline;display:inline;overflow:visible;opacity:1;vector-effect:none;fill:#ffffff;stroke-width:1.47343;stroke-linecap:round;stroke-miterlimit:4.4;enable-background:accumulate;stop-color:#000000;stop-opacity:1"
       d="m 135.80605,43.19355 -0.12247,0.441317 h 4.64778 4.60075 l -0.0878,-0.441317 h -4.43435 z"
       id="path67" /><path
       style="baseline-shift:baseline;display:inline;overflow:visible;opacity:1;vector-effect:none;fill:#ffffff;stroke-width:1.47343;stroke-linecap:round;stroke-miterlimit:4.4;enable-background:accumulate;stop-color:#000000;stop-opacity:1"
       d="m 152.61123,43.010099 c -0.0977,0.39755 -0.12609,0.852742 -0.12609,1.623673 0,1.245414 0.0728,1.667956 0.39222,2.349211 0.43652,0.930938 1.08904,1.738341 1.82831,2.195215 1.27263,0.786542 3.11141,0.919178 4.47673,0.31781 1.56614,-0.689806 2.54683,-2.121412 2.80035,-3.925342 -0.34228,1.595245 -1.28663,2.851439 -2.72283,3.484025 -1.36533,0.601368 -3.20306,0.468731 -4.4757,-0.31781 -0.73927,-0.456875 -1.3923,-1.264278 -1.82883,-2.195215 -0.31943,-0.681256 -0.39222,-1.103797 -0.39222,-2.349211 0,-0.505776 0.012,-0.875537 0.0481,-1.182356 z"
       id="path66" /><path
       style="baseline-shift:baseline;display:inline;overflow:visible;opacity:1;vector-effect:none;fill:#ffffff;stroke-width:1.47343;stroke-linecap:round;stroke-miterlimit:4.4;enable-background:accumulate;stop-color:#000000;stop-opacity:1"
       d="m 117.66969,37.550483 -7.99641,9.195305 -0.3514,-0.473873 c 0,1.2e-5 -2.10524,-2.846474 -2.05207,-7.049699 0.006,-0.482021 0.0483,-0.950486 0.11834,-1.402498 -0.11634,0.586078 -0.18827,1.202931 -0.19637,1.843815 -0.0531,4.203224 2.05155,7.049193 2.05155,7.049182 l 0.35192,0.473873 7.99641,-9.195305 8.13594,9.347234 0.34468,-0.501262 c 0,0 1.31068,-1.904871 1.83296,-5.121134 -0.56363,2.948393 -1.75441,4.679817 -1.75441,4.679817 l -0.34468,0.501779 z"
       id="path65" /><path
       style="baseline-shift:baseline;display:inline;overflow:visible;opacity:1;vector-effect:none;fill:#ffffff;stroke-width:1.47343;stroke-linecap:round;stroke-miterlimit:4.4;enable-background:accumulate;stop-color:#000000;stop-opacity:1"
       d="m 140.51378,37.010465 c -2.20449,-0.0092 -3.68321,0.578369 -5.00952,1.95957 -0.81572,0.849503 -1.35959,1.848146 -1.6893,3.125391 -0.033,0.128206 -0.0613,0.287318 -0.0848,0.468705 0.002,-0.0093 0.005,-0.01841 0.006,-0.02739 0.32972,-1.277245 0.87305,-2.275887 1.68879,-3.12539 1.3265,-1.381412 2.80547,-1.969966 5.01054,-1.960087 2.07924,0.0088 3.51658,0.571532 4.79558,1.850533 1.36302,1.363016 1.85999,2.739127 1.80092,5.087545 l -0.016,0.603064 0.0656,-5.17e-4 0.0284,-1.043864 c 0.059,-2.348419 -0.43791,-3.72453 -1.80092,-5.087545 -1.27879,-1.278792 -2.71636,-1.841055 -4.79506,-1.850016 z"
       id="path64" /><path
       style="baseline-shift:baseline;display:inline;overflow:visible;opacity:1;vector-effect:none;fill:#ffffff;stroke-width:1.47343;stroke-linecap:round;stroke-miterlimit:4.4;enable-background:accumulate;stop-color:#000000;stop-opacity:1"
       d="m 152.49651,32.214375 -1.08934,0.02532 -1.11001,0.02636 v 0.439766 l 1.03146,-0.02481 1.08986,-0.02532 v 2.731616 c 0,0.888305 0.009,1.69619 0.0232,2.285649 0.008,0.29473 0.0159,0.534506 0.0258,0.707967 0.005,0.08672 0.009,0.156057 0.0176,0.218074 0.004,0.03095 0.007,0.05674 0.0191,0.102836 0.005,0.02306 0.008,0.04858 0.0362,0.106971 0.006,0.0146 0.0166,0.03363 0.03,0.05426 0.0133,0.02064 0.0597,0.07202 0.0599,0.07235 3.3e-4,3.3e-4 0.12213,0.09126 0.12247,0.09147 3.4e-4,2.19e-4 0.21825,0.05426 0.21859,0.05426 0.23011,0 0.21699,-0.04536 0.26562,-0.06873 0.0486,-0.02338 0.0951,-0.04791 0.14418,-0.077 0.0984,-0.05818 0.20948,-0.131164 0.32349,-0.21239 0.74725,-0.532085 2.2708,-1.135364 3.098,-1.239201 3.5524,-0.446063 6.51349,1.621393 7.34012,5.128369 0.21537,0.913594 0.23821,2.315899 0.0755,3.426664 0.24334,-1.155363 0.24825,-2.829201 0.004,-3.869014 -0.82664,-3.506975 -3.78771,-5.573915 -7.34012,-5.127853 -0.8272,0.103871 -2.35127,0.707633 -3.09852,1.239718 -0.11401,0.08118 -0.22463,0.153697 -0.32298,0.211873 -0.0492,0.02909 -0.0956,0.05361 -0.14418,0.077 -0.0486,0.02338 -0.0354,0.06873 -0.26562,0.06873 -3.4e-4,0 -0.21825,-0.05306 -0.21859,-0.05323 -3.4e-4,-2.2e-4 -0.12213,-0.09215 -0.12247,-0.0925 -3.4e-4,-3.29e-4 -0.0465,-0.05222 -0.0599,-0.07286 -0.0133,-0.02064 -0.0234,-0.03915 -0.03,-0.05374 -0.0288,-0.05839 -0.0312,-0.08391 -0.0367,-0.10697 -0.0116,-0.0461 -0.0158,-0.07188 -0.0191,-0.102836 -0.008,-0.06197 -0.0115,-0.131877 -0.017,-0.218591 -0.01,-0.173462 -0.0181,-0.413239 -0.0258,-0.707968 -0.0148,-0.589459 -0.0238,-1.396827 -0.0238,-2.285131 z"
       id="path63" /><path
       style="baseline-shift:baseline;display:inline;overflow:visible;opacity:1;vector-effect:none;fill:#ffffff;stroke-width:1.47343;stroke-linecap:round;stroke-miterlimit:4.4;enable-background:accumulate;stop-color:#000000;stop-opacity:1"
       d="m 108.37,29.648123 c -0.41513,0.390829 -2.69721,2.627389 -3.41581,7.059001 0.79258,-4.139121 2.93667,-6.240061 3.33778,-6.617684 l 1.67793,1.933216 c 0.0981,-0.126109 0.17488,-0.219215 0.22221,-0.275953 z"
       id="path62" /><path
       style="baseline-shift:baseline;display:inline;overflow:visible;opacity:1;vector-effect:none;fill:#ffffff;stroke-width:1.47343;stroke-linecap:round;stroke-miterlimit:4.4;enable-background:accumulate;stop-color:#000000;stop-opacity:1"
       d="m 126.98695,29.620733 -1.77973,2.076876 c 0.0457,0.04479 0.10052,0.09606 0.16433,0.159163 l 1.53685,-1.795239 c 0.50664,0.50494 3.57504,3.698138 3.68298,10.252087 0.0142,0.858382 -0.0491,1.671716 -0.17156,2.437578 0.17286,-0.89285 0.26699,-1.853603 0.25011,-2.878894 -0.1079,-6.553948 -3.17634,-9.746631 -3.68298,-10.251571 z"
       id="path61" /></g><g
     id="g92"
     inkscape:label="Logotipo"
     transform="matrix(0.34387138,0,0,0.34387138,0.06645651,0.04984239)"><path
       style="baseline-shift:baseline;display:inline;overflow:visible;opacity:1;vector-effect:none;fill:#ffffff;stroke-linecap:square;stroke-miterlimit:2.2;paint-order:markers stroke fill;enable-background:accumulate;stop-color:#000000;stop-opacity:1;fill-opacity:1"
       d="M 50.631018,0.07596435 C 22.763428,0.07605626 0.10137861,22.73759 0.10128581,50.60518 c 9.39e-5,27.867589 22.66217919,50.5276 50.52973219,50.52767 9.347743,-5e-5 18.49065,-2.627879 26.446965,-7.519959 1.276768,-0.670398 2.39753,-1.565006 3.54707,-2.425692 9.787015,-7.235395 16.568362,-17.664954 19.251538,-29.308805 0.052,-0.256628 0.115958,-0.397959 0.151929,-0.681096 0.74367,-3.445461 1.12965,-6.993082 1.12965,-10.592118 0,-10.892151 -3.581691,-21.449532 -10.082075,-30.167668 L 89.058647,17.794779 C 79.460144,6.5530141 65.413544,0.07592845 50.631018,0.07596435 Z M 50.630501,3.3114258 C 64.46845,3.3113922 77.611925,9.3720664 86.597298,19.895943 L 78.84635,26.152926 C 71.754544,17.969542 61.45923,13.267911 50.630501,13.267924 30.0099,13.267883 13.293203,29.984579 13.293245,50.60518 c -4e-5,20.620598 16.716656,37.336263 37.337256,37.336222 6.563526,1.9e-5 13.011202,-1.730196 18.692916,-5.016231 l 6.546371,7.674467 C 68.314802,95.367364 59.564098,97.89785 50.630501,97.8979 24.511244,97.89783 3.337352,76.724436 3.337264,50.60518 3.337351,24.485923 24.511244,3.3115119 50.630501,3.3114258 Z m 0.532784,12.0969362 c 1.823379,-0.0029 3.736157,-0.03425 5.727299,0.316776 15.746416,2.534124 22.573895,14.568934 27.306344,24.797453 4.549723,16.989377 -5.572787,31.099394 -5.572787,31.099394 L 50.689412,38.925273 30.616219,62.835441 c 0,0 -3.642641,-7.946088 -3.144511,-13.122713 1.003258,-10.425984 9.733773,-18.728573 9.733773,-18.728573 l -7.220748,-8.452714 c 0,0 8.414901,-7.102832 21.178552,-7.123079 z m 36.822559,6.19342 c 6.440894,8.296013 9.937378,18.500587 9.937378,29.003398 0,15.447818 -7.54406,29.92159 -20.207552,38.768693 l -6.440951,-7.55096 -0.001,5.16e-4 -20.76104,-23.909135 -19.242236,22.675102 c 0,0 -15.459723,-8.878288 -15.328264,-29.873112 C 15.291615,35.537532 27.579195,23.030119 27.579195,23.030119 l 6.678145,7.77937 c 0,0 -8.194364,7.734507 -9.072831,19.782255 0.268924,8.984796 5.189864,15.909623 5.189864,15.909623 L 50.277035,42.382943 78.710441,75.21298 C 84.677513,68.40384 87.967384,59.658924 87.96724,50.60518 87.967113,42.378185 85.249891,34.381472 80.23748,27.857731 Z M 50.402608,61.000411 67.199516,81.027612 c 0,0 -7.417693,5.36456 -17.221171,4.999695 -9.803478,-0.364866 -16.243453,-4.612121 -16.243453,-4.612121 z"
       id="path232" /><path
       style="baseline-shift:baseline;display:inline;overflow:visible;opacity:1;vector-effect:none;stroke-linecap:square;stroke-miterlimit:2.2;paint-order:markers stroke fill;enable-background:accumulate;stop-color:#000000;stop-opacity:1"
       d="m 87.985719,21.601584 -7.748365,6.255949 c 5.012411,6.523741 7.729634,14.520454 7.729761,22.747449 1.44e-4,9.053744 -3.289727,17.79866 -9.256799,24.6078 L 50.276909,42.382745 30.374248,66.501169 c 0,0 -4.92094,-6.924827 -5.189864,-15.909623 0.878467,-12.047748 9.072831,-19.782255 9.072831,-19.782255 l -6.678145,-7.77937 c 0,0 -12.28758,12.507413 -11.637016,27.686165 -0.131459,20.994824 15.328263,29.873112 15.328263,29.873112 l 19.242237,-22.675102 20.761006,23.909135 10e-4,-5.16e-4 6.44095,7.55096 C 90.379036,80.526572 97.923093,66.0528 97.923093,50.604982 c 0,-10.502811 -3.49648,-20.707385 -9.937374,-29.003398 z m -0.157097,1.295012 c 5.930371,7.901078 9.224301,17.459092 9.349301,27.339416 -0.29926,-9.825954 -3.74597,-19.261695 -9.744625,-27.019539 v -5.17e-4 -5.17e-4 z m -60.240767,1.467094 5.735567,6.682279 c -0.135363,0.132417 0.0065,-0.06375 -0.451652,0.449068 L 27.290199,25.368279 C 25.985596,26.855784 17.237599,37.224311 16.669141,49.437611 16.80731,36.383527 26.172994,25.884184 27.587855,24.36369 Z M 50.305331,43.732016 66.528114,62.464723 50.096558,44.583127 30.857423,69.347507 30.278647,68.581662 c 0,0 -5.255708,-6.920439 -5.804297,-16.150435 l -0.0041,-0.03721 0.0015,-0.03721 c 0.0091,-0.209477 0.02048,-0.417529 0.03359,-0.624251 0.562453,8.792327 5.283915,15.404227 5.283915,15.404227 l 0.555522,0.782381 z m 46.875692,6.608382 h 5.2e-4 5.1e-4 c 9.7e-4,0.03364 0.0021,0.06715 0.0031,0.10077 -0.0019,-0.03357 -0.0032,-0.06707 -0.0041,-0.10077 z m 0.0041,0.108004 c 0.006,0.121767 0.01706,0.243492 0.01706,0.365869 0,0.141259 -0.0011,0.282149 -0.0021,0.42323 -0.002,-0.262592 -0.009,-0.525976 -0.01499,-0.789099 z m -8.469216,0.784448 c 0.09921,8.982562 -2.981444,17.7205 -8.710063,24.659477 l -0.539502,0.65319 -0.381372,-0.415995 0.194303,-0.221692 c 5.992628,-6.838312 9.336954,-15.592132 9.436634,-24.67498 z m -28.510405,16.912663 11.997201,13.020911 0.0057,-0.0057 6.241996,6.897771 c -0.214414,0.160088 -0.429951,0.318193 -0.647505,0.474906 l -6.471957,-7.589201 -0.0062,0.0062 z"
       id="path58" /><path
       style="baseline-shift:baseline;display:inline;overflow:visible;opacity:1;vector-effect:none;stroke-linecap:square;stroke-miterlimit:2.2;paint-order:markers stroke fill;enable-background:accumulate;stop-color:#000000;stop-opacity:1"
       d="M 50.630376,3.311228 C 24.511119,3.3113141 3.3372262,24.485725 3.3371392,50.604982 c 8.8e-5,26.119256 21.1739798,47.292651 47.2932368,47.292721 8.933597,-5e-5 17.6843,-2.530537 25.239286,-7.298263 l -6.54637,-7.674467 c -5.681714,3.286035 -12.12939,5.01625 -18.692916,5.016231 -20.6206,4.1e-5 -37.337296,-16.715624 -37.337256,-37.336222 -4.2e-5,-20.620601 16.716655,-37.337297 37.337256,-37.337256 10.828729,-1.3e-5 21.124043,4.701618 28.215849,12.885002 l 7.750948,-6.256983 C 77.6118,9.3718682 64.468325,3.3111944 50.630376,3.311228 Z m 0.01447,0.9456787 C 64.0101,4.2568618 76.665889,10.057733 85.494916,20.058526 l -6.601665,5.330424 c -0.10759,-0.119494 -0.216118,-0.238575 -0.325044,-0.356567 l 6.006351,-5.148007 C 75.454873,10.147845 62.633845,4.7217425 49.274386,5.1152522 24.175817,5.8545467 4.3144962,26.304886 4.0885142,51.19616 4.0875252,51.068929 4.0874812,50.941752 4.0874812,50.814271 4.0875652,25.093161 24.923738,4.2569952 50.644845,4.2569067 Z M 12.574301,51.21063 c 0.212902,20.836233 17.184676,37.676298 38.071061,37.676253 6.480409,3.1e-5 12.817684,-1.728491 18.474841,-4.875155 l 0.482142,0.565857 C 64.161795,87.713831 58.055311,89.523342 51.766224,89.708538 30.756584,90.327366 13.207515,73.782945 12.58877,52.773325 12.57332,52.250322 12.5687,51.72913 12.5743,51.21063 Z"
       id="path130" /><path
       style="baseline-shift:baseline;display:inline;overflow:visible;opacity:1;vector-effect:none;fill:#ffffff;stroke-width:1.47343;stroke-linecap:round;stroke-miterlimit:4.4;enable-background:accumulate;stop-color:#000000;stop-opacity:1"
       d="m 60.205889,68.145575 11.119218,12.804903 0.0062,-0.0062 6.471956,7.589201 c 0.217554,-0.156713 0.433092,-0.314818 0.647506,-0.474906 l -6.241996,-6.897771 -0.0057,0.0057 z"
       id="path90" /><path
       style="baseline-shift:baseline;display:inline;overflow:visible;opacity:1;vector-effect:none;fill:#ffffff;stroke-width:1.47343;stroke-linecap:round;stroke-miterlimit:4.4;enable-background:accumulate;stop-color:#000000;stop-opacity:1"
       d="m 88.716293,51.23283 c -0.09968,9.082848 -3.444005,17.836668 -9.436633,24.67498 l -0.194303,0.221692 0.381372,0.415995 0.539502,-0.65319 C 85.73485,68.95333 88.8155,60.215392 88.716293,51.23283 Z"
       id="path75" /><path
       style="baseline-shift:baseline;display:inline;overflow:visible;opacity:1;vector-effect:none;fill:#ffffff;stroke-width:1.47343;stroke-linecap:round;stroke-miterlimit:4.4;enable-background:accumulate;stop-color:#000000;stop-opacity:1"
       d="m 12.574171,51.22923 c -0.0053,0.51238 -2.84e-4,1.027326 0.01499,1.544092 0.618745,21.00962 18.167814,37.554041 39.177454,36.935213 6.289087,-0.185196 12.39557,-1.994707 17.83612,-5.130953 L 69.120203,84.011728 C 63.463046,87.158392 57.125771,88.886914 50.645362,88.886883 29.765176,88.886928 12.797083,72.05691 12.574301,51.229233 Z"
       id="path74" /><path
       style="baseline-shift:baseline;display:inline;overflow:visible;opacity:1;vector-effect:none;fill:#ffffff;stroke-width:1.47343;stroke-linecap:round;stroke-miterlimit:4.4;enable-background:accumulate;stop-color:#000000;stop-opacity:1"
       d="m 12.574171,51.21063 c 6.3e-5,0.0062 -6.6e-5,0.01242 0,0.0186 6.4e-5,-0.0062 4.5e-4,-0.01242 5.17e-4,-0.0186 z"
       id="path73" /><path
       style="baseline-shift:baseline;display:inline;overflow:visible;opacity:1;vector-effect:none;fill:#ffffff;stroke-width:1.47343;stroke-linecap:round;stroke-miterlimit:4.4;enable-background:accumulate;stop-color:#000000;stop-opacity:1"
       d="m 97.185543,50.448919 c 0.006,0.262955 0.0128,0.526158 0.015,0.788582 9e-4,-0.141081 0.002,-0.281971 0.002,-0.42323 0,-0.122208 -0.0114,-0.243754 -0.017,-0.365352 z"
       id="path72" /><path
       style="baseline-shift:baseline;display:inline;overflow:visible;opacity:1;vector-effect:none;fill:#ffffff;stroke-width:1.47343;stroke-linecap:round;stroke-miterlimit:4.4;enable-background:accumulate;stop-color:#000000;stop-opacity:1"
       d="m 97.181543,50.340398 c 3.4e-4,0.0349 0.002,0.06962 0.004,0.104387 -8.4e-4,-0.03483 -0.002,-0.06955 -0.003,-0.104387 z"
       id="path71" /><path
       style="baseline-shift:baseline;display:inline;overflow:visible;opacity:1;vector-effect:none;fill:#ffffff;stroke-width:1.47343;stroke-linecap:round;stroke-miterlimit:4.4;enable-background:accumulate;stop-color:#000000;stop-opacity:1"
       d="M 50.305331,43.732016 30.344793,67.91917 29.789271,67.136789 c 0,0 -4.721462,-6.6119 -5.283915,-15.404227 -0.01311,0.206722 -0.02451,0.414774 -0.03359,0.624251 l -0.0015,0.03721 0.0041,0.03721 c 0.548589,9.229996 5.804297,16.150435 5.804297,16.150435 l 0.57876,0.765839 19.239135,-24.76438 16.431556,17.881596 z"
       id="path68" /><path
       style="baseline-shift:baseline;display:inline;overflow:visible;opacity:1;vector-effect:none;fill:#ffffff;stroke-width:1.47343;stroke-linecap:round;stroke-miterlimit:4.4;enable-background:accumulate;stop-color:#000000;stop-opacity:1"
       d="M 27.587855,24.36369 C 26.172994,25.884184 16.80731,36.383527 16.669141,49.437611 17.237599,37.224311 25.985596,26.855784 27.290199,25.368279 l 5.581571,6.126758 c 0.458114,-0.512814 0.316289,-0.316651 0.451652,-0.449068 z"
       id="path60" /><path
       style="baseline-shift:baseline;display:inline;overflow:visible;opacity:1;vector-effect:none;fill:#ffffff;stroke-width:1.47343;stroke-linecap:round;stroke-miterlimit:4.4;enable-background:accumulate;stop-color:#000000;stop-opacity:1"
       d="m 87.828622,22.896596 -0.395324,0.318843 v 5.17e-4 5.17e-4 c 5.998655,7.757844 9.445365,17.193585 9.744625,27.019539 -0.125,-9.880324 -3.41893,-19.438338 -9.349301,-27.339416 z"
       id="path59" /><path
       style="baseline-shift:baseline;display:inline;overflow:visible;opacity:1;vector-effect:none;fill:#ffffff;stroke-width:1.47343;stroke-linecap:round;stroke-miterlimit:4.4;enable-background:accumulate;stop-color:#000000;stop-opacity:1"
       d="M 50.644845,4.2569067 C 24.923738,4.2569952 4.0875652,25.093161 4.0874812,50.814271 c 2e-6,0.127481 7.7e-5,0.254658 0.001,0.381889 C 4.3145292,26.304886 24.175817,5.8545467 49.274386,5.1152522 62.633845,4.7217425 75.454874,10.147845 84.574557,19.884376 l -6.006351,5.148007 c 0.108926,0.117992 0.217454,0.237073 0.325044,0.356567 l 6.601665,-5.330424 C 76.665888,10.057733 64.010099,4.2568618 50.644845,4.2569067 Z"
       id="path231" /></g><g
     id="g94"
     inkscape:label="Copyright"><path
       d="m 304.76571,83.40464 c -2.59542,0 -5.10609,0.661906 -7.4668,1.953125 -2.38966,1.30705 -4.29865,3.20535 -5.66406,5.621094 a 1.2020102,1.2020102 0 0 0 -0.002,0.002 c -1.34399,2.387864 -2.03125,4.94184 -2.03125,7.589844 0,2.632874 0.67412,5.171744 1.99219,7.546874 a 1.2020102,1.2020102 0 0 0 0.004,0.006 c 1.34145,2.38043 3.2348,4.27574 5.61523,5.61719 a 1.2020102,1.2020102 0 0 0 0.006,0.004 c 2.37513,1.31807 4.91401,1.99219 7.54688,1.99219 2.63288,0 5.16711,-0.67492 7.53125,-1.99414 a 1.2020102,1.2020102 0 0 0 0.002,-0.002 c 2.39277,-1.34099 4.2889,-3.23627 5.61914,-5.61914 l 0.002,-0.002 c 1.33053,-2.37494 2.01172,-4.9148 2.01172,-7.548824 0,-2.6494 -0.69606,-5.203963 -2.05273,-7.591797 -1.35326,-2.415444 -3.25566,-4.314481 -5.64453,-5.621094 -2.3607,-1.291219 -4.87331,-1.953125 -7.46875,-1.953125 z m 0,1.201172 c 2.3941,0 4.69098,0.601563 6.89062,1.804687 2.19966,1.203124 3.926,2.924047 5.17774,5.160157 1.26388,2.223956 1.89648,4.557294 1.89648,7 0,2.430554 -0.61979,4.751094 -1.85937,6.962894 -1.22743,2.19965 -2.94835,3.91862 -5.16016,5.1582 -2.19965,1.22743 -4.51476,1.8418 -6.94531,1.8418 -2.43056,0 -4.75109,-0.61437 -6.96289,-1.8418 -2.19966,-1.23958 -3.91863,-2.95855 -5.15821,-5.1582 -1.22743,-2.2118 -1.84179,-4.53234 -1.84179,-6.962894 0,-2.442706 0.62521,-4.776044 1.87695,-7 1.26389,-2.23611 2.99566,-3.957033 5.19531,-5.160157 2.19965,-1.203124 4.49653,-1.804687 6.89063,-1.804687 z m 0,2.753906 c -1.92014,0 -3.76671,0.479385 -5.54102,1.439453 -1.76215,0.960069 -3.14757,2.340063 -4.15625,4.138672 -1.00868,1.786457 -1.51367,3.664065 -1.51367,5.632813 0,1.944444 0.49219,3.803814 1.47656,5.578124 0.99653,1.77431 2.38195,3.15972 4.15625,4.15625 1.77431,0.98437 3.63369,1.47656 5.57813,1.47656 1.94444,0 3.80382,-0.49219 5.57812,-1.47656 1.77431,-0.99653 3.1543,-2.38194 4.13867,-4.15625 0.99653,-1.77431 1.49414,-3.63368 1.49414,-5.578124 0,-1.956596 -0.50303,-3.834203 -1.51171,-5.632813 -1.00868,-1.798609 -2.40149,-3.178603 -4.17579,-4.138672 -1.76215,-0.960068 -3.60329,-1.439453 -5.52343,-1.439453 z m 0,1.201172 c 1.71983,0 3.34812,0.422598 4.94922,1.294922 a 1.2020102,1.2020102 0 0 0 0.002,0.002 c 1.58185,0.855935 2.79297,2.052017 3.69922,3.667969 0.91773,1.636437 1.35937,3.294863 1.35937,5.044922 0,1.739114 -0.43706,3.379364 -1.34179,4.990234 a 1.2020102,1.2020102 0 0 0 -0.002,0.004 c -0.88206,1.5899 -2.08428,2.79754 -3.67578,3.6914 -1.60963,0.8919 -3.25063,1.32422 -4.99023,1.32422 -1.73959,0 -3.37864,-0.43232 -4.98828,-1.32422 -1.59122,-0.8937 -2.8011,-2.10079 -3.69532,-3.6914 l -0.002,-0.002 v -0.002 c -0.89252,-1.61017 -1.32227,-3.25005 -1.32227,-4.990234 0,-1.763486 0.44169,-3.41916 1.35743,-5.041016 a 1.2020102,1.2020102 0 0 0 0.002,-0.0039 c 0.90677,-1.616898 2.11104,-2.812755 3.67969,-3.667969 l 0.002,-0.002 c 1.61395,-0.872854 3.24782,-1.294922 4.9668,-1.294922 z m 0.23828,1.078125 c -1.53996,0 -2.99102,0.352697 -4.2793,1.060547 a 1.2020102,1.2020102 0 0 0 -0.006,0.002 c -1.31478,0.730432 -2.34224,1.866097 -3.01758,3.287109 -0.66848,1.406602 -0.99023,2.992206 -0.99023,4.708985 0,2.613731 0.74778,4.852231 2.30469,6.466801 1.53251,1.58927 3.61064,2.41015 5.95117,2.41015 1.70266,0 3.2742,-0.49038 4.55664,-1.46679 1.29202,-0.9837 2.19989,-2.40655 2.71875,-4.12696 a 1.2020102,1.2020102 0 0 0 -0.76758,-1.48633 l -2.93555,-0.984371 a 1.2020102,1.2020102 0 0 0 -1.53515,0.800781 c -0.28485,0.97059 -0.65969,1.53425 -0.98828,1.80469 -0.38462,0.30419 -0.78159,0.44922 -1.35938,0.44922 -0.62668,0 -1.05344,-0.19659 -1.57031,-0.82227 -0.42763,-0.51765 -0.76367,-1.53641 -0.76367,-3.154296 0,-1.61515 0.34028,-2.617835 0.76953,-3.121094 a 1.2020102,1.2020102 0 0 0 0.006,-0.0059 c 0.50565,-0.601544 0.99475,-0.830078 1.79687,-0.830078 0.52459,0 0.86997,0.120249 1.19141,0.361328 a 1.2020102,1.2020102 0 0 0 0.0117,0.0078 c 0.30192,0.221413 0.63311,0.651849 0.91797,1.394531 a 1.2020102,1.2020102 0 0 0 1.39843,0.738282 l 2.95313,-0.691407 a 1.2020102,1.2020102 0 0 0 0.85351,-1.582031 c -0.61741,-1.691178 -1.53236,-3.042539 -2.7871,-3.921875 -1.22656,-0.879922 -2.74597,-1.298828 -4.42969,-1.298828 z m 0,1.201172 c 1.49479,0 2.7398,0.359158 3.73633,1.076172 1.00868,0.70486 1.79253,1.822267 2.35156,3.353515 l -2.95313,0.69336 c -0.34028,-0.887152 -0.7832,-1.5306 -1.33007,-1.931641 -0.53472,-0.401041 -1.17275,-0.601562 -1.91407,-0.601562 -1.1059,0 -2.01193,0.419271 -2.71679,1.257812 -0.70486,0.826388 -1.05664,2.126087 -1.05664,3.900391 0,1.774306 0.34634,3.081376 1.03906,3.919926 0.6927,0.83854 1.52387,1.25781 2.49609,1.25781 0.81423,0 1.51975,-0.23698 2.11524,-0.71094 0.59548,-0.48611 1.05664,-1.2882 1.38476,-2.40625 l 2.93555,0.98438 c -0.46181,1.53124 -1.22744,2.70334 -2.29688,3.51757 -1.06944,0.81424 -2.34548,1.22071 -3.82812,1.22071 -2.07812,0 -3.77344,-0.67991 -5.08594,-2.04102 -1.3125,-1.36111 -1.96875,-3.23871 -1.96875,-5.632811 0,-1.567707 0.29167,-2.96593 0.875,-4.19336 0.58333,-1.227429 1.42187,-2.144315 2.51563,-2.751953 1.1059,-0.607638 2.34006,-0.912109 3.70117,-0.912109 z"
       style="opacity:1;font-weight:bold;font-size:37.3333px;line-height:1;font-family:Arial;-inkscape-font-specification:'Arial, Bold';letter-spacing:1px;word-spacing:-0.07px;baseline-shift:baseline;white-space:pre;display:inline;overflow:visible;vector-effect:none;fill:#ffffff;stroke-linecap:round;stroke-linejoin:round;stroke-miterlimit:0;paint-order:stroke fill markers;enable-background:accumulate;stop-color:#000000;stop-opacity:1"
       id="path94"
       transform="matrix(0.26458333,0,0,0.26458333,11.440108,2.960969)" /><path
       d="m 304.76571,84.605812 c -2.3941,0 -4.69098,0.601563 -6.89063,1.804687 -2.19965,1.203124 -3.93142,2.924047 -5.19531,5.160157 -1.25174,2.223956 -1.87695,4.557294 -1.87695,7 0,2.430554 0.61436,4.751094 1.84179,6.962894 1.23958,2.19965 2.95855,3.91862 5.15821,5.1582 2.2118,1.22743 4.53233,1.8418 6.96289,1.8418 2.43055,0 4.74566,-0.61437 6.94531,-1.8418 2.21181,-1.23958 3.93273,-2.95855 5.16016,-5.1582 1.23958,-2.2118 1.85937,-4.53234 1.85937,-6.962894 0,-2.442706 -0.6326,-4.776044 -1.89648,-7 -1.25174,-2.23611 -2.97808,-3.957033 -5.17774,-5.160157 -2.19964,-1.203124 -4.49652,-1.804687 -6.89062,-1.804687 z m 0,2.753906 c 1.92014,0 3.76128,0.479385 5.52343,1.439453 1.7743,0.960069 3.16711,2.340063 4.17579,4.138672 1.00868,1.79861 1.51171,3.676217 1.51171,5.632813 0,1.944444 -0.49761,3.803814 -1.49414,5.578124 -0.98437,1.77431 -2.36436,3.15972 -4.13867,4.15625 -1.7743,0.98437 -3.63368,1.47656 -5.57812,1.47656 -1.94444,0 -3.80382,-0.49219 -5.57813,-1.47656 -1.7743,-0.99653 -3.15972,-2.38194 -4.15625,-4.15625 -0.98437,-1.77431 -1.47656,-3.63368 -1.47656,-5.578124 0,-1.968748 0.50499,-3.846356 1.51367,-5.632813 1.00868,-1.798609 2.3941,-3.178603 4.15625,-4.138672 1.77431,-0.960068 3.62088,-1.439453 5.54102,-1.439453 z m 0.23828,3.480469 c -1.36111,0 -2.59527,0.304471 -3.70117,0.912109 -1.09376,0.607638 -1.9323,1.524524 -2.51563,2.751953 -0.58333,1.22743 -0.875,2.625653 -0.875,4.19336 0,2.394101 0.65625,4.271701 1.96875,5.632811 1.3125,1.36111 3.00782,2.04102 5.08594,2.04102 1.48264,0 2.75868,-0.40647 3.82812,-1.22071 1.06944,-0.81423 1.83507,-1.98633 2.29688,-3.51757 l -2.93555,-0.98438 c -0.32812,1.11805 -0.78928,1.92014 -1.38476,2.40625 -0.59549,0.47396 -1.30101,0.71094 -2.11524,0.71094 -0.97222,0 -1.80339,-0.41927 -2.49609,-1.25781 -0.69272,-0.83855 -1.03906,-2.14562 -1.03906,-3.919926 0,-1.774304 0.35178,-3.074003 1.05664,-3.900391 0.70486,-0.838541 1.61089,-1.257812 2.71679,-1.257812 0.74132,0 1.37935,0.200521 1.91407,0.601562 0.54687,0.401041 0.98979,1.044489 1.33007,1.931641 l 2.95313,-0.69336 c -0.55903,-1.531248 -1.34288,-2.648655 -2.35156,-3.353515 -0.99653,-0.717014 -2.24154,-1.076172 -3.73633,-1.076172 z"
       style="opacity:1;font-weight:bold;font-size:37.3333px;line-height:1;font-family:Arial;-inkscape-font-specification:'Arial, Bold';letter-spacing:1px;word-spacing:-0.07px;baseline-shift:baseline;white-space:pre;display:inline;overflow:visible;vector-effect:none;stroke-linecap:round;stroke-linejoin:round;stroke-miterlimit:0;paint-order:stroke fill markers;enable-background:accumulate;stop-color:#000000;stop-opacity:1"
       id="path93"
       transform="matrix(0.26458333,0,0,0.26458333,11.440108,2.960969)" /></g></svg>
